<?xml version="1.0" encoding="UTF-8" standalone="no"?>
<!-- Created with Inkscape (http://www.inkscape.org/) -->

<svg
   xmlns:dc="http://purl.org/dc/elements/1.1/"
   xmlns:cc="http://creativecommons.org/ns#"
   xmlns:rdf="http://www.w3.org/1999/02/22-rdf-syntax-ns#"
   xmlns:svg="http://www.w3.org/2000/svg"
   xmlns="http://www.w3.org/2000/svg"
   xmlns:sodipodi="http://sodipodi.sourceforge.net/DTD/sodipodi-0.dtd"
   xmlns:inkscape="http://www.inkscape.org/namespaces/inkscape"
   id="svg2985"
   version="1.1"
   inkscape:version="0.48.2 r9819"
   width="179.75"
   height="41.299999"
   xml:space="preserve"
   sodipodi:docname="2410.pdf"><metadata
     id="metadata2991"><rdf:RDF><cc:Work
         rdf:about=""><dc:format>image/svg+xml</dc:format><dc:type
           rdf:resource="http://purl.org/dc/dcmitype/StillImage" /><dc:title></dc:title></cc:Work></rdf:RDF></metadata><defs
     id="defs2989"><clipPath
       clipPathUnits="userSpaceOnUse"
       id="clipPath3015"><path
         d="m 26.001,215.356 0,-141.999 12.95,0 0,5.093 c -3.237,2.029 -3.237,6.281 -3.237,6.281 l 0,0 0,62.612 c 0,3.378 1.558,5.2 3.237,6.182 l 0,0 0,13.354 c -3.237,2.029 -3.237,6.281 -3.237,6.281 l 0,0 0,42.196 -9.713,0 z"
         id="path3017"
         inkscape:connector-curvature="0" /></clipPath><clipPath
       clipPathUnits="userSpaceOnUse"
       id="clipPath3029"><path
         d="m 38.769,153.415 c 2.013,1.258 4.278,1.258 4.278,1.258 l 0,0 138.723,0 0,11.153 -138.723,0 c -1.856,0 -3.243,0.47 -4.278,1.172 l 0,0 0,-13.583 z"
         id="path3031"
         inkscape:connector-curvature="0" /></clipPath><clipPath
       clipPathUnits="userSpaceOnUse"
       id="clipPath3043"><path
         d="m 38.769,73.357 143.001,0 0,4.04 -138.723,0 c -1.856,0 -3.243,0.47 -4.278,1.172 l 0,0 0,-5.212 z"
         id="path3045"
         inkscape:connector-curvature="0" /></clipPath><clipPath
       clipPathUnits="userSpaceOnUse"
       id="clipPath3057"><path
         d="m 35.714,215.356 0,-42.196 c 0,0 0,-7.334 7.333,-7.334 l 0,0 138.723,0 0,49.53 -146.056,0 z"
         id="path3059"
         inkscape:connector-curvature="0" /></clipPath><clipPath
       clipPathUnits="userSpaceOnUse"
       id="clipPath3071"><path
         d="m 43.047,154.673 c 0,0 -7.333,0 -7.333,-7.33 l 0,0 0,-62.612 c 0,0 0,-7.334 7.333,-7.334 l 0,0 99.051,0 0,77.276 -99.051,0 z"
         id="path3073"
         inkscape:connector-curvature="0" /></clipPath><clipPath
       clipPathUnits="userSpaceOnUse"
       id="clipPath3085"><path
         d="m 141.916,77.397 39.855,0 0,77.276 -39.855,0 0,-77.276 z"
         id="path3087"
         inkscape:connector-curvature="0" /></clipPath><clipPath
       clipPathUnits="userSpaceOnUse"
       id="clipPath3099"><path
         d="m 26.431,171.667 -0.883,-0.745 28.249,-74.415 7.064,-17.839 0.003,-0.004 1.019,-0.986 115.114,44.706 0.003,0.003 0.441,0.929 -35.725,92.264 -0.737,0.175 -114.548,-44.088 z"
         id="path3101"
         inkscape:connector-curvature="0" /></clipPath><clipPath
       clipPathUnits="userSpaceOnUse"
       id="clipPath3113"><path
         d="m 11.445,686.522 94.973,0 0,92.518 -94.973,0 0,-92.518 z"
         id="path3115"
         inkscape:connector-curvature="0" /></clipPath><clipPath
       clipPathUnits="userSpaceOnUse"
       id="clipPath3127"><path
         d="m 106.226,686.522 95.168,0 0,92.518 -95.168,0 0,-92.518 z"
         id="path3129"
         inkscape:connector-curvature="0" /></clipPath><clipPath
       clipPathUnits="userSpaceOnUse"
       id="clipPath3141"><path
         d="m 201.2,686.522 95.168,0 0,92.518 -95.168,0 0,-92.518 z"
         id="path3143"
         inkscape:connector-curvature="0" /></clipPath><clipPath
       clipPathUnits="userSpaceOnUse"
       id="clipPath3155"><path
         d="m 296.175,686.522 95.17,0 0,92.518 -95.17,0 0,-92.518 z"
         id="path3157"
         inkscape:connector-curvature="0" /></clipPath><clipPath
       clipPathUnits="userSpaceOnUse"
       id="clipPath3169"><path
         d="m 391.151,686.522 95.167,0 0,92.518 -95.167,0 0,-92.518 z"
         id="path3171"
         inkscape:connector-curvature="0" /></clipPath><clipPath
       clipPathUnits="userSpaceOnUse"
       id="clipPath3183"><path
         d="m 486.124,686.522 95.071,0 0,92.518 -95.071,0 0,-92.518 z"
         id="path3185"
         inkscape:connector-curvature="0" /></clipPath><clipPath
       clipPathUnits="userSpaceOnUse"
       id="clipPath3197"><path
         d="m 581.002,779.04 0,-294.12 5.389,0 c 6.889,0 6.889,-6.888 6.889,-6.888 l 0,0 0,-55.698 1.368,0 0,356.706 -13.646,0 z"
         id="path3199"
         inkscape:connector-curvature="0" /></clipPath><clipPath
       clipPathUnits="userSpaceOnUse"
       id="clipPath3211"><path
         d="m 11.445,594.057 94.973,0 0,92.659 -94.973,0 0,-92.659 z"
         id="path3213"
         inkscape:connector-curvature="0" /></clipPath><clipPath
       clipPathUnits="userSpaceOnUse"
       id="clipPath3225"><path
         d="m 106.226,594.057 95.168,0 0,92.659 -95.168,0 0,-92.659 z"
         id="path3227"
         inkscape:connector-curvature="0" /></clipPath><clipPath
       clipPathUnits="userSpaceOnUse"
       id="clipPath3239"><path
         d="m 201.2,594.057 95.168,0 0,92.659 -95.168,0 0,-92.659 z"
         id="path3241"
         inkscape:connector-curvature="0" /></clipPath><clipPath
       clipPathUnits="userSpaceOnUse"
       id="clipPath3253"><path
         d="m 296.175,594.057 95.17,0 0,92.659 -95.17,0 0,-92.659 z"
         id="path3255"
         inkscape:connector-curvature="0" /></clipPath><clipPath
       clipPathUnits="userSpaceOnUse"
       id="clipPath3267"><path
         d="m 391.151,594.057 95.167,0 0,92.659 -95.167,0 0,-92.659 z"
         id="path3269"
         inkscape:connector-curvature="0" /></clipPath><clipPath
       clipPathUnits="userSpaceOnUse"
       id="clipPath3281"><path
         d="m 486.124,594.057 95.071,0 0,92.659 -95.071,0 0,-92.659 z"
         id="path3283"
         inkscape:connector-curvature="0" /></clipPath><clipPath
       clipPathUnits="userSpaceOnUse"
       id="clipPath3295"><path
         d="m 11.445,501.495 94.973,0 0,92.755 -94.973,0 0,-92.755 z"
         id="path3297"
         inkscape:connector-curvature="0" /></clipPath><clipPath
       clipPathUnits="userSpaceOnUse"
       id="clipPath3309"><path
         d="m 106.226,501.495 95.168,0 0,92.755 -95.168,0 0,-92.755 z"
         id="path3311"
         inkscape:connector-curvature="0" /></clipPath><clipPath
       clipPathUnits="userSpaceOnUse"
       id="clipPath3323"><path
         d="m 201.2,501.495 95.168,0 0,92.755 -95.168,0 0,-92.755 z"
         id="path3325"
         inkscape:connector-curvature="0" /></clipPath><clipPath
       clipPathUnits="userSpaceOnUse"
       id="clipPath3337"><path
         d="m 296.175,501.495 95.17,0 0,92.755 -95.17,0 0,-92.755 z"
         id="path3339"
         inkscape:connector-curvature="0" /></clipPath><clipPath
       clipPathUnits="userSpaceOnUse"
       id="clipPath3351"><path
         d="m 391.151,501.495 95.167,0 0,92.755 -95.167,0 0,-92.755 z"
         id="path3353"
         inkscape:connector-curvature="0" /></clipPath><clipPath
       clipPathUnits="userSpaceOnUse"
       id="clipPath3365"><path
         d="m 486.124,501.495 95.071,0 0,92.755 -95.071,0 0,-92.755 z"
         id="path3367"
         inkscape:connector-curvature="0" /></clipPath><clipPath
       clipPathUnits="userSpaceOnUse"
       id="clipPath3379"><path
         d="m 11.445,501.688 0,-26.639 7.275,0 0,2.983 c 0,6.888 6.888,6.888 6.888,6.888 l 0,0 352.126,0 0,16.768 -366.289,0 z"
         id="path3381"
         inkscape:connector-curvature="0" /></clipPath><clipPath
       clipPathUnits="userSpaceOnUse"
       id="clipPath3393"><path
         d="m 377.541,484.92 203.655,0 0,16.768 -203.655,0 0,-16.768 z"
         id="path3395"
         inkscape:connector-curvature="0" /></clipPath><clipPath
       clipPathUnits="userSpaceOnUse"
       id="clipPath3407"><path
         d="m 11.445,422.334 7.275,0 0,52.908 -7.275,0 0,-52.908 z"
         id="path3409"
         inkscape:connector-curvature="0" /></clipPath><clipPath
       clipPathUnits="userSpaceOnUse"
       id="clipPath3421"><path
         d="m 25.608,484.92 c 0,0 -6.888,0 -6.888,-6.888 l 0,0 0,-18.233 16.994,0 0,0.283 c 0,7.333 7.333,7.333 7.333,7.333 l 0,0 248.913,0 c 7.333,0 7.333,-7.333 7.333,-7.333 l 0,0 0,-0.283 12.902,0 0,0.283 c 0,7.333 7.333,7.333 7.333,7.333 l 0,0 86.777,0 0,17.505 -380.697,0 z"
         id="path3423"
         inkscape:connector-curvature="0" /></clipPath><clipPath
       clipPathUnits="userSpaceOnUse"
       id="clipPath3435"><path
         d="m 406.111,484.92 0,-17.505 162.332,0 c 7.33,0 7.33,-7.333 7.33,-7.333 l 0,0 0,-0.283 17.507,0 0,18.233 c 0,0 0,6.888 -6.889,6.888 l 0,0 -180.28,0 z"
         id="path3437"
         inkscape:connector-curvature="0" /></clipPath><clipPath
       clipPathUnits="userSpaceOnUse"
       id="clipPath3449"><path
         d="m 18.72,422.334 16.994,0 0,37.658 -16.994,0 0,-37.658 z"
         id="path3451"
         inkscape:connector-curvature="0" /></clipPath><clipPath
       clipPathUnits="userSpaceOnUse"
       id="clipPath3463"><path
         d="m 299.293,422.334 12.902,0 0,37.658 -12.902,0 0,-37.658 z"
         id="path3465"
         inkscape:connector-curvature="0" /></clipPath><clipPath
       clipPathUnits="userSpaceOnUse"
       id="clipPath3477"><path
         d="m 575.773,422.334 17.507,0 0,37.658 -17.507,0 0,-37.658 z"
         id="path3479"
         inkscape:connector-curvature="0" /></clipPath><clipPath
       clipPathUnits="userSpaceOnUse"
       id="clipPath3491"><path
         d="m 319.528,467.415 c 0,0 -7.333,0 -7.333,-7.333 l 0,0 0,-37.748 210.994,0 0,45.081 -203.661,0 z"
         id="path3493"
         inkscape:connector-curvature="0" /></clipPath><clipPath
       clipPathUnits="userSpaceOnUse"
       id="clipPath3505"><path
         d="m 522.995,467.415 0,-45.081 52.778,0 0,37.748 c 0,0 0,7.333 -7.33,7.333 l 0,0 -45.448,0 z"
         id="path3507"
         inkscape:connector-curvature="0" /></clipPath><clipPath
       clipPathUnits="userSpaceOnUse"
       id="clipPath3519"><path
         d="m 43.047,467.415 c 0,0 -7.333,0 -7.333,-7.333 l 0,0 0,-37.748 210.947,0 0,45.081 -203.614,0 z"
         id="path3521"
         inkscape:connector-curvature="0" /></clipPath><clipPath
       clipPathUnits="userSpaceOnUse"
       id="clipPath3533"><path
         d="m 246.468,467.415 0,-45.081 52.825,0 0,37.748 c 0,0 0,7.333 -7.333,7.333 l 0,0 -45.492,0 z"
         id="path3535"
         inkscape:connector-curvature="0" /></clipPath><clipPath
       clipPathUnits="userSpaceOnUse"
       id="clipPath3547"><path
         d="m 491.296,171.948 84.479,0 0,150.522 -84.479,0 0,-150.522 z"
         id="path3549"
         inkscape:connector-curvature="0" /></clipPath><clipPath
       clipPathUnits="userSpaceOnUse"
       id="clipPath3569"><path
         d="m 309.808,318.062 c 0.861,-0.718 1.463,-1.554 3.174,-2.926 l 0,0 c 1.336,-1.068 1.671,-1.585 2.924,-3.675 l 0,0 c 1.429,-2.378 2.339,-3.256 3.007,-3.591 l 0,0 c 0.669,-0.334 0.251,-1.337 1.17,-2.424 l 0,0 c 0.421,-0.498 0.686,-1.467 0.686,-1.467 l 0,0 c 0.68,-0.794 -0.68,-2.265 -0.68,-2.265 l 0,0 c -3.288,-0.908 0.113,-2.834 0.113,-2.834 l 0,0 c -0.68,-0.342 -1.474,-1.813 -1.474,-1.813 l 0,0 c -0.793,-0.566 -3.06,-3.173 -3.06,-3.173 l 0,0 -2.494,1.246 -0.226,1.019 1.247,5.894 -8.048,2.268 1.36,7.026 -8.388,3.173 0.377,3.262 c -23.072,-3.102 -42.659,-17.211 -53.299,-36.868 l 0,0 -0.012,-0.282 8.501,-3.853 -0.906,-7.03 8.501,-3.739 -0.227,-3.629 3.728,-2.296 c 0,0 1.838,0 4.177,1.004 l 0,0 c 2.339,1.003 1.504,-3.512 1.838,-6.183 l 0,0 c 0.334,-2.675 3.676,-10.693 5.012,-11.864 l 0,0 c 0,0 -0.334,-5.346 -3.508,-7.516 l 0,0 c -3.175,-2.174 -4.511,-3.678 -10.025,-2.341 l 0,0 c -3.962,0.961 -14.475,3.906 -24.48,0.778 l 0,0 c 5.229,-28.531 27.399,-51.135 55.696,-57.015 l 0,0 c 0.726,0.195 1.459,0.396 2.199,0.601 l 0,0 c 0,0 -3.006,6.35 1.17,5.681 l 0,0 c 4.129,-0.66 12.015,-6.057 19.458,-7.311 l 0,0 c 32.908,3.761 59.023,29.864 62.804,62.765 l 0,0 c -0.019,0.117 -0.04,0.233 -0.059,0.349 l 0,0 c -3.175,18.214 -7.355,35.234 -15.705,40.6 l 0,0 c -1.17,0.752 -10.61,9.522 -10.61,9.522 l 0,0 c 0,3.261 -3.759,7.604 -3.759,7.604 l 0,0 c 0,1.338 -1.838,4.678 -1.838,4.678 l 0,0 c 0.251,0.836 0.668,2.257 0.668,2.257 l 0,0 c 0.276,0.138 0.852,0.953 1.344,1.771 l 0,0 c -3.927,2.76 -8.149,5.137 -12.601,7.071 l 0,0 c -1.756,-0.318 -5.214,-0.713 -6.119,-0.991 l 0,0 c -1.086,-0.334 -2.84,0.418 -2.84,0.418 l 0,0 c -0.084,0.752 -1.671,2.006 -1.671,2.006 l 0,0 c -0.503,0.702 -1.883,1.8 -3.23,2.962 l 0,0 c -4.622,0.96 -9.405,1.472 -14.307,1.491 l 0,0 c 0.156,-0.142 0.296,-0.264 0.412,-0.36"
         id="path3571"
         inkscape:connector-curvature="0" /></clipPath><clipPath
       clipPathUnits="userSpaceOnUse"
       id="clipPath3613"><path
         d="m 302.289,327 c 0.501,-3.09 2.756,-4.344 3.258,-4.845 l 0,0 c 0.501,-0.502 3.258,-3.257 4.26,-4.093 l 0,0 c 0.861,-0.718 1.464,-1.554 3.175,-2.926 l 0,0 c 1.336,-1.068 1.671,-1.585 2.924,-3.675 l 0,0 c 1.429,-2.378 2.339,-3.256 3.007,-3.591 l 0,0 c 0.669,-0.334 0.251,-1.337 1.17,-2.424 l 0,0 c 0.421,-0.498 0.686,-1.467 0.686,-1.467 l 0,0 c 0.68,-0.794 -0.68,-2.265 -0.68,-2.265 l 0,0 c -3.288,-0.908 0.113,-2.834 0.113,-2.834 l 0,0 c -0.68,-0.342 -1.474,-1.813 -1.474,-1.813 l 0,0 c -0.793,-0.566 -3.06,-3.173 -3.06,-3.173 l 0,0 -2.494,1.246 -0.226,1.019 1.247,5.894 -8.048,2.268 1.36,7.026 -8.388,3.173 0.68,5.894 -7.594,3.173 -23.69,-12.126 -3.401,4.986 -3.967,-2.151 -0.453,-1.702 3.06,-3.739 -21.196,-10.994 -1.474,-6.236 5.441,-3.059 -0.34,-7.934 8.501,-3.853 -0.906,-7.03 8.501,-3.739 -0.227,-3.629 3.728,-2.296 c 0,0 1.838,0 4.177,1.004 l 0,0 c 2,0.858 1.68,-2.32 1.754,-4.929 l 0,0 104.801,0 c -2.806,10.976 -6.537,19.863 -12.156,23.473 l 0,0 c -1.169,0.752 -10.609,9.522 -10.609,9.522 l 0,0 c 0,3.261 -3.759,7.604 -3.759,7.604 l 0,0 c 0,1.338 -1.838,4.678 -1.838,4.678 l 0,0 c 0.251,0.836 0.668,2.257 0.668,2.257 l 0,0 c 0.502,0.251 2.005,2.755 2.172,3.424 l 0,0 c 0.168,0.669 0.919,1.505 0.919,1.505 l 0,0 c 3.843,1.334 5.096,3.173 6.767,5.096 l 0,0 c 1.671,1.919 5.012,6.764 6.767,9.522 l 0,0 c 1.754,2.755 2.172,3.257 2.172,5.514 l 0,0 c 0,2.254 -3.76,2.337 -4.261,2.007 l 0,0 c -0.501,-0.335 -3.676,-2.007 -4.595,-2.508 l 0,0 c -0.918,-0.502 -4.929,-2.341 -8.27,-3.591 l 0,0 c -3.342,-1.254 -5.764,-5.18 -6.934,-6.852 l 0,0 c -1.169,-1.672 -4.093,-4.761 -5.179,-5.096 l 0,0 c -1.086,-0.334 -5.848,-0.836 -6.934,-1.17 l 0,0 c -1.086,-0.334 -2.84,0.418 -2.84,0.418 l 0,0 c -0.084,0.752 -1.671,2.006 -1.671,2.006 l 0,0 c -0.836,1.167 -4.094,3.424 -5.597,5.263 l 0,0 c -1.504,1.836 -7.519,6.179 -8.605,6.848 l 0,0 c -1.086,0.669 -3.926,2.424 -5.096,3.177 l 0,0 c -1.169,0.752 -3.425,2.253 -3.425,2.253 l 0,0 c -0.104,0.024 -0.202,0.035 -0.294,0.035 l 0,0 c -1.854,0 -1.627,-4.545 -1.627,-4.545"
         id="path3615"
         inkscape:connector-curvature="0" /></clipPath><clipPath
       clipPathUnits="userSpaceOnUse"
       id="clipPath3625"><path
         d="m 502.563,57.025 0,-29.245 88.73,0 6.205,29.245 -94.935,0 z"
         id="path3627"
         inkscape:connector-curvature="0" /></clipPath><clipPath
       clipPathUnits="userSpaceOnUse"
       id="clipPath3677"><path
         d="M 92.067,407.881 54.458,397.805 c 0,0 -1.867,-0.502 -1.367,-2.367 l 0,0 5.752,-21.47 c 0,0 0.501,-1.87 2.368,-1.368 l 0,0 37.609,10.077 c 0,0 1.867,0.502 1.367,2.368 l 0,0 -5.753,21.469 c 0,0 -0.388,1.452 -1.76,1.452 l 0,0 c -0.185,0 -0.386,-0.026 -0.607,-0.085"
         id="path3679"
         inkscape:connector-curvature="0" /></clipPath><clipPath
       clipPathUnits="userSpaceOnUse"
       id="clipPath3695"><path
         d="m 272.046,407.881 -37.608,-10.076 c 0,0 -1.868,-0.502 -1.368,-2.367 l 0,0 5.753,-21.47 c 0,0 0.501,-1.87 2.368,-1.368 l 0,0 37.609,10.077 c 0,0 1.867,0.502 1.367,2.368 l 0,0 -5.753,21.469 c 0,0 -0.388,1.452 -1.762,1.452 l 0,0 c -0.183,0 -0.385,-0.026 -0.606,-0.085"
         id="path3697"
         inkscape:connector-curvature="0" /></clipPath></defs><sodipodi:namedview
     pagecolor="#ffffff"
     bordercolor="#666666"
     borderopacity="1"
     objecttolerance="10"
     gridtolerance="10"
     guidetolerance="10"
     inkscape:pageopacity="0"
     inkscape:pageshadow="2"
     inkscape:window-width="1680"
     inkscape:window-height="1000"
     id="namedview2987"
     showgrid="false"
     fit-margin-top="0"
     fit-margin-left="0"
     fit-margin-right="0"
     fit-margin-bottom="0"
     inkscape:zoom="4.8134549"
     inkscape:cx="92.268049"
     inkscape:cy="22.625865"
     inkscape:window-x="-8"
     inkscape:window-y="-8"
     inkscape:window-maximized="1"
     inkscape:current-layer="g2993" /><g
     id="g2993"
     inkscape:groupmode="layer"
     inkscape:label="2410"
     transform="matrix(1.25,0,0,-1.25,332.76792,-43.827186)"><g
       id="g3621"
       transform="matrix(1.039782,0,0,1.039782,-786.94209,-95.99541)"><g
         id="g3623"
         clip-path="url(#clipPath3625)"><g
           id="g3629"
           transform="translate(632.052,32.973007)"><path
             d="m 0,0 -0.313,0.048 c 0,0 -0.508,-0.933 -1.857,-0.933 -0.519,0 -1.055,0.232 -1.494,0.644 l -0.004,2.319 c -0.003,2.777 -1.862,3.687 -3.353,4.413 -1.439,0.7 -2.563,1.248 -2.567,3.075 l -0.009,0 c -0.002,1.199 -0.511,2.144 -0.612,2.322 l -0.437,0.92 c -0.209,0.58 -0.318,1.194 -0.319,1.817 0,0.608 0.201,1.354 0.585,2.167 l 0.008,0.017 c 0.52,1.2 1.408,2.228 1.766,2.229 0.312,0 0.513,-0.288 0.867,-0.899 0.404,-0.686 0.955,-1.634 2.162,-1.633 1.452,0.002 2.426,1.881 2.424,3.634 -0.002,1.024 -0.339,1.952 -0.949,2.612 -0.721,0.793 -1.831,1.182 -3.194,1.18 -2.988,-0.004 -4.633,-1.591 -5.257,-2.371 -0.572,0.227 -1.655,0.559 -3.129,0.557 -1.466,-0.003 -2.553,-0.329 -3.121,-0.557 -0.625,0.779 -2.274,2.375 -5.263,2.371 -1.362,-0.002 -2.471,-0.418 -3.198,-1.213 -0.6,-0.662 -0.936,-1.591 -0.934,-2.614 l 0.002,-0.061 c -0.219,0.089 -0.459,0.14 -0.727,0.14 -0.814,-0.001 -1.747,-1.39 -2.114,-1.988 -0.367,-0.593 -1.213,-2.136 -1.211,-3.601 0.004,-2.604 1.222,-3.985 2.117,-4.993 0.506,-0.584 0.914,-1.04 0.915,-1.528 0,-0.285 -0.691,-0.672 -1.302,-1.019 -1.294,-0.723 -3.055,-1.722 -3.052,-3.884 l 0,-2.295 c 0.002,-1.057 -0.863,-1.928 -1.925,-1.929 -0.824,-0.001 -1.279,0.658 -1.296,0.682 l -0.191,0.299 -0.348,-0.057 c -0.744,-0.118 -2.14,-0.712 -2.138,-2.111 0.002,-1.676 2.195,-2.837 4.16,-2.834 1.468,0.002 2.516,0.385 3.007,0.613 0.327,-0.186 0.904,-0.424 1.594,-0.423 l 24.347,0 c 0.69,0.001 1.25,0.263 1.585,0.449 0.474,-0.24 1.444,-0.594 3.034,-0.592 2.234,0.004 4.053,1.232 4.052,2.742 C 2.308,-0.727 0.79,-0.102 0,0"
             style="fill:#ffffff;fill-opacity:1;fill-rule:nonzero;stroke:none"
             id="path3631"
             inkscape:connector-curvature="0" /></g><g
           id="g3633"
           transform="translate(632.052,32.973007)"><path
             d="m 0,0 -0.313,0.048 c 0,0 -0.508,-0.933 -1.857,-0.933 -0.519,0 -1.055,0.232 -1.494,0.644 l -0.004,2.319 c -0.003,2.777 -1.862,3.687 -3.353,4.413 -1.439,0.7 -2.563,1.248 -2.567,3.075 l -0.009,0 c -0.002,1.199 -0.511,2.144 -0.612,2.322 l -0.437,0.92 c -0.209,0.58 -0.318,1.194 -0.319,1.817 0,0.608 0.201,1.354 0.585,2.167 l 0.008,0.017 c 0.52,1.2 1.408,2.228 1.766,2.229 0.312,0 0.513,-0.288 0.867,-0.899 0.404,-0.686 0.955,-1.634 2.162,-1.633 1.452,0.002 2.426,1.881 2.424,3.634 -0.002,1.024 -0.339,1.952 -0.949,2.612 -0.721,0.793 -1.831,1.182 -3.194,1.18 -2.988,-0.004 -4.633,-1.591 -5.257,-2.371 -0.572,0.227 -1.655,0.559 -3.129,0.557 -1.466,-0.003 -2.553,-0.329 -3.121,-0.557 -0.625,0.779 -2.274,2.375 -5.263,2.371 -1.362,-0.002 -2.471,-0.418 -3.198,-1.213 -0.6,-0.662 -0.936,-1.591 -0.934,-2.614 l 0.002,-0.061 c -0.219,0.089 -0.459,0.14 -0.727,0.14 -0.814,-0.001 -1.747,-1.39 -2.114,-1.988 -0.367,-0.593 -1.213,-2.136 -1.211,-3.601 0.004,-2.604 1.222,-3.985 2.117,-4.993 0.506,-0.584 0.914,-1.04 0.915,-1.528 0,-0.285 -0.691,-0.672 -1.302,-1.019 -1.294,-0.723 -3.055,-1.722 -3.052,-3.884 l 0,-2.295 c 0.002,-1.057 -0.863,-1.928 -1.925,-1.929 -0.824,-0.001 -1.279,0.658 -1.296,0.682 l -0.191,0.299 -0.348,-0.057 c -0.744,-0.118 -2.14,-0.712 -2.138,-2.111 0.002,-1.676 2.195,-2.837 4.16,-2.834 1.468,0.002 2.516,0.385 3.007,0.613 0.327,-0.186 0.904,-0.424 1.594,-0.423 l 24.347,0 c 0.69,0.001 1.25,0.263 1.585,0.449 0.474,-0.24 1.444,-0.594 3.034,-0.592 2.234,0.004 4.053,1.232 4.052,2.742 C 2.308,-0.727 0.79,-0.102 0,0 z"
             style="fill:none;stroke:#ffffff;stroke-width:0.23899999;stroke-linecap:butt;stroke-linejoin:miter;stroke-miterlimit:10;stroke-opacity:1;stroke-dasharray:none"
             id="path3635"
             inkscape:connector-curvature="0" /></g><g
           id="g3637"
           transform="translate(608.09,45.089996)"><path
             d="m 0,0 c 0,-0.185 -0.073,-0.36 -0.204,-0.491 -0.131,-0.131 -0.305,-0.203 -0.491,-0.203 l -0.001,0 c -0.381,0 -0.686,0.312 -0.686,0.695 l 10e-4,0.272 -0.011,0.054 c 0.399,0.132 0.696,0.51 0.696,0.958 l 0.001,0 c 0,0 -0.434,0.208 -1.008,0.208 -0.59,0 -1.019,-0.208 -1.019,-0.208 0,-0.448 0.296,-0.826 0.704,-0.958 l -0.01,-0.054 10e-4,-0.272 c 0,-0.383 -0.312,-0.695 -0.695,-0.695 l -10e-4,0 c -0.185,0 -0.36,0.072 -0.491,0.203 C -3.345,-0.36 -3.416,-0.185 -3.416,0 L -4.05,0 c 0,-0.357 0.139,-0.693 0.389,-0.945 0.247,-0.247 0.58,-0.386 0.937,-0.387 l 0.003,0 c 0.407,0.001 0.772,0.185 1.017,0.468 l 10e-4,0 c 0.244,-0.283 0.602,-0.467 1.007,-0.468 l 0.002,0 c 0.357,0.001 0.692,0.14 0.944,0.387 C 0.503,-0.693 0.642,-0.357 0.642,0 L 0,0 m 0.355,3.172 c -0.43,-0.001 -0.779,-0.349 -0.778,-0.774 0,-0.43 0.35,-0.778 0.78,-0.777 0.429,0.001 0.77,0.35 0.77,0.779 C 1.126,2.825 0.784,3.173 0.355,3.172 M -3.003,2.4 C -3.004,2.824 -3.353,3.172 -3.773,3.172 -4.202,3.171 -4.55,2.822 -4.55,2.398 -4.549,1.968 -4.2,1.62 -3.771,1.621 c 0.42,0 0.768,0.349 0.768,0.779 M 1.264,0.733 C 1.292,0.579 1.427,0.471 1.579,0.471 L 1.638,0.477 3.323,0.797 3.288,0.683 2.9,-0.146 1.641,0.094 C 1.468,0.126 1.299,0.017 1.266,-0.157 1.233,-0.331 1.345,-0.5 1.519,-0.533 L 2.618,-0.746 C 2.446,-1.169 2.252,-1.82 2.253,-2.563 c 10e-4,-0.626 0.249,-1.1 0.51,-1.609 0.325,-0.624 0.656,-1.275 0.657,-2.412 0,-0.562 -0.374,-1.844 -0.71,-2.984 -0.791,-2.662 -1.106,-3.864 -0.296,-4.247 0.915,-0.435 0.358,-2.037 0.352,-2.053 l -2.225,0 c 0.134,0.559 0.315,1.852 -0.66,2.595 l -0.076,0.069 0.87,3.495 c 0.062,0.246 -0.089,0.495 -0.335,0.555 -0.245,0.062 -0.495,-0.089 -0.556,-0.335 l -0.572,-2.301 -0.58,2.3 c -0.059,0.246 -0.309,0.395 -0.554,0.332 -0.246,-0.062 -0.395,-0.312 -0.333,-0.556 l 0.727,-2.841 0,-10e-4 c 0.022,-0.097 0.233,-0.97 0.853,-1.446 0.708,-0.53 0.266,-1.866 0.266,-1.866 l -2.25,0 c 0.078,0.482 0.182,1.587 -0.335,2.297 -0.181,0.247 -0.419,0.421 -0.697,0.519 l -0.894,3.557 c -0.062,0.246 -0.311,0.395 -0.558,0.334 -0.245,-0.062 -0.394,-0.311 -0.333,-0.557 l 0.799,-3.164 c -0.666,0.14 -0.849,0.356 -0.893,0.432 l -0.026,0.2 0.038,0.095 c 0.09,0.231 -0.031,0.496 -0.265,0.585 -0.231,0.09 -0.494,-0.029 -0.584,-0.267 l 0,-0.002 c -0.058,-0.124 -0.226,-0.56 0.037,-1.042 0.306,-0.565 1.025,-0.893 2.214,-1.003 0.192,-0.018 0.33,-0.089 0.428,-0.226 0.321,-0.437 0.21,-1.419 0.142,-1.758 l -3.227,0 c -0.691,0 -1.16,0.366 -1.162,0.368 l -0.296,0.227 -0.319,-0.198 c -0.01,-0.006 -1.028,-0.619 -2.743,-0.622 -1.547,-0.003 -3.067,0.867 -3.068,1.744 -10e-4,0.556 0.573,0.83 0.933,0.948 0.338,-0.352 0.987,-0.866 1.952,-0.865 1.665,0.003 3.026,1.367 3.024,3.031 l 0,2.296 c -0.002,1.518 1.26,2.235 2.489,2.929 0.956,0.537 1.866,1.051 1.864,1.975 -10e-4,0.898 -0.584,1.558 -1.202,2.251 -0.273,0.309 -0.552,0.632 -0.808,0.992 l 1.242,0.25 c 0.174,0.034 0.287,0.204 0.252,0.377 -0.035,0.174 -0.204,0.282 -0.378,0.251 L -6.517,-0.21 c -0.162,0.293 -0.306,0.612 -0.417,0.976 l 1.913,-0.3 0.051,-0.003 c 0.154,0 0.291,0.113 0.316,0.271 0.028,0.176 -0.092,0.34 -0.268,0.367 l -2.169,0.335 c -0.054,0.323 -0.086,0.671 -0.086,1.05 -0.003,1.817 1.741,4.243 2.274,4.489 0.483,-0.065 1.279,-1.291 1.712,-2.393 l 0.187,-0.473 0.013,0.011 10e-4,-0.005 0.477,0.147 c 0.468,0.144 0.982,0.145 1.443,0.003 l 0.484,-0.15 0.187,0.474 C 0.04,5.691 0.84,6.917 1.312,6.982 1.849,6.729 3.594,4.314 3.596,2.501 3.597,2.159 3.563,1.817 3.5,1.48 L 1.518,1.108 C 1.344,1.075 1.232,0.907 1.264,0.733"
             style="fill:#27adea;fill-opacity:1;fill-rule:nonzero;stroke:none"
             id="path3639"
             inkscape:connector-curvature="0" /></g><g
           id="g3641"
           transform="translate(608.09,45.089996)"><path
             d="m 0,0 c 0,-0.185 -0.073,-0.36 -0.204,-0.491 -0.131,-0.131 -0.305,-0.203 -0.491,-0.203 l -0.001,0 c -0.381,0 -0.686,0.312 -0.686,0.695 l 10e-4,0.272 -0.011,0.054 c 0.399,0.132 0.696,0.51 0.696,0.958 l 0.001,0 c 0,0 -0.434,0.208 -1.008,0.208 -0.59,0 -1.019,-0.208 -1.019,-0.208 0,-0.448 0.296,-0.826 0.704,-0.958 l -0.01,-0.054 10e-4,-0.272 c 0,-0.383 -0.312,-0.695 -0.695,-0.695 l -10e-4,0 c -0.185,0 -0.36,0.072 -0.491,0.203 C -3.345,-0.36 -3.416,-0.185 -3.416,0 L -4.05,0 c 0,-0.357 0.139,-0.693 0.389,-0.945 0.247,-0.247 0.58,-0.386 0.937,-0.387 l 0.003,0 c 0.407,0.001 0.772,0.185 1.017,0.468 l 10e-4,0 c 0.244,-0.283 0.602,-0.467 1.007,-0.468 l 0.002,0 c 0.357,0.001 0.692,0.14 0.944,0.387 C 0.503,-0.693 0.642,-0.357 0.642,0 L 0,0"
             style="fill:none;stroke:#27adea;stroke-width:0.479;stroke-linecap:butt;stroke-linejoin:miter;stroke-miterlimit:10;stroke-opacity:1;stroke-dasharray:none"
             id="path3643"
             inkscape:connector-curvature="0" /></g><g
           id="g3645"
           transform="translate(608.44501,48.261993)"><path
             d="m 0,0 c -0.43,-0.001 -0.778,-0.349 -0.778,-0.774 0.001,-0.43 0.35,-0.778 0.78,-0.777 0.43,10e-4 0.771,0.35 0.77,0.779 C 0.772,-0.347 0.43,0.001 0,0 z"
             style="fill:none;stroke:#27adea;stroke-width:0.479;stroke-linecap:butt;stroke-linejoin:miter;stroke-miterlimit:10;stroke-opacity:1;stroke-dasharray:none"
             id="path3647"
             inkscape:connector-curvature="0" /></g><g
           id="g3649"
           transform="translate(605.08701,47.490006)"><path
             d="m 0,0 c -0.001,0.425 -0.349,0.773 -0.769,0.772 -0.43,0 -0.778,-0.35 -0.777,-0.774 0,-0.429 0.35,-0.777 0.778,-0.777 C -0.347,-0.778 0,-0.429 0,0 z"
             style="fill:none;stroke:#27adea;stroke-width:0.479;stroke-linecap:butt;stroke-linejoin:miter;stroke-miterlimit:10;stroke-opacity:1;stroke-dasharray:none"
             id="path3651"
             inkscape:connector-curvature="0" /></g><g
           id="g3653"
           transform="translate(609.355,45.824005)"><path
             d="m 0,0 c 0.028,-0.154 0.162,-0.262 0.314,-0.262 l 0.06,0.006 1.685,0.32 L 2.024,-0.05 1.636,-0.879 0.377,-0.639 C 0.204,-0.607 0.034,-0.716 0.002,-0.89 -0.032,-1.064 0.081,-1.233 0.255,-1.266 L 1.353,-1.479 C 1.182,-1.902 0.987,-2.553 0.989,-3.296 c 0,-0.626 0.249,-1.1 0.509,-1.609 0.326,-0.624 0.657,-1.275 0.658,-2.412 0,-0.562 -0.374,-1.844 -0.71,-2.984 -0.791,-2.662 -1.106,-3.864 -0.296,-4.247 0.915,-0.435 0.358,-2.037 0.351,-2.053 l -2.224,0 c 0.134,0.559 0.315,1.852 -0.66,2.595 l -0.076,0.069 0.87,3.495 c 0.061,0.245 -0.089,0.495 -0.335,0.555 -0.245,0.062 -0.495,-0.089 -0.556,-0.335 l -0.572,-2.302 -0.58,2.301 c -0.059,0.246 -0.309,0.395 -0.554,0.332 -0.246,-0.062 -0.395,-0.312 -0.333,-0.556 l 0.727,-2.841 0,-10e-4 c 0.022,-0.097 0.233,-0.97 0.852,-1.446 0.709,-0.531 0.267,-1.866 0.267,-1.866 l -2.25,0 c 0.078,0.482 0.182,1.587 -0.335,2.297 -0.181,0.247 -0.419,0.421 -0.697,0.519 l -0.894,3.557 c -0.063,0.246 -0.311,0.395 -0.558,0.333 -0.245,-0.061 -0.394,-0.31 -0.333,-0.556 l 0.798,-3.164 c -0.665,0.14 -0.848,0.356 -0.892,0.431 l -0.026,0.201 0.038,0.095 c 0.09,0.231 -0.031,0.496 -0.265,0.585 -0.231,0.09 -0.494,-0.029 -0.584,-0.267 l 0,-0.002 c -0.059,-0.124 -0.226,-0.56 0.037,-1.042 0.306,-0.565 1.025,-0.893 2.214,-1.003 0.192,-0.018 0.33,-0.089 0.428,-0.227 0.32,-0.436 0.209,-1.418 0.142,-1.757 l -3.227,0 c -0.691,0 -1.16,0.365 -1.162,0.368 l -0.297,0.227 -0.319,-0.198 c -0.009,-0.006 -1.028,-0.62 -2.742,-0.622 -1.548,-0.003 -3.067,0.867 -3.068,1.744 -0.001,0.556 0.573,0.83 0.933,0.948 0.338,-0.352 0.987,-0.867 1.952,-0.865 1.665,0.003 3.026,1.367 3.024,3.031 l 0,2.295 c -0.002,1.519 1.26,2.236 2.489,2.93 0.956,0.537 1.865,1.051 1.864,1.975 -0.001,0.898 -0.584,1.558 -1.202,2.251 -0.273,0.309 -0.552,0.632 -0.808,0.992 l 1.241,0.249 c 0.175,0.035 0.287,0.204 0.253,0.378 -0.035,0.174 -0.204,0.282 -0.378,0.251 l -1.484,-0.296 c -0.162,0.293 -0.306,0.612 -0.417,0.976 l 1.913,-0.3 0.051,-0.003 c 0.154,0 0.291,0.113 0.316,0.271 0.027,0.175 -0.093,0.34 -0.268,0.367 l -2.169,0.335 c -0.054,0.322 -0.086,0.671 -0.086,1.05 -0.003,1.817 1.741,4.243 2.274,4.489 0.483,-0.065 1.279,-1.291 1.712,-2.393 l 0.187,-0.473 0.013,0.011 0.001,-0.005 0.476,0.147 c 0.469,0.144 0.982,0.145 1.444,0.002 L -1.85,3.382 -1.663,3.856 C -1.224,4.958 -0.424,6.184 0.048,6.249 0.584,5.996 2.33,3.581 2.332,1.768 2.333,1.426 2.299,1.083 2.236,0.747 L 0.254,0.375 C 0.08,0.342 -0.033,0.174 0,0 z"
             style="fill:none;stroke:#27adea;stroke-width:0.479;stroke-linecap:butt;stroke-linejoin:miter;stroke-miterlimit:10;stroke-opacity:1;stroke-dasharray:none"
             id="path3655"
             inkscape:connector-curvature="0" /></g><g
           id="g3657"
           transform="translate(608.09,45.089996)"><path
             d="m 0,0 c 0,-0.185 -0.073,-0.36 -0.204,-0.491 -0.131,-0.131 -0.305,-0.203 -0.491,-0.203 l -0.001,0 c -0.381,0 -0.686,0.312 -0.686,0.695 l 10e-4,0.272 -0.011,0.054 c 0.399,0.132 0.696,0.51 0.696,0.958 l 0.001,0 c 0,0 -0.434,0.208 -1.008,0.208 -0.59,0 -1.019,-0.208 -1.019,-0.208 0,-0.448 0.296,-0.826 0.704,-0.958 l -0.01,-0.054 10e-4,-0.272 c 0,-0.383 -0.312,-0.695 -0.695,-0.695 l -10e-4,0 c -0.185,0 -0.36,0.072 -0.491,0.203 C -3.345,-0.36 -3.416,-0.185 -3.416,0 L -4.05,0 c 0,-0.357 0.139,-0.693 0.389,-0.945 0.247,-0.247 0.58,-0.386 0.937,-0.387 l 0.003,0 c 0.407,0.001 0.772,0.185 1.017,0.468 l 10e-4,0 c 0.244,-0.283 0.602,-0.467 1.007,-0.468 l 0.002,0 c 0.357,0.001 0.692,0.14 0.944,0.387 C 0.503,-0.693 0.642,-0.357 0.642,0 L 0,0 m 0.355,3.172 c -0.43,-0.001 -0.779,-0.349 -0.778,-0.774 0,-0.43 0.35,-0.778 0.78,-0.777 0.429,0.001 0.77,0.35 0.77,0.779 C 1.126,2.825 0.784,3.173 0.355,3.172 M -3.003,2.4 C -3.004,2.824 -3.353,3.172 -3.773,3.172 -4.202,3.171 -4.55,2.822 -4.55,2.398 -4.549,1.968 -4.2,1.62 -3.771,1.621 c 0.42,0 0.768,0.349 0.768,0.779 M 9.584,2.397 c -10e-4,0.424 0.348,0.774 0.774,0.775 0.424,0 0.772,-0.348 0.772,-0.773 C 11.131,1.969 10.784,1.62 10.361,1.62 9.934,1.619 9.585,1.967 9.584,2.397 M 5.458,2.398 c 0,0.424 0.341,0.774 0.767,0.774 C 6.655,3.173 7.003,2.824 7.004,2.399 7.005,1.97 6.657,1.621 6.228,1.62 5.801,1.62 5.458,1.967 5.458,2.398 M 19.713,8.022 C 19.715,6.659 18.986,5.463 18.384,5.462 17.831,5.461 17.562,5.905 17.176,6.577 16.802,7.217 16.334,8.019 15.354,8.017 13.895,8.015 12.676,5.329 12.591,5.135 12.278,4.471 11.904,3.477 11.905,2.507 11.907,1.747 12.039,1.003 12.3,0.291 l 0.472,-1.011 c 0,0 0.485,-0.797 0.49,-1.81 -0.111,-1.14 -1.067,-2.044 -2.244,-2.046 -1.241,-0.001 -2.261,1.02 -2.263,2.266 l -0.002,0.794 c 0.869,0.208 1.513,0.979 1.512,1.907 0,0 -0.809,0.406 -1.973,0.406 -1.149,0 -1.964,-0.406 -1.964,-0.406 10e-4,-0.928 0.648,-1.701 1.518,-1.907 l 0,-0.798 C 7.847,-3.559 6.831,-4.575 5.589,-4.576 4.417,-4.578 3.451,-3.685 3.337,-2.545 3.342,-1.567 3.79,-0.789 3.794,-0.783 L 4.274,0.233 4.295,0.28 C 4.553,0.993 4.683,1.737 4.682,2.497 4.681,3.962 3.824,5.503 3.46,6.094 3.097,6.692 2.15,8.077 1.335,8.076 l -0.125,0 C 0.299,8.075 -0.166,7.353 -0.528,6.721 -0.695,6.476 -0.843,6.224 -0.97,5.988 -1.202,5.658 -1.438,5.463 -1.804,5.463 l 0,-0.001 -10e-4,0 0,0.001 c -0.601,-0.001 -1.337,1.164 -1.34,2.527 0,0.527 0.112,1.286 0.655,1.875 0.521,0.569 1.321,0.853 2.387,0.855 3.208,0.004 4.551,-2.147 4.606,-2.237 L 4.776,8.021 5.243,8.272 c 0.012,0.006 1.161,0.63 3.038,0.633 1.885,0.002 3.036,-0.618 3.046,-0.624 l 0.47,-0.261 0.272,0.463 c 0.012,0.022 1.364,2.232 4.598,2.237 1.06,10e-4 1.867,-0.257 2.39,-0.825 0.542,-0.587 0.655,-1.346 0.656,-1.873 m 6.559,-22.423 c 0.002,-1.51 -1.817,-2.738 -4.051,-2.742 -1.59,-0.002 -2.56,0.352 -3.034,0.592 -0.335,-0.186 -0.895,-0.448 -1.585,-0.449 l -24.347,0 c -0.69,-0.001 -1.268,0.237 -1.594,0.422 -0.491,-0.227 -1.539,-0.611 -3.007,-0.612 -1.966,-0.003 -4.158,1.158 -4.161,2.833 -0.002,1.399 1.395,1.994 2.138,2.112 l 0.349,0.057 0.191,-0.299 c 0.017,-0.024 0.471,-0.683 1.296,-0.682 1.061,0.001 1.926,0.872 1.925,1.929 l -10e-4,2.294 c -0.002,2.162 1.759,3.162 3.053,3.884 0.611,0.347 1.302,0.734 1.301,1.02 0,0.487 -0.408,0.944 -0.914,1.528 -0.895,1.008 -2.113,2.389 -2.117,4.993 -0.002,1.464 0.844,3.008 1.211,3.6 0.367,0.599 1.3,1.987 2.114,1.988 0.267,10e-4 0.508,-0.05 0.727,-0.14 l -0.002,0.061 c -0.002,1.024 0.334,1.953 0.933,2.615 0.728,0.795 1.837,1.211 3.199,1.213 2.989,0.004 4.638,-1.592 5.263,-2.371 0.568,0.228 1.655,0.554 3.121,0.556 1.473,0.002 2.557,-0.33 3.129,-0.556 0.623,0.78 2.269,2.367 5.257,2.371 1.362,0.002 2.473,-0.388 3.194,-1.18 C 20.469,9.975 20.807,9.047 20.809,8.024 20.811,6.271 19.837,4.392 18.385,4.389 17.178,4.388 16.627,5.336 16.223,6.023 15.869,6.634 15.668,6.922 15.356,6.921 14.998,6.921 14.11,5.893 13.59,4.693 L 13.582,4.676 C 13.198,3.863 12.996,3.117 12.997,2.509 12.998,1.886 13.106,1.271 13.316,0.692 l 0.437,-0.92 c 0.101,-0.178 0.61,-1.124 0.612,-2.323 l 0.009,0 c 0.004,-1.826 1.128,-2.374 2.567,-3.074 1.491,-0.726 3.349,-1.636 3.353,-4.413 l 0.003,-2.32 c 0.44,-0.411 0.976,-0.643 1.495,-0.643 1.349,0 1.856,0.933 1.856,0.933 l 0.314,-0.048 c 0.79,-0.103 2.308,-0.728 2.31,-2.285 m -4.052,-1.65 c -1.89,-0.003 -2.708,0.582 -2.71,0.583 l -0.343,0.263 -0.339,-0.271 c -0.004,-0.004 -0.512,-0.391 -1.229,-0.392 l -3.961,0 c -0.008,0.01 -0.778,1.009 -0.421,1.73 0.505,1.03 1.484,1.242 2.787,1.244 0.595,10e-4 0.862,0.27 0.981,0.496 0.339,0.639 -0.227,1.566 -0.409,1.834 -0.144,0.21 -0.428,0.263 -0.637,0.122 -0.21,-0.143 -0.266,-0.429 -0.124,-0.638 0.214,-0.314 0.384,-0.738 0.361,-0.885 -0.024,-0.008 -0.075,-0.021 -0.173,-0.021 -0.322,-10e-4 -0.767,-0.003 -1.24,-0.084 l -0.268,1.066 c -0.06,0.248 -0.31,0.396 -0.556,0.335 -0.246,-0.063 -0.395,-0.311 -0.334,-0.558 l 0.276,-1.088 c -0.576,-0.247 -1.118,-0.674 -1.478,-1.419 -0.383,-0.772 -0.111,-1.598 0.164,-2.134 l -3.569,0 c -0.135,0.836 -0.176,2.044 0.369,2.263 0.181,0.074 0.369,0.116 0.549,0.157 0.372,0.084 0.79,0.18 1.018,0.582 0.204,0.363 0.179,0.85 -0.085,1.65 l -0.432,1.737 c -0.06,0.245 -0.306,0.396 -0.552,0.333 C 9.62,-9.207 9.47,-9.457 9.532,-9.702 l 0.441,-1.75 0.005,-0.014 0.005,-0.02 c 0.248,-0.74 0.171,-0.911 0.161,-0.929 -0.026,-0.047 -0.289,-0.106 -0.43,-0.137 -0.205,-0.047 -0.441,-0.099 -0.69,-0.201 -0.325,-0.131 -0.554,-0.358 -0.712,-0.636 -0.156,0.278 -0.38,0.504 -0.704,0.634 -0.251,0.1 -0.485,0.152 -0.693,0.199 -0.139,0.031 -0.402,0.09 -0.428,0.136 -0.011,0.017 -0.09,0.189 0.158,0.929 l 0.005,0.025 0.005,0.009 0.436,1.751 C 7.151,-9.46 7.002,-9.21 6.755,-9.15 6.51,-9.088 6.261,-9.239 6.2,-9.485 l -0.429,-1.738 c -0.254,-0.801 -0.279,-1.288 -0.076,-1.651 0.223,-0.4 0.647,-0.496 1.022,-0.579 0.181,-0.04 0.369,-0.081 0.549,-0.154 0.544,-0.218 0.513,-1.424 0.381,-2.261 l -3.76,0 c 0.235,0.911 0.262,2.306 -0.86,2.962 -0.025,0.499 0.417,2.006 0.715,3.031 0.391,1.319 0.761,2.566 0.76,3.287 -10e-4,0.523 -0.061,0.961 -0.155,1.348 0.383,-0.163 0.804,-0.252 1.244,-0.252 0.301,0.001 0.596,0.048 0.878,0.13 0.492,-0.454 1.143,-0.721 1.82,-0.72 0.689,0.002 1.34,0.26 1.831,0.72 0.283,-0.086 0.582,-0.123 0.898,-0.122 1.057,0.002 1.981,0.52 2.56,1.309 0.555,-1.301 1.767,-1.893 2.88,-2.435 1.467,-0.719 2.743,-1.33 2.746,-3.43 l 0.004,-2.76 0.145,-0.158 c 0.663,-0.729 1.554,-1.146 2.44,-1.144 1.141,10e-4 1.902,0.518 2.269,0.846 0.39,-0.112 1.107,-0.417 1.108,-1.147 10e-4,-0.856 -1.4,-1.646 -2.95,-1.648 M 7.405,-4.918 C 7.673,-5.08 7.978,-5.172 8.293,-5.174 8.62,-5.175 8.936,-5.083 9.208,-4.918 8.845,-4.66 8.541,-4.334 8.313,-3.951 8.083,-4.336 7.775,-4.663 7.405,-4.918 M 1.264,0.733 C 1.292,0.579 1.427,0.471 1.579,0.471 L 1.638,0.477 3.323,0.797 3.288,0.683 2.9,-0.146 1.641,0.094 C 1.468,0.126 1.299,0.017 1.266,-0.157 1.233,-0.331 1.345,-0.5 1.519,-0.533 L 2.618,-0.746 C 2.446,-1.169 2.252,-1.82 2.253,-2.563 c 10e-4,-0.626 0.249,-1.1 0.51,-1.609 0.325,-0.624 0.656,-1.275 0.657,-2.412 0,-0.562 -0.374,-1.844 -0.71,-2.984 -0.791,-2.662 -1.106,-3.864 -0.296,-4.247 0.915,-0.435 0.358,-2.037 0.352,-2.053 l -2.225,0 c 0.134,0.559 0.315,1.852 -0.66,2.595 l -0.076,0.069 0.87,3.495 c 0.062,0.246 -0.089,0.495 -0.335,0.555 -0.245,0.062 -0.495,-0.089 -0.556,-0.335 l -0.572,-2.301 -0.58,2.3 c -0.059,0.246 -0.309,0.395 -0.554,0.332 -0.246,-0.062 -0.395,-0.312 -0.333,-0.556 l 0.727,-2.841 0,-10e-4 c 0.022,-0.097 0.233,-0.97 0.853,-1.446 0.708,-0.53 0.266,-1.866 0.266,-1.866 l -2.25,0 c 0.078,0.482 0.182,1.587 -0.335,2.297 -0.181,0.247 -0.419,0.421 -0.697,0.519 l -0.894,3.557 c -0.062,0.246 -0.311,0.395 -0.558,0.334 -0.245,-0.062 -0.394,-0.311 -0.333,-0.557 l 0.799,-3.164 c -0.666,0.14 -0.849,0.356 -0.893,0.432 l -0.026,0.2 0.038,0.095 c 0.09,0.231 -0.031,0.496 -0.265,0.585 -0.231,0.09 -0.494,-0.029 -0.584,-0.267 l 0,-0.002 c -0.058,-0.124 -0.226,-0.56 0.037,-1.042 0.306,-0.565 1.025,-0.893 2.214,-1.003 0.192,-0.018 0.33,-0.089 0.428,-0.226 0.321,-0.437 0.21,-1.419 0.142,-1.758 l -3.227,0 c -0.691,0 -1.16,0.366 -1.162,0.368 l -0.296,0.227 -0.319,-0.198 c -0.01,-0.006 -1.028,-0.619 -2.743,-0.622 -1.547,-0.003 -3.067,0.867 -3.068,1.744 -10e-4,0.556 0.573,0.83 0.933,0.948 0.338,-0.352 0.987,-0.866 1.952,-0.865 1.665,0.003 3.026,1.367 3.024,3.031 l 0,2.296 c -0.002,1.518 1.26,2.235 2.489,2.929 0.956,0.537 1.866,1.051 1.864,1.975 -10e-4,0.898 -0.584,1.558 -1.202,2.251 -0.273,0.309 -0.552,0.632 -0.808,0.992 l 1.242,0.25 c 0.174,0.034 0.287,0.204 0.252,0.377 -0.035,0.174 -0.204,0.282 -0.378,0.251 L -6.517,-0.21 c -0.162,0.293 -0.306,0.612 -0.417,0.976 l 1.913,-0.3 0.051,-0.003 c 0.154,0 0.291,0.113 0.316,0.271 0.028,0.176 -0.092,0.34 -0.268,0.367 l -2.169,0.335 c -0.054,0.323 -0.086,0.671 -0.086,1.05 -0.003,1.817 1.741,4.243 2.274,4.489 0.483,-0.065 1.279,-1.291 1.712,-2.393 l 0.187,-0.473 0.013,0.011 10e-4,-0.005 0.477,0.147 c 0.468,0.144 0.982,0.145 1.443,0.003 l 0.484,-0.15 0.187,0.474 C 0.04,5.691 0.84,6.917 1.312,6.982 1.849,6.729 3.594,4.314 3.596,2.501 3.597,2.159 3.563,1.817 3.5,1.48 L 1.518,1.108 C 1.344,1.075 1.232,0.907 1.264,0.733"
             style="fill:#231f20;fill-opacity:1;fill-rule:evenodd;stroke:none"
             id="path3659"
             inkscape:connector-curvature="0" /></g><g
           id="g3661"
           transform="translate(587.351,43.350006)"><path
             d="m 0,0 0,0.068 c 0,2.715 -1.954,5.086 -4.841,5.086 -2.993,0 -4.776,-2.301 -4.776,-5.016 l 0,-0.07 c 0,-2.715 1.956,-5.086 4.843,-5.086 C -1.783,-5.018 0,-2.716 0,0 m -14.771,0 0,0.068 c 0,5.287 4.256,9.585 9.997,9.585 5.703,0 9.93,-4.228 9.93,-9.515 l 0,-0.07 c 0,-5.292 -4.263,-9.585 -9.997,-9.585 -5.708,0 -9.93,4.225 -9.93,9.517 m -18.251,0 0,0.068 c 0,5.257 4.021,9.585 9.654,9.585 1.777,0 3.217,-0.31 4.426,-0.867 2.233,-1.036 3.618,-3.239 1.699,-4.961 -0.839,-0.754 -1.646,-0.812 -1.646,-0.812 -0.696,1.016 -1.565,2.315 -4.513,2.315 -2.614,0 -4.466,-2.475 -4.466,-5.19 l 0,-0.07 c 0,-2.818 1.818,-5.086 4.673,-5.086 1.749,0 3.87,0.749 5.229,2.306 l 2.571,-3.261 c -1.783,-1.967 -4.367,-3.544 -8.043,-3.544 -5.528,0 -9.584,4.259 -9.584,9.517 m -10.968,-2.334 0,7.177 -2.2,0 0,4.465 2.2,0 0,4.202 5.221,0 0,-4.202 3.92,0 0,-4.465 -3.92,0 0,-7.002 c 0,-1.203 0.853,-2.547 2.328,-2.547 0.962,0 1.215,-0.027 1.93,0.088 l 0,-4.452 c -0.918,-0.232 -1.352,-0.204 -2.307,-0.204 -3.499,0 -7.172,1.906 -7.172,6.94 m -8.467,5.002 c -0.203,1.588 -1.229,2.998 -3.135,2.998 -1.694,0 -3.46,-1.323 -3.716,-2.998 l 6.851,0 z M -64.69,0 l 0,0.068 c 0,5.257 3.746,9.585 9.1,9.585 6.152,0 8.047,-4.845 8.047,-7.823 0,-2.688 -3.356,-2.862 -4.426,-2.862 l -7.532,0 c 0.512,-2.37 2.163,-4.109 4.498,-4.109 1.75,0 3.881,0.919 5.318,2.26 l 2.227,-3.586 c -1.966,-1.964 -4.539,-3.05 -7.613,-3.05 -5.529,0 -9.619,3.88 -9.619,9.517 m -7.027,-0.106 0,0.069 c 0,3.055 -1.615,5.252 -4.102,5.252 -2.488,0 -4.078,-2.197 -4.078,-5.252 l 0,-0.069 c 0,-3.055 1.853,-5.085 4.078,-5.085 2.225,0 4.102,1.995 4.102,5.085 m 5.078,0.244 c 0,-4.683 -2.518,-9.628 -8.241,-9.628 -2.784,0 -3.688,0.783 -4.902,1.861 l 0,-4.51 c 0,-3.724 -5.006,-3.289 -5.006,-3.289 l 0,24.736 4.614,0 0,-2.056 c 1.271,1.715 3.275,2.4 5.985,2.401 4.77,0 7.55,-4.831 7.55,-9.515"
             style="fill:#ea2229;fill-opacity:1;fill-rule:nonzero;stroke:none"
             id="path3663"
             inkscape:connector-curvature="0" /></g></g></g><g
       id="g3062"
       transform="matrix(2.6142574,0,0,2.6142574,-124.3477,-61.926392)"><path
         d="m 0,0 c -0.174,0.181 -0.415,0.313 -0.648,0.24 -0.41,-0.106 -0.838,-0.387 -1.277,-0.165 -0.857,0.279 -0.181,1.629 -0.762,2.159 -0.547,0.524 -1.292,0.147 -1.76,0.736 -0.357,0.319 -0.397,0.798 -0.328,1.264 -0.029,0.485 -0.572,0.768 -0.663,1.233 -0.143,0.854 0.206,1.66 0.838,2.224 0.339,-0.282 0.513,-0.679 0.659,-1.058 l 1.095,0.017 c 0.38,0.593 0.73,1.332 0.45,2.071 C -2.514,8.953 -2.66,9.188 -2.892,9.36 -3.465,9.828 -4.377,9.818 -5.057,9.574 -5.483,9.411 -5.892,9.109 -6.233,8.798 -6.922,9.022 -7.825,8.982 -8.504,8.759 c -0.534,0.555 -1.166,0.885 -1.912,0.912 -0.72,0.029 -1.428,-0.26 -1.738,-0.929 -0.097,-0.157 -0.02,-0.42 -0.242,-0.478 -1.042,-0.521 -1.452,-1.646 -1.392,-2.775 l -0.345,0 c -0.085,0 -0.15,-0.065 -0.15,-0.148 0,-0.084 0.065,-0.151 0.15,-0.151 l 0.392,0 c 0.009,-0.033 0.02,-0.07 0.031,-0.122 0.022,-0.071 0.036,-0.119 0.047,-0.16 l -0.47,0 c -0.085,0 -0.15,-0.066 -0.15,-0.151 0,-0.082 0.065,-0.151 0.15,-0.151 l 0.612,0 c 0.142,-0.152 0.276,-0.348 0.454,-0.519 0.185,-0.215 0.438,-0.31 0.612,-0.514 0.047,-0.116 0.04,-0.284 -0.077,-0.369 -0.467,-0.225 -0.989,-0.312 -1.38,-0.739 -0.383,-0.333 -0.493,-0.766 -0.525,-1.23 l 0,-1.199 c 0,0 -0.018,-0.093 -0.072,-0.146 -0.052,-0.053 -0.149,-0.055 -0.149,-0.055 l -1.579,0 0,0.502 c 0,0.409 -0.332,0.742 -0.74,0.742 -0.411,0 -0.741,-0.333 -0.741,-0.742 l 0,-0.59 0,-0.007 c 0,-0.06 0.031,-0.605 0.428,-1.004 0.369,-0.369 0.782,-0.39 0.914,-0.386 l 1.688,0 c 0.169,0 0.326,0.062 0.451,0.16 0.063,-0.087 0.23,-0.185 0.353,-0.198 l 1.827,0.005 c 0.261,-0.005 0.505,0.05 0.69,0.225 0.096,-0.148 0.242,-0.225 0.396,-0.284 0.195,-0.055 0.398,-0.008 0.566,0.088 0.093,0.03 0.144,0.158 0.23,0.184 0.147,-0.202 0.349,-0.272 0.576,-0.28 0.26,-0.02 0.454,0.154 0.62,0.332 0.116,-0.138 0.261,-0.206 0.41,-0.27 0.397,-0.14 0.792,0.005 1.067,0.289 0.105,-0.138 0.251,-0.207 0.386,-0.273 0.379,-0.146 0.826,-0.016 1.098,0.273 0.096,-0.108 0.224,-0.207 0.378,-0.216 l 2.437,0 c 0.224,-0.01 0.409,0.119 0.565,0.272 0.435,-0.3 0.96,-0.436 1.52,-0.366 0.547,0.085 1.159,0.423 1.312,1.011 C 0.253,-0.43 0.176,-0.179 0,0"
         style="fill:#231f20;fill-opacity:1;fill-rule:nonzero;stroke:none"
         id="path3064"
         inkscape:connector-curvature="0" /></g><g
       id="g3070"
       transform="matrix(2.6142574,0,0,2.6142574,-150.64609,-46.450263)"
       style="fill:#009ddc;fill-opacity:1"><path
         d="m 0,0 c 0,-0.169 -0.137,-0.305 -0.304,-0.305 -0.17,0 -0.306,0.136 -0.306,0.305 0,0.169 0.136,0.307 0.306,0.307 C -0.137,0.307 0,0.169 0,0 m -1.631,0 c 0,-0.169 -0.133,-0.305 -0.304,-0.305 -0.167,0 -0.305,0.136 -0.305,0.305 0,0.169 0.138,0.307 0.305,0.307 0.171,0 0.304,-0.138 0.304,-0.307 m 0.659,-1.567 c 0,-0.081 -0.065,-0.15 -0.148,-0.15 -0.082,0 -0.149,0.069 -0.149,0.15 l 0.297,0 z m 0.752,0.628 c 0,-0.284 -0.227,-0.514 -0.51,-0.514 -0.158,0 -0.297,0.073 -0.39,0.183 -0.096,-0.11 -0.232,-0.183 -0.387,-0.183 -0.284,0 -0.514,0.23 -0.514,0.514 l 0.251,0 c 0,-0.145 0.118,-0.263 0.263,-0.263 0.144,0 0.261,0.118 0.261,0.263 l 0,0.136 c -0.138,0.051 -0.235,0.181 -0.235,0.337 l 0.721,0 c 0,-0.156 -0.096,-0.286 -0.234,-0.337 l 0,-0.136 c 0,-0.145 0.118,-0.263 0.264,-0.263 0.143,0 0.26,0.118 0.26,0.263 l 0.25,0 z M -3.041,-5.02 c -0.156,0 -0.279,0.124 -0.279,0.281 0,0.152 0.123,0.277 0.279,0.277 0,0 0.231,-0.043 0.364,-0.081 0.551,-0.103 0.368,-0.902 0.446,-1.368 0.194,-0.04 0.428,0.046 0.576,-0.118 l -0.005,1.282 c 0,0.172 0.139,0.309 0.31,0.309 0.167,0 0.307,-0.137 0.307,-0.309 l 0.004,-2.038 c 0,-0.172 0.139,-0.31 0.309,-0.31 0.169,0 0.306,0.138 0.306,0.31 l 0,2.038 c 0,0.172 0.138,0.309 0.309,0.309 0.169,0 0.306,-0.137 0.306,-0.309 L 0.188,-6.785 c 0,-0.172 0.142,-0.31 0.31,-0.31 0.17,0 0.308,0.138 0.308,0.31 l 0,1.851 0.01,0.132 c -0.009,0.4 0.246,0.581 0.323,0.942 0.057,0.279 -0.007,0.694 -0.148,0.784 -0.661,0.519 -0.844,0.835 -0.718,1.418 0.017,0.129 0.116,0.23 0.147,0.345 l -0.162,0 c -0.083,0 -0.152,0.068 -0.152,0.15 0,0.085 0.069,0.151 0.152,0.151 l 0.418,0 c 0.047,0.074 0.135,0.192 0.144,0.283 l -0.562,0 c -0.083,0 -0.152,0.066 -0.152,0.15 0,0.083 0.069,0.148 0.152,0.148 l 0.652,0 C 1.011,0.354 0.689,1.142 0.078,1.692 -0.417,1.393 -0.587,0.857 -0.677,0.646 -0.976,0.73 -1.337,0.722 -1.629,0.605 -1.736,1.003 -2.018,1.383 -2.385,1.636 -3.01,1.128 -3.242,0.355 -3.157,-0.431 l 0.611,0 c 0.081,0 0.15,-0.065 0.15,-0.148 0,-0.084 -0.069,-0.15 -0.15,-0.15 l -0.54,0 c 0.009,-0.092 0.065,-0.219 0.109,-0.283 l 0.431,0 c 0.081,0 0.15,-0.066 0.15,-0.151 0,-0.082 -0.15,-0.15 -0.15,-0.15 l -0.188,0 c -0.002,-0.002 -0.007,-0.002 -0.012,-0.002 0.116,-0.265 0.447,-0.379 0.671,-0.575 0.253,-0.193 0.329,-0.535 0.241,-0.845 C -2.018,-3.232 -2.569,-3.289 -2.968,-3.48 -4.26,-3.951 -3.65,-5.475 -3.793,-6.554 l -0.01,-0.204 c 0,-0.17 0.139,-0.309 0.31,-0.309 l 1.615,-0.002 c 0.173,0 0.31,0.141 0.31,0.309 0,0.171 -0.137,0.308 -0.31,0.308 l -0.627,0.006 c -0.168,0 -0.307,0.137 -0.307,0.309 0,0 0.041,0.843 -0.062,1.011 -0.049,0.105 -0.167,0.106 -0.167,0.106 m -3.565,-1.425 c 0.064,-0.127 0.288,-0.121 0.288,-0.121 l 1.689,0 c 0.144,0 0.258,-0.119 0.258,-0.263 0,-0.142 -0.114,-0.259 -0.258,-0.259 l -1.695,0 c 0,0 -0.293,-0.025 -0.565,0.245 -0.275,0.277 -0.291,0.68 -0.291,0.68 l 0,0.58 c 0,0.144 0.119,0.258 0.263,0.258 0.142,0 0.258,-0.114 0.258,-0.258 l 0,-0.561 c 0,0 -0.005,-0.174 0.053,-0.301"
         style="fill:#009ddc;fill-opacity:1;fill-rule:nonzero;stroke:none"
         id="path3072"
         inkscape:connector-curvature="0" /></g><g
       id="g3074"
       transform="matrix(2.6142574,0,0,2.6142574,-132.07832,-63.767101)"><path
         d="m 0,0 c -0.01,-0.134 -0.096,-0.353 -0.301,-0.353 l -2.215,0 c -0.153,0 -0.284,0.125 -0.284,0.283 0,0.155 0.131,0.281 0.284,0.281 l 1,0.003 c 0.187,0.022 0.262,0.186 0.29,0.302 l 0.008,1.624 c 0,0.335 0.27,0.607 0.605,0.607 0.336,0 0.605,-0.272 0.605,-0.607 L 0,0 z m -5.773,-0.008 -0.006,1.681 c 0.146,0.556 0.652,1.13 0.329,1.753 0.076,0.006 0.204,0.044 0.301,0.094 0.243,-0.291 0.592,-0.486 1,-0.419 0.253,0.06 0.495,0.196 0.651,0.438 0.437,-0.147 0.902,-0.01 1.223,0.292 C -2.131,3.509 -1.829,3.209 -1.518,3.023 -1.575,2.897 -1.68,2.818 -1.748,2.673 -1.994,2.102 -1.748,0.976 -1.941,0.801 -2.136,0.621 -2.8,0.717 -2.8,0.717 l 0,1.216 c 0,0.162 -0.132,0.297 -0.298,0.297 -0.164,0 -0.298,-0.135 -0.298,-0.297 l 0.008,-1.926 c 0,-0.251 -0.201,-0.452 -0.447,-0.452 -0.25,0 -0.45,0.201 -0.45,0.452 l 0,1.926 c 0,0.162 -0.134,0.297 -0.3,0.297 -0.162,0 -0.296,-0.135 -0.296,-0.297 l 0.005,-1.926 c 0,-0.251 -0.201,-0.452 -0.449,-0.452 -0.25,0 -0.451,0.201 -0.451,0.452 m 2.56,6.617 c 0,-0.169 -0.135,-0.305 -0.305,-0.305 -0.165,0 -0.303,0.136 -0.303,0.305 0,0.169 0.138,0.307 0.303,0.307 0.17,0 0.305,-0.138 0.305,-0.307 m -1.629,0 c 0,-0.169 -0.135,-0.305 -0.304,-0.305 -0.166,0 -0.305,0.136 -0.305,0.305 0,0.169 0.139,0.307 0.305,0.307 0.169,0 0.304,-0.138 0.304,-0.307 m 4.677,2.813 C -0.353,9.648 -0.584,9.765 -0.838,9.834 -1.739,9.978 -2.526,9.541 -3.023,8.801 -3.8,9.223 -4.965,9.23 -5.724,8.754 -6.196,9.522 -7.024,9.949 -7.936,9.772 -8.265,9.697 -8.606,9.453 -8.711,9.114 -8.866,8.665 -8.678,8.213 -8.418,7.862 L -8.063,7.86 c 0.185,0.439 0.536,0.953 1.003,1.128 1.019,-0.584 1.454,-1.663 1.416,-2.787 0.038,-0.615 -0.671,-0.934 -0.591,-1.555 0.047,-0.185 0.172,-0.369 0.338,-0.457 0.311,-0.175 0.709,-0.118 0.984,0.108 0.261,0.212 0.353,0.659 0.315,1.018 l -0.297,0 c -0.167,0 -0.303,0.135 -0.303,0.302 0,0.17 0.136,0.305 0.303,0.305 l 1.12,0 c 0.169,0 0.305,-0.135 0.305,-0.305 0,-0.167 -0.136,-0.302 -0.305,-0.302 l -0.255,0 0,-0.006 c -0.051,-0.371 0,-0.72 0.268,-0.974 0.224,-0.214 0.574,-0.272 0.874,-0.174 0.185,0.067 0.348,0.222 0.429,0.406 0.059,0.194 0.069,0.427 -0.021,0.613 -0.291,0.37 -0.551,0.738 -0.573,1.225 0,1.067 0.436,2.086 1.419,2.632 0.438,-0.236 0.784,-0.701 0.97,-1.128 l 0.397,0.007 0.236,0.459 C 0.111,8.707 0.055,9.152 -0.168,9.437 M -4.327,3.629 c 0.166,0 0.402,0.019 0.576,0.172 -0.355,-0.011 -0.58,0.242 -0.58,0.242 0,0 -0.232,-0.253 -0.582,-0.242 0.173,-0.153 0.41,-0.172 0.574,-0.172 l 0.012,0 z M 0.565,0.427 0.554,-0.161 C 0.922,-0.503 1.603,-0.546 2.064,-0.347 2.285,-0.252 2.726,-0.06 2.606,0.238 2.449,0.621 2.108,0.114 1.7,0.095 1.364,0.08 0.91,0.124 0.565,0.427"
         style="fill:#ee2a24;fill-opacity:1;fill-rule:nonzero;stroke:none"
         id="path3076"
         inkscape:connector-curvature="0" /></g></g></svg>