<?xml version="1.0" encoding="utf-8"?>
<!-- Generator: Adobe Illustrator 23.0.2, SVG Export Plug-In . SVG Version: 6.00 Build 0)  -->
<svg version="1.1" id="Layer_1" xmlns="http://www.w3.org/2000/svg" xmlns:xlink="http://www.w3.org/1999/xlink" x="0px" y="0px"
	 viewBox="0 0 405.36 299.71" enable-background="new 0 0 405.36 299.71" xml:space="preserve">
<rect fill="#F0F0F0" width="405.36" height="299.71"/>
<rect y="14.38" fill="#878787" width="305.45" height="45.45"/>
<g>
	<path fill="#FFFFFF" d="M20.91,32.53l0.76,5.44l0.04,0.6h0.02l0.32-2.7l0.55-3.34h0.83l0.87,5.99h0.02l0.29-2.58l0.49-3.41h1.03
		l-1.41,8.03h-0.85l-0.61-3.74l-0.25-2.02l-0.01-0.2H23l-0.23,2.16l-0.64,3.8h-0.87l-1.38-8.03H20.91z"/>
	<path fill="#FFFFFF" d="M30.86,36.54c0,1.45-0.02,4.12-2.09,4.12c-2.07,0-2.09-2.67-2.09-4.12c0-1.45,0.02-4.12,2.09-4.12
		C30.84,32.42,30.86,35.1,30.86,36.54z M27.82,36.54c0,1.7,0.12,3.12,0.96,3.12c0.84,0,0.96-1.42,0.96-3.12s-0.12-3.12-0.96-3.12
		C27.94,33.42,27.82,34.84,27.82,36.54z"/>
	<path fill="#FFFFFF" d="M32.06,32.53h1.28c0.78,0,1.99,0.04,1.99,2.06c0,0.76-0.22,1.91-1.11,2.07l1.48,3.91h-1.11l-1.45-3.93
		h-0.02v3.93h-1.06V32.53z M34.2,34.82c0-0.77-0.1-1.41-0.91-1.38h-0.17v2.65C33.92,36.14,34.2,35.63,34.2,34.82z"/>
	<path fill="#FFFFFF" d="M37.66,32.53v7.1h1.79v0.93h-2.85v-8.03H37.66z"/>
	<path fill="#FFFFFF" d="M41.41,32.53c1.26,0,2.68,0.08,2.68,4.15c0,3.71-1.24,3.88-3.14,3.88h-0.73v-8.03H41.41z M41.28,33.43v6.22
		c1.76,0.05,1.68-1.61,1.68-2.97C42.96,35.45,43.08,33.33,41.28,33.43z"/>
	<path fill="#FFFFFF" d="M49.55,32.53l1.73,8.03H50.2l-0.3-1.57h-1.6l-0.3,1.57h-1.04l1.75-8.03H49.55z M49.53,37l-0.4-2.92h-0.02
		l-0.64,4.08h1.28L49.53,37z"/>
	<path fill="#FFFFFF" d="M55.61,41.18l-0.56-0.84c-0.3,0.25-0.65,0.33-1.08,0.33c-2.07,0-2.09-2.67-2.09-4.12
		c0-1.45,0.02-4.12,2.09-4.12c2.07,0,2.09,2.67,2.09,4.12c0,0.92-0.04,2.24-0.48,3.14l0.72,1L55.61,41.18z M53.01,36.54
		c0,1.7,0.12,3.12,0.96,3.12c0.19,0,0.33-0.05,0.44-0.17l-0.67-0.97l0.65-0.51l0.4,0.58h0.02c0.06-0.65,0.12-1.34,0.12-2.04
		c0-1.7-0.12-3.12-0.96-3.12C53.13,33.42,53.01,34.84,53.01,36.54z"/>
	<path fill="#FFFFFF" d="M58.36,32.53v5.89c0,1.03,0.31,1.25,0.75,1.25c0.73,0,0.8-0.47,0.81-1.13v-6.01h1.07v5.7
		c0,1.05,0.01,2.44-1.84,2.44c-1.69,0-1.84-1.15-1.84-2.6v-5.54H58.36z"/>
	<path fill="#FFFFFF" d="M64.34,32.53l1.73,8.03h-1.08l-0.3-1.57h-1.6l-0.3,1.57h-1.04l1.75-8.03H64.34z M64.32,37l-0.4-2.92H63.9
		l-0.64,4.08h1.28L64.32,37z"/>
	<path fill="#FFFFFF" d="M69.99,33.63c-0.21-0.11-0.44-0.2-0.68-0.2c-1.49,0-1.5,2.17-1.5,3.17c0,1.06,0.09,3.07,1.54,3.07
		c0.23,0,0.44-0.05,0.64-0.16v0.94c-0.27,0.17-0.54,0.22-0.85,0.22c-2.17,0-2.46-2.31-2.46-3.99c0-1.61,0.2-4.25,2.39-4.25
		c0.36,0,0.62,0.05,0.93,0.23V33.63z"/>
	<path fill="#FFFFFF" d="M71.98,32.53v5.89c0,1.03,0.31,1.25,0.75,1.25c0.73,0,0.8-0.47,0.81-1.13v-6.01h1.07v5.7
		c0,1.05,0.01,2.44-1.84,2.44c-1.69,0-1.84-1.15-1.84-2.6v-5.54H71.98z"/>
	<path fill="#FFFFFF" d="M77.06,32.53v7.1h1.79v0.93h-2.85v-8.03H77.06z"/>
	<path fill="#FFFFFF" d="M81.85,32.53v0.93h-1.2v7.1h-1.06v-7.1h-1.26v-0.93H81.85z"/>
	<path fill="#FFFFFF" d="M83.63,32.53v5.89c0,1.03,0.31,1.25,0.75,1.25c0.73,0,0.8-0.47,0.81-1.13v-6.01h1.07v5.7
		c0,1.05,0.01,2.44-1.84,2.44c-1.69,0-1.84-1.15-1.84-2.6v-5.54H83.63z"/>
	<path fill="#FFFFFF" d="M87.64,32.53h1.28c0.78,0,1.99,0.04,1.99,2.06c0,0.76-0.22,1.91-1.11,2.07l1.48,3.91h-1.11l-1.45-3.93
		h-0.02v3.93h-1.06V32.53z M89.78,34.82c0-0.77-0.1-1.41-0.91-1.38h-0.17v2.65C89.51,36.14,89.78,35.63,89.78,34.82z"/>
	<path fill="#FFFFFF" d="M95.04,32.53v0.93h-1.8v2.52h1.61v0.93h-1.61v2.73h1.8v0.93h-2.86v-8.03H95.04z"/>
	<path fill="#FFFFFF" d="M98.27,40.56v-8.03h1.28c0.92,0,2.09,0.08,2.09,2.15c0,1.63-0.64,2.39-2.3,2.32v3.56H98.27z M99.33,33.43
		v2.66c0.92,0.06,1.17-0.44,1.17-1.33c0-0.72-0.21-1.33-1.02-1.33H99.33z"/>
	<path fill="#FFFFFF" d="M102.51,32.53h1.28c0.78,0,1.99,0.04,1.99,2.06c0,0.76-0.22,1.91-1.11,2.07l1.48,3.91h-1.11l-1.45-3.93
		h-0.02v3.93h-1.06V32.53z M104.65,34.82c0-0.77-0.1-1.41-0.91-1.38h-0.17v2.65C104.37,36.14,104.65,35.63,104.65,34.82z"/>
	<path fill="#FFFFFF" d="M111.02,36.54c0,1.45-0.02,4.12-2.09,4.12c-2.07,0-2.09-2.67-2.09-4.12c0-1.45,0.02-4.12,2.09-4.12
		C111,32.42,111.02,35.1,111.02,36.54z M107.97,36.54c0,1.7,0.12,3.12,0.96,3.12c0.84,0,0.96-1.42,0.96-3.12s-0.12-3.12-0.96-3.12
		C108.09,33.42,107.97,34.84,107.97,36.54z"/>
	<path fill="#FFFFFF" d="M113.41,32.53c1.26,0,2.68,0.08,2.68,4.15c0,3.71-1.24,3.88-3.14,3.88h-0.73v-8.03H113.41z M113.28,33.43
		v6.22c1.76,0.05,1.68-1.61,1.68-2.97C114.97,35.45,115.08,33.33,113.28,33.43z"/>
	<path fill="#FFFFFF" d="M118.35,32.53v5.89c0,1.03,0.31,1.25,0.75,1.25c0.73,0,0.8-0.47,0.81-1.13v-6.01h1.07v5.7
		c0,1.05,0.01,2.44-1.84,2.44c-1.69,0-1.84-1.15-1.84-2.6v-5.54H118.35z"/>
	<path fill="#FFFFFF" d="M125.48,33.63c-0.21-0.11-0.44-0.2-0.68-0.2c-1.49,0-1.5,2.17-1.5,3.17c0,1.06,0.09,3.07,1.54,3.07
		c0.23,0,0.44-0.05,0.64-0.16v0.94c-0.27,0.17-0.54,0.22-0.85,0.22c-2.17,0-2.46-2.31-2.46-3.99c0-1.61,0.2-4.25,2.39-4.25
		c0.36,0,0.62,0.05,0.93,0.23V33.63z"/>
	<path fill="#FFFFFF" d="M129.24,32.53v0.93h-1.2v7.1h-1.06v-7.1h-1.26v-0.93H129.24z"/>
	<path fill="#FFFFFF" d="M131.01,40.56h-1.06v-8.03h1.06V40.56z"/>
	<path fill="#FFFFFF" d="M136.39,36.54c0,1.45-0.02,4.12-2.09,4.12c-2.07,0-2.09-2.67-2.09-4.12c0-1.45,0.02-4.12,2.09-4.12
		C136.37,32.42,136.39,35.1,136.39,36.54z M133.35,36.54c0,1.7,0.12,3.12,0.96,3.12c0.84,0,0.96-1.42,0.96-3.12
		s-0.12-3.12-0.96-3.12C133.46,33.42,133.35,34.84,133.35,36.54z"/>
	<path fill="#FFFFFF" d="M138.49,34.91l0.16,2.69v2.95h-1.06v-8.03h1.02l1.87,6.1l0.02-0.02l-0.26-3.22v-2.86h1.06v8.03h-0.99
		l-1.87-6.19l-0.02,0.02L138.49,34.91z"/>
	<path fill="#FFFFFF" d="M148.98,36.54c0,1.45-0.02,4.12-2.09,4.12c-2.07,0-2.09-2.67-2.09-4.12c0-1.45,0.02-4.12,2.09-4.12
		C148.96,32.42,148.98,35.1,148.98,36.54z M145.93,36.54c0,1.7,0.12,3.12,0.96,3.12c0.84,0,0.96-1.42,0.96-3.12
		s-0.12-3.12-0.96-3.12C146.05,33.42,145.93,34.84,145.93,36.54z"/>
	<path fill="#FFFFFF" d="M153.07,32.53v0.93h-1.82v2.52h1.64v0.93h-1.64v3.65h-1.06v-8.03H153.07z"/>
	<path fill="#FFFFFF" d="M159.11,32.53v0.93h-1.82v2.52h1.64v0.93h-1.64v3.65h-1.06v-8.03H159.11z"/>
	<path fill="#FFFFFF" d="M163.93,36.54c0,1.45-0.02,4.12-2.09,4.12c-2.07,0-2.09-2.67-2.09-4.12c0-1.45,0.02-4.12,2.09-4.12
		C163.91,32.42,163.93,35.1,163.93,36.54z M160.88,36.54c0,1.7,0.12,3.12,0.96,3.12c0.84,0,0.96-1.42,0.96-3.12
		s-0.12-3.12-0.96-3.12C161,33.42,160.88,34.84,160.88,36.54z"/>
	<path fill="#FFFFFF" d="M169.11,36.54c0,1.45-0.02,4.12-2.09,4.12c-2.07,0-2.09-2.67-2.09-4.12c0-1.45,0.02-4.12,2.09-4.12
		C169.08,32.42,169.11,35.1,169.11,36.54z M166.06,36.54c0,1.7,0.12,3.12,0.96,3.12c0.84,0,0.96-1.42,0.96-3.12
		s-0.12-3.12-0.96-3.12C166.18,33.42,166.06,34.84,166.06,36.54z"/>
	<path fill="#FFFFFF" d="M171.49,32.53c1.26,0,2.68,0.08,2.68,4.15c0,3.71-1.24,3.88-3.14,3.88h-0.73v-8.03H171.49z M171.36,33.43
		v6.22c1.76,0.05,1.68-1.61,1.68-2.97C173.04,35.45,173.16,33.33,171.36,33.43z"/>
	<path fill="#FFFFFF" d="M180.54,32.53v0.93h-1.82v2.52h1.64v0.93h-1.64v3.65h-1.06v-8.03H180.54z"/>
	<path fill="#FFFFFF" d="M182.46,40.56h-1.06v-8.03h1.06V40.56z"/>
	<path fill="#FFFFFF" d="M186.33,33.76c-0.28-0.2-0.54-0.34-0.91-0.34c-0.59,0-0.95,0.48-0.95,1.03c0,0.35,0.08,0.6,0.3,0.87
		l0.81,0.88c0.72,0.74,1.14,1.27,1.14,2.35c0,1.13-0.7,2.1-1.89,2.1c-0.42,0-0.84-0.12-1.17-0.38v-1.08
		c0.32,0.23,0.64,0.42,1.05,0.42c0.66,0,0.94-0.52,0.94-1.12c0-1.6-2.25-1.92-2.25-4.03c0-1.13,0.6-2.06,1.8-2.06
		c0.4,0,0.79,0.06,1.13,0.27L186.33,33.76z"/>
	<path fill="#FFFFFF" d="M188.8,32.53v3.13h1.61v-3.13h1.06v8.03h-1.06v-3.97h-1.61v3.97h-1.06v-8.03H188.8z"/>
	<path fill="#FFFFFF" d="M197.15,32.53l1.73,8.03h-1.08l-0.3-1.57h-1.6l-0.3,1.57h-1.04l1.75-8.03H197.15z M197.13,37l-0.4-2.92
		h-0.02l-0.64,4.08h1.28L197.13,37z"/>
	<path fill="#FFFFFF" d="M200.59,34.91l0.16,2.69v2.95h-1.06v-8.03h1.02l1.87,6.1l0.02-0.02l-0.26-3.22v-2.86h1.06v8.03h-0.99
		l-1.87-6.19l-0.02,0.02L200.59,34.91z"/>
	<path fill="#FFFFFF" d="M206.01,32.53c1.26,0,2.68,0.08,2.68,4.15c0,3.71-1.24,3.88-3.14,3.88h-0.73v-8.03H206.01z M205.88,33.43
		v6.22c1.76,0.05,1.68-1.61,1.68-2.97C207.57,35.45,207.68,33.33,205.88,33.43z"/>
	<path fill="#FFFFFF" d="M214.16,32.53l1.73,8.03h-1.08l-0.3-1.57h-1.6l-0.3,1.57h-1.04l1.75-8.03H214.16z M214.14,37l-0.4-2.92
		h-0.02l-0.64,4.08h1.28L214.14,37z"/>
	<path fill="#FFFFFF" d="M220.22,41.18l-0.56-0.84c-0.3,0.25-0.65,0.33-1.08,0.33c-2.07,0-2.09-2.67-2.09-4.12
		c0-1.45,0.02-4.12,2.09-4.12s2.09,2.67,2.09,4.12c0,0.92-0.04,2.24-0.48,3.14l0.72,1L220.22,41.18z M217.62,36.54
		c0,1.7,0.12,3.12,0.96,3.12c0.19,0,0.33-0.05,0.44-0.17l-0.67-0.97l0.65-0.51l0.41,0.58h0.02c0.06-0.65,0.12-1.34,0.12-2.04
		c0-1.7-0.12-3.12-0.96-3.12S217.62,34.84,217.62,36.54z"/>
	<path fill="#FFFFFF" d="M222.96,32.53v5.89c0,1.03,0.31,1.25,0.75,1.25c0.73,0,0.8-0.47,0.81-1.13v-6.01h1.07v5.7
		c0,1.05,0.01,2.44-1.84,2.44c-1.69,0-1.84-1.15-1.84-2.6v-5.54H222.96z"/>
	<path fill="#FFFFFF" d="M228.95,32.53l1.73,8.03h-1.08l-0.3-1.57h-1.6l-0.3,1.57h-1.04l1.75-8.03H228.95z M228.93,37l-0.4-2.92
		h-0.02l-0.64,4.08h1.28L228.93,37z"/>
	<path fill="#FFFFFF" d="M233.93,32.53v0.93h-1.2v7.1h-1.07v-7.1h-1.26v-0.93H233.93z"/>
	<path fill="#FFFFFF" d="M235.71,40.56h-1.06v-8.03h1.06V40.56z"/>
	<path fill="#FFFFFF" d="M240.23,33.63c-0.21-0.11-0.44-0.2-0.68-0.2c-1.49,0-1.5,2.17-1.5,3.17c0,1.06,0.09,3.07,1.54,3.07
		c0.23,0,0.44-0.05,0.64-0.16v0.94c-0.27,0.17-0.54,0.22-0.85,0.22c-2.17,0-2.46-2.31-2.46-3.99c0-1.61,0.2-4.25,2.39-4.25
		c0.36,0,0.62,0.05,0.93,0.23V33.63z"/>
	<path fill="#FFFFFF" d="M243.44,40.56v-8.03h1.28c0.92,0,2.09,0.08,2.09,2.15c0,1.63-0.64,2.39-2.3,2.32v3.56H243.44z
		 M244.51,33.43v2.66c0.92,0.06,1.17-0.44,1.17-1.33c0-0.72-0.21-1.33-1.02-1.33H244.51z"/>
	<path fill="#FFFFFF" d="M248.75,32.53v7.1h1.79v0.93h-2.85v-8.03H248.75z"/>
	<path fill="#FFFFFF" d="M253.29,32.53l1.72,8.03h-1.08l-0.3-1.57h-1.6l-0.3,1.57h-1.04l1.75-8.03H253.29z M253.27,37l-0.41-2.92
		h-0.02l-0.64,4.08h1.28L253.27,37z"/>
	<path fill="#FFFFFF" d="M256.73,34.91l0.16,2.69v2.95h-1.07v-8.03h1.02l1.87,6.1l0.02-0.02l-0.25-3.22v-2.86h1.07v8.03h-0.99
		l-1.87-6.19l-0.02,0.02L256.73,34.91z"/>
	<path fill="#FFFFFF" d="M263.79,32.53v0.93h-1.2v7.1h-1.06v-7.1h-1.26v-0.93H263.79z"/>
	<path fill="#FFFFFF" d="M266.98,33.76c-0.28-0.2-0.54-0.34-0.91-0.34c-0.59,0-0.95,0.48-0.95,1.03c0,0.35,0.08,0.6,0.3,0.87
		l0.81,0.88c0.72,0.74,1.14,1.27,1.14,2.35c0,1.13-0.7,2.1-1.88,2.1c-0.42,0-0.84-0.12-1.17-0.38v-1.08
		c0.32,0.23,0.64,0.42,1.05,0.42c0.66,0,0.94-0.52,0.94-1.12c0-1.6-2.25-1.92-2.25-4.03c0-1.13,0.6-2.06,1.8-2.06
		c0.4,0,0.79,0.06,1.13,0.27L266.98,33.76z"/>
	<path fill="#FFFFFF" d="M269.4,39.7l-1.03,2.82l-0.54-0.15l0.71-2.94L269.4,39.7z"/>
</g>
<g>
	<path fill="#FFFFFF" d="M22.56,43.18v8.03h-1.04v-7.1h-0.79v-0.93H22.56z"/>
	<path fill="#FFFFFF" d="M25.4,51.21l1.6-3.35l-0.02-0.02c-0.23,0.22-0.46,0.32-0.81,0.32c-1.25,0-1.38-1.37-1.38-2.33
		c0-1.25,0.1-2.74,1.71-2.74c1.62,0,1.74,1.47,1.74,2.73c0,1.76-0.46,2.89-1.2,4.44l-0.47,0.96H25.4z M27.15,45.59
		c0-0.46-0.01-1.55-0.65-1.55c-0.64,0-0.63,1.16-0.63,1.62c0,0.47-0.01,1.53,0.63,1.53C27.19,47.19,27.15,46.05,27.15,45.59z"/>
	<path fill="#FFFFFF" d="M29.88,51.21l1.6-3.35l-0.02-0.02c-0.23,0.22-0.46,0.32-0.81,0.32c-1.25,0-1.38-1.37-1.38-2.33
		c0-1.25,0.1-2.74,1.71-2.74c1.62,0,1.74,1.47,1.74,2.73c0,1.76-0.46,2.89-1.2,4.44l-0.47,0.96H29.88z M31.63,45.59
		c0-0.46-0.01-1.55-0.65-1.55c-0.64,0-0.63,1.16-0.63,1.62c0,0.47-0.01,1.53,0.63,1.53C31.67,47.19,31.63,46.05,31.63,45.59z"/>
	<path fill="#FFFFFF" d="M37.3,47.19c0,1.27,0.1,4.11-1.82,4.11c-1.92,0-1.82-2.84-1.82-4.11c0-1.27-0.1-4.11,1.82-4.11
		C37.39,43.08,37.3,45.93,37.3,47.19z M35.48,44.04c-0.73,0-0.79,1.48-0.78,3.15c-0.01,1.67,0.04,3.15,0.78,3.15
		s0.79-1.48,0.78-3.15C36.26,45.52,36.21,44.04,35.48,44.04z"/>
	<path fill="#FFFFFF" d="M43.09,48.06v0.79h-5.33v-0.79H43.09z"/>
	<path fill="#FFFFFF" d="M43.69,45.5c0-1.28,0.16-2.42,1.71-2.42c1.32,0,1.79,0.73,1.79,1.98c0,1.2-0.82,2.87-1.38,3.92l-0.68,1.3
		h1.99v0.93h-3.54l1.95-4.12c0.29-0.65,0.58-1.36,0.58-2.09c0-0.44-0.16-0.96-0.71-0.96c-0.72,0-0.62,1.2-0.62,1.53v0.21h-1.09V45.5
		z"/>
	<path fill="#FFFFFF" d="M51.68,47.19c0,1.27,0.1,4.11-1.82,4.11c-1.92,0-1.82-2.84-1.82-4.11c0-1.27-0.1-4.11,1.82-4.11
		C51.78,43.08,51.68,45.93,51.68,47.19z M49.86,44.04c-0.73,0-0.79,1.48-0.78,3.15c-0.01,1.67,0.04,3.15,0.78,3.15
		s0.79-1.48,0.78-3.15C50.65,45.52,50.6,44.04,49.86,44.04z"/>
	<path fill="#FFFFFF" d="M54.87,43.18v8.03h-1.04v-7.1h-0.79v-0.93H54.87z"/>
	<path fill="#FFFFFF" d="M59.87,43.18l-1.57,3.43l0.02,0.02c0.23-0.21,0.48-0.36,0.82-0.36c1.33,0,1.41,1.54,1.41,2.52
		c0,1.24-0.16,2.51-1.73,2.51c-1.58,0-1.74-1.48-1.74-2.72c0-2.18,0.71-3.5,1.63-5.41H59.87z M58.84,47.22
		c-0.16,0-0.66-0.05-0.66,1.57c0,0.46,0.02,1.56,0.66,1.56c0.61,0,0.63-1.09,0.63-1.54C59.47,48.31,59.49,47.22,58.84,47.22z"/>
</g>
<path fill="none" stroke="#000000" stroke-width="0.197" stroke-miterlimit="10" d="M44.95,77.28h348.9 M44.95,98.33h348.9
	 M44.95,119.38h348.9 M44.95,140.43h348.9 M44.95,161.48h348.9 M44.95,182.53h348.9 M44.95,203.57h348.9 M44.95,225.26h348.9"/>
<path fill="#005C7E" d="M384.6,214.74h5.1v-31.89h-5.1V214.74z M371.84,213.46h5.1v-30.62h-5.1V213.46z M358.45,211.55h5.74v-28.7
	h-5.74V211.55z M345.69,210.91h5.1v-28.07h-5.1V210.91z M332.93,207.72h5.1v-24.88h-5.1V207.72z M320.18,204.53h5.1v-21.69h-5.1
	V204.53z M306.78,202.62h5.74v-19.77h-5.74V202.62z M294.02,201.34h5.1v-18.5h-5.1V201.34z M281.27,199.43h5.1v-16.58h-5.1V199.43z
	 M268.51,198.79h5.1v-15.95h-5.1V198.79z M255.12,198.15h5.74v-15.31h-5.74V198.15z M242.36,196.88h5.1v-14.03h-5.1V196.88z
	 M229.6,196.24h5.1v-13.39h-5.1V196.24z M216.85,194.96h5.1v-12.12h-5.1V194.96z M203.45,193.69h5.74v-10.84h-5.74V193.69z
	 M190.7,193.05h5.1v-10.2h-5.1V193.05z M177.94,192.41h5.1v-9.57h-5.1V192.41z M165.18,192.41h5.1v-9.57h-5.1V192.41z
	 M151.79,191.14h5.1v-8.29h-5.1V191.14z M139.03,189.86h5.1v-7.02h-5.1V189.86z M126.27,190.5h5.1v-7.65h-5.1V190.5z M113.52,189.86
	h5.1v-7.02h-5.1V189.86z M100.12,189.86h5.1v-7.02h-5.1V189.86z M87.36,189.86h5.1v-7.02h-5.1V189.86z M74.61,188.59h5.1v-5.74h-5.1
	V188.59z M61.85,187.31h5.1v-4.47h-5.1V187.31z M48.46,186.67h5.1v-3.83h-5.1V186.67z"/>
<path fill="#7AADBF" d="M384.6,132.46h5.1v50.39h-5.1V132.46z M371.84,135.65h5.1v47.2h-5.1V135.65z M358.45,136.92h5.74v45.92
	h-5.74V136.92z M345.69,138.83h5.1v44.01h-5.1V138.83z M332.93,142.02h5.1v40.82h-5.1V142.02z M320.18,145.21h5.1v37.63h-5.1V145.21
	z M306.78,147.13h5.74v35.72h-5.74V147.13z M294.02,149.68h5.1v33.17h-5.1V149.68z M281.27,150.95h5.1v31.89h-5.1V150.95z
	 M268.51,153.5h5.1v29.34h-5.1V153.5z M255.12,155.42h5.74v27.43h-5.74V155.42z M242.36,156.69h5.1v26.15h-5.1V156.69z
	 M229.6,158.61h5.1v24.24h-5.1V158.61z M216.85,160.52h5.1v22.32h-5.1V160.52z M203.45,161.16h5.74v21.69h-5.74V161.16z
	 M190.7,162.43h5.1v20.41h-5.1V162.43z M177.94,163.71h5.1v19.14h-5.1V163.71z M165.18,164.35h5.1v18.5h-5.1V164.35z M151.79,165.62
	h5.1v17.22h-5.1V165.62z M139.03,165.62h5.1v17.22h-5.1V165.62z M126.27,166.9h5.1v15.95h-5.1V166.9z M113.52,168.81h5.1v14.03h-5.1
	V168.81z M100.12,170.09h5.1v12.76h-5.1V170.09z M87.36,172h5.1v10.84h-5.1V172z M74.61,173.28h5.1v9.57h-5.1V173.28z M61.85,174.55
	h5.1v8.29h-5.1V174.55z M48.46,174.55h5.1v8.29h-5.1V174.55z"/>
<path fill="#B73834" d="M384.6,125.44h5.1v7.02h-5.1V125.44z M371.84,128.63h5.1v7.02h-5.1V128.63z M358.45,130.54h5.74v6.38h-5.74
	V130.54z M345.69,133.09h5.1v5.74h-5.1V133.09z M332.93,135.65h5.1v6.38h-5.1V135.65z M320.18,140.11h5.1v5.1h-5.1V140.11z
	 M306.78,142.02h5.74v5.1h-5.74V142.02z M294.02,144.57h5.1v5.1h-5.1V144.57z M281.27,146.49h5.1v4.46h-5.1V146.49z M268.51,149.68
	h5.1v3.83h-5.1V149.68z M255.12,151.59h5.74v3.83h-5.74V151.59z M242.36,153.5h5.1v3.19h-5.1V153.5z M229.6,154.78h5.1v3.83h-5.1
	V154.78z M216.85,157.33h5.1v3.19h-5.1V157.33z M203.45,157.97h5.74v3.19h-5.74V157.97z M190.7,159.24h5.1v3.19h-5.1V159.24z
	 M177.94,160.52h5.1v3.19h-5.1V160.52z M165.18,161.8h5.1v2.55h-5.1V161.8z M151.79,163.07h5.1v2.55h-5.1V163.07z M139.03,163.71
	h5.1v1.91h-5.1V163.71z M126.27,164.99h5.1v1.91h-5.1V164.99z M113.52,166.9h5.1v1.91h-5.1V166.9z M100.12,168.81h5.1v1.28h-5.1
	V168.81z M87.36,170.73h5.1V172h-5.1V170.73z M74.61,172h5.1v1.28h-5.1V172z M61.85,173.28h5.1v1.28h-5.1V173.28z M48.46,173.28h5.1
	v1.28h-5.1V173.28z"/>
<path fill="#0088A2" d="M384.6,107.58h5.1v17.86h-5.1V107.58z M371.84,111.41h5.1v17.22h-5.1V111.41z M358.45,113.32h5.74v17.22
	h-5.74V113.32z M345.69,116.51h5.1v16.58h-5.1V116.51z M332.93,120.34h5.1v15.31h-5.1V120.34z M320.18,124.8h5.1v15.31h-5.1V124.8z
	 M306.78,127.35h5.74v14.67h-5.74V127.35z M294.02,130.54h5.1v14.03h-5.1V130.54z M281.27,133.09h5.1v13.4h-5.1V133.09z
	 M268.51,135.65h5.1v14.03h-5.1V135.65z M255.12,138.2h5.74v13.4h-5.74V138.2z M242.36,140.75h5.1v12.76h-5.1V140.75z M229.6,142.66
	h5.1v12.12h-5.1V142.66z M216.85,145.21h5.1v12.12h-5.1V145.21z M203.45,146.49h5.74v11.48h-5.74V146.49z M190.7,148.4h5.1v10.84
	h-5.1V148.4z M177.94,150.32h5.1v10.21h-5.1V150.32z M165.18,152.23h5.1v9.57h-5.1V152.23z M151.79,154.14h5.1v8.93h-5.1V154.14z
	 M139.03,155.42h5.1v8.29h-5.1V155.42z M126.27,156.06h5.1v8.93h-5.1V156.06z M113.52,157.97h5.1v8.93h-5.1V157.97z M100.12,161.8
	h5.1v7.02h-5.1V161.8z M87.36,164.99h5.1v5.74h-5.1V164.99z M74.61,167.54h5.1V172h-5.1V167.54z M61.85,169.45h5.1v3.83h-5.1V169.45
	z M48.46,170.09h5.1v3.19h-5.1V170.09z"/>
<path fill="#04A64B" d="M384.6,102.48h5.1v5.1h-5.1V102.48z M371.84,106.3h5.1v5.1h-5.1V106.3z M358.45,108.86h5.74v4.46h-5.74
	V108.86z M345.69,112.68h5.1v3.83h-5.1V112.68z M332.93,115.87h5.1v4.46h-5.1V115.87z M320.18,120.98h5.1v3.83h-5.1V120.98z
	 M306.78,123.53h5.74v3.83h-5.74V123.53z M294.02,126.72h5.1v3.83h-5.1V126.72z M281.27,129.9h5.1v3.19h-5.1V129.9z M268.51,132.46
	h5.1v3.19h-5.1V132.46z M255.12,135.01h5.74v3.19h-5.74V135.01z M242.36,137.56h5.1v3.19h-5.1V137.56z M229.6,140.11h5.1v2.55h-5.1
	V140.11z M216.85,143.3h5.1v1.91h-5.1V143.3z M203.45,144.57h5.74v1.91h-5.74V144.57z M190.7,147.13h5.1v1.28h-5.1V147.13z
	 M177.94,149.04h5.1v1.28h-5.1V149.04z M165.18,150.95h5.1v1.28h-5.1V150.95z M151.79,152.87h5.1v1.28h-5.1V152.87z M139.03,154.14
	h5.1v1.28h-5.1V154.14z M126.27,154.78h5.1v1.28h-5.1V154.78z M113.52,157.33h5.1v0.64h-5.1V157.33z M100.12,161.16h5.1v0.64h-5.1
	V161.16z M87.36,164.35h5.1v0.64h-5.1V164.35z M74.61,166.9h5.1v0.64h-5.1V166.9z M61.85,168.18h5.1v1.28h-5.1V168.18z
	 M48.46,168.81h5.1v1.28h-5.1V168.81z"/>
<path fill="#878787" d="M384.6,99.29h5.1v3.19h-5.1V99.29z M371.84,103.75h5.1v2.55h-5.1V103.75z M358.45,105.67h5.74v3.19h-5.74
	V105.67z M345.69,109.49h5.1v3.19h-5.1V109.49z M332.93,113.32h5.1v2.55h-5.1V113.32z M320.18,118.42h5.1v2.55h-5.1V118.42z
	 M306.78,121.61h5.74v1.91h-5.74V121.61z M294.02,124.8h5.1v1.91h-5.1V124.8z M281.27,127.35h5.1v2.55h-5.1V127.35z M268.51,130.54
	h5.1v1.91h-5.1V130.54z M255.12,133.09h5.74v1.91h-5.74V133.09z M242.36,136.28h5.1v1.28h-5.1V136.28z M229.6,138.83h5.1v1.28h-5.1
	V138.83z M216.85,142.02h5.1v1.28h-5.1V142.02z M203.45,143.94h5.74v0.64h-5.74V143.94z M190.7,146.49h5.1v0.64h-5.1V146.49z
	 M177.94,148.4h5.1v0.64h-5.1V148.4z M165.18,150.32h5.1v0.64h-5.1V150.32z M151.79,152.23h5.1v0.64h-5.1V152.23z M139.03,153.5h5.1
	v0.64h-5.1V153.5z M126.27,154.14h5.1v0.64h-5.1V154.14z M113.52,156.69h5.1v0.64h-5.1V156.69z M100.12,160.52h5.1v0.64h-5.1V160.52
	z M87.36,163.71h5.1v0.64h-5.1V163.71z M74.61,166.26h5.1v0.64h-5.1V166.26z M61.85,167.54h5.1v0.64h-5.1V167.54z M48.46,168.18h5.1
	v0.64h-5.1V168.18z"/>
<path fill="#F19235" d="M384.6,98.01h5.1v1.28h-5.1V98.01z M371.84,102.48h5.1v1.28h-5.1V102.48z M358.45,105.03h5.74v0.64h-5.74
	V105.03z M345.69,108.86h5.1v0.64h-5.1V108.86z M332.93,112.68h5.1v0.64h-5.1V112.68z M320.18,117.79h5.1v0.64h-5.1V117.79z
	 M306.78,120.34h5.74v1.28h-5.74V120.34z M294.02,124.16h5.1v0.64h-5.1V124.16z M281.27,126.72h5.1v0.64h-5.1V126.72z M268.51,129.9
	h5.1v0.64h-5.1V129.9z M255.12,132.46h5.74v0.64h-5.74V132.46z M242.36,135.65h5.1v0.64h-5.1V135.65z M229.6,138.2h5.1v0.64h-5.1
	V138.2z M216.85,141.39h5.1v0.64h-5.1V141.39z M203.45,143.3h5.74v0.64h-5.74V143.3z M190.7,145.85h5.1v0.64h-5.1V145.85z
	 M177.94,147.76h5.1v0.64h-5.1V147.76z M165.18,149.68h5.1v0.64h-5.1V149.68z M151.79,152.23h5.1v0.64h-5.1V152.23z M139.03,153.5
	h5.1v0.64h-5.1V153.5z M126.27,154.14h5.1v0.64h-5.1V154.14z M113.52,156.69h5.1v0.64h-5.1V156.69z M100.12,160.52h5.1v0.64h-5.1
	V160.52z M87.36,163.07h5.1v0.64h-5.1V163.07z M74.61,165.62h5.1v0.64h-5.1V165.62z M61.85,167.54h5.1v0.64h-5.1V167.54z
	 M48.46,168.18h5.1v0.64h-5.1V168.18z"/>
<line fill="none" stroke="#000000" stroke-width="0.197" stroke-miterlimit="10" x1="44.95" y1="225.26" x2="393.85" y2="225.26"/>
<g>
	<path d="M35.72,224.67h0.27v0.41h-0.27v1.14h-0.54v-1.14h-1.12v-0.47l1.12-2.55h0.54V224.67z M35.18,222.9h-0.01l-0.67,1.77h0.68
		V222.9z"/>
	<path d="M38.25,224.14c0,0.66,0.05,2.13-0.94,2.13c-0.99,0-0.94-1.47-0.94-2.13S36.32,222,37.31,222
		C38.3,222,38.25,223.48,38.25,224.14z M37.31,222.5c-0.38,0-0.41,0.77-0.4,1.64c-0.01,0.87,0.02,1.63,0.4,1.63
		c0.38,0,0.41-0.77,0.4-1.63C37.72,223.27,37.69,222.5,37.31,222.5z"/>
</g>
<g>
	<path d="M34.16,202.21c0-0.66,0.08-1.25,0.89-1.25c0.69,0,0.93,0.38,0.93,1.03c0,0.62-0.43,1.49-0.72,2.03l-0.35,0.67h1.03v0.48
		H34.1l1.01-2.14c0.15-0.34,0.3-0.71,0.3-1.08c0-0.23-0.08-0.5-0.37-0.5c-0.38,0-0.32,0.62-0.32,0.8v0.11h-0.56V202.21z"/>
	<path d="M38.25,203.09c0,0.66,0.05,2.13-0.94,2.13c-0.99,0-0.94-1.47-0.94-2.13c0-0.66-0.05-2.13,0.94-2.13
		C38.3,200.95,38.25,202.43,38.25,203.09z M37.31,201.45c-0.38,0-0.41,0.77-0.4,1.64c-0.01,0.87,0.02,1.63,0.4,1.63
		c0.38,0,0.41-0.77,0.4-1.63C37.72,202.22,37.69,201.45,37.31,201.45z"/>
</g>
<g>
	<path d="M38.25,182.04c0,0.66,0.05,2.13-0.94,2.13c-0.99,0-0.94-1.47-0.94-2.13s-0.05-2.13,0.94-2.13
		C38.3,179.9,38.25,181.38,38.25,182.04z M37.31,180.4c-0.38,0-0.41,0.77-0.4,1.64c-0.01,0.87,0.02,1.63,0.4,1.63
		c0.38,0,0.41-0.77,0.4-1.63C37.72,181.17,37.69,180.4,37.31,180.4z"/>
</g>
<g>
	<path d="M34.16,160.11c0-0.66,0.08-1.25,0.89-1.25c0.69,0,0.93,0.38,0.93,1.03c0,0.62-0.43,1.49-0.72,2.03l-0.35,0.67h1.03v0.48
		H34.1l1.01-2.14c0.15-0.34,0.3-0.71,0.3-1.08c0-0.23-0.08-0.5-0.37-0.5c-0.38,0-0.32,0.62-0.32,0.8v0.11h-0.56V160.11z"/>
	<path d="M38.25,160.99c0,0.66,0.05,2.13-0.94,2.13c-0.99,0-0.94-1.47-0.94-2.13c0-0.66-0.05-2.13,0.94-2.13
		C38.3,158.85,38.25,160.33,38.25,160.99z M37.31,159.35c-0.38,0-0.41,0.77-0.4,1.64c-0.01,0.87,0.02,1.63,0.4,1.63
		c0.38,0,0.41-0.77,0.4-1.63C37.72,160.12,37.69,159.35,37.31,159.35z"/>
</g>
<g>
	<path d="M35.72,140.47h0.27v0.41h-0.27v1.14h-0.54v-1.14h-1.12v-0.47l1.12-2.55h0.54V140.47z M35.18,138.7h-0.01l-0.67,1.77h0.68
		V138.7z"/>
	<path d="M38.25,139.94c0,0.66,0.05,2.13-0.94,2.13c-0.99,0-0.94-1.47-0.94-2.13c0-0.66-0.05-2.13,0.94-2.13
		C38.3,137.8,38.25,139.28,38.25,139.94z M37.31,138.3c-0.38,0-0.41,0.77-0.4,1.64c-0.01,0.87,0.02,1.63,0.4,1.63
		c0.38,0,0.41-0.77,0.4-1.63C37.72,139.07,37.69,138.3,37.31,138.3z"/>
</g>
<g>
	<path d="M35.58,116.8l-0.81,1.78l0.01,0.01c0.12-0.11,0.25-0.19,0.43-0.19c0.69,0,0.73,0.8,0.73,1.31c0,0.64-0.08,1.3-0.9,1.3
		c-0.82,0-0.9-0.77-0.9-1.41c0-1.13,0.37-1.82,0.85-2.81H35.58z M35.04,118.9c-0.08,0-0.34-0.03-0.34,0.81
		c0,0.24,0.01,0.81,0.34,0.81c0.31,0,0.33-0.56,0.33-0.8C35.37,119.46,35.38,118.9,35.04,118.9z"/>
	<path d="M38.25,118.89c0,0.66,0.05,2.13-0.94,2.13c-0.99,0-0.94-1.47-0.94-2.13s-0.05-2.13,0.94-2.13
		C38.3,116.75,38.25,118.23,38.25,118.89z M37.31,117.25c-0.38,0-0.41,0.77-0.4,1.64c-0.01,0.87,0.02,1.63,0.4,1.63
		c0.38,0,0.41-0.77,0.4-1.63C37.72,118.02,37.69,117.25,37.31,117.25z"/>
</g>
<g>
	<path d="M34.63,97.65c-0.4-0.13-0.46-0.57-0.46-0.93c0-0.58,0.18-1.02,0.83-1.02c0.69,0,0.9,0.35,0.9,1.02
		c0,0.36-0.06,0.8-0.45,0.93v0c0.44,0.11,0.49,0.62,0.49,1.01c0,0.63-0.12,1.3-0.9,1.3c-0.75,0-0.9-0.6-0.9-1.22
		c0-0.41,0.01-0.96,0.49-1.08V97.65z M35.37,98.77c0-0.24,0.01-0.82-0.34-0.82c-0.35,0-0.33,0.57-0.33,0.82
		c0,0.24,0.02,0.7,0.33,0.7C35.36,99.47,35.37,99.01,35.37,98.77z M35.34,96.78c0-0.2-0.03-0.58-0.3-0.58
		c-0.28,0-0.31,0.38-0.31,0.58c0,0.19,0.03,0.64,0.31,0.64C35.31,97.42,35.34,96.97,35.34,96.78z"/>
	<path d="M38.25,97.84c0,0.66,0.05,2.13-0.94,2.13c-0.99,0-0.94-1.47-0.94-2.13c0-0.66-0.05-2.13,0.94-2.13
		C38.3,95.7,38.25,97.18,38.25,97.84z M37.31,96.2c-0.38,0-0.41,0.77-0.4,1.64c-0.01,0.87,0.02,1.63,0.4,1.63
		c0.38,0,0.41-0.77,0.4-1.63C37.72,96.97,37.69,96.2,37.31,96.2z"/>
</g>
<g>
	<path d="M33.04,74.7v4.17h-0.54v-3.68h-0.41V74.7H33.04z"/>
	<path d="M35.98,76.79c0,0.66,0.05,2.13-0.94,2.13c-0.99,0-0.94-1.47-0.94-2.13s-0.05-2.13,0.94-2.13
		C36.03,74.65,35.98,76.13,35.98,76.79z M35.04,75.15c-0.38,0-0.41,0.77-0.4,1.64c-0.01,0.87,0.02,1.63,0.4,1.63
		c0.38,0,0.41-0.77,0.4-1.63C35.45,75.92,35.42,75.15,35.04,75.15z"/>
	<path d="M38.25,76.79c0,0.66,0.05,2.13-0.94,2.13c-0.99,0-0.94-1.47-0.94-2.13s-0.05-2.13,0.94-2.13
		C38.3,74.65,38.25,76.13,38.25,76.79z M37.31,75.15c-0.38,0-0.41,0.77-0.4,1.64c-0.01,0.87,0.02,1.63,0.4,1.63
		c0.38,0,0.41-0.77,0.4-1.63C37.72,75.92,37.69,75.15,37.31,75.15z"/>
</g>
<g>
	<path d="M15.63,167.44l2.46-0.4v-0.01l-2.46-0.33v-1.11l4.17-0.44V166l-3,0.2v0.01l1.03,0.13l1.97,0.35v0.63l-1.99,0.4l-0.93,0.14
		h-0.08v0.01l3,0.12v0.88l-4.17-0.36V167.44z"/>
	<path d="M15.63,163.91h4.17v0.82h-4.17V163.91z"/>
	<path d="M15.63,162.5h3.39v-0.86h0.77v1.69h-4.17V162.5z"/>
	<path d="M15.63,160.44h3.39v-0.86h0.77v1.69h-4.17V160.44z"/>
	<path d="M15.63,158.38h4.17v0.82h-4.17V158.38z"/>
	<path d="M17.71,155.01c1.56,0,2.15,0.73,2.15,1.46s-0.59,1.46-2.15,1.46c-1.56,0-2.15-0.73-2.15-1.46S16.15,155.01,17.71,155.01z
		 M19.09,156.47c0-0.55-1.05-0.59-1.39-0.59c-0.37,0-1.39,0.04-1.39,0.59s1.02,0.59,1.39,0.59
		C18.04,157.06,19.09,157.02,19.09,156.47z"/>
	<path d="M15.63,153.78l2.51-1.03l-0.01-0.01c-0.2,0.05-0.41,0.07-0.63,0.07h-1.87v-0.82h4.17v0.78l-2.51,1.02l0.01,0.01l0.42-0.04
		l0.17-0.01h1.91v0.82h-4.17V153.78z"/>
	<path d="M15.63,148.14h0.77v0.65h3.39v0.82H16.4v0.65h-0.77V148.14z"/>
	<path d="M17.71,144.98c1.56,0,2.15,0.73,2.15,1.46s-0.59,1.46-2.15,1.46c-1.56,0-2.15-0.73-2.15-1.46S16.15,144.98,17.71,144.98z
		 M19.09,146.44c0-0.55-1.05-0.59-1.39-0.59c-0.37,0-1.39,0.04-1.39,0.59s1.02,0.59,1.39,0.59
		C18.04,147.03,19.09,146.99,19.09,146.44z"/>
	<path d="M15.63,143.75l2.51-1.03l-0.01-0.01c-0.2,0.05-0.41,0.07-0.63,0.07h-1.87v-0.82h4.17v0.78l-2.51,1.02l0.01,0.01l0.42-0.04
		l0.17-0.01h1.91v0.82h-4.17V143.75z"/>
	<path d="M15.63,140.58l2.51-1.03l-0.01-0.01c-0.2,0.05-0.41,0.07-0.63,0.07h-1.87v-0.82h4.17v0.78l-2.51,1.02l0.01,0.01l0.42-0.04
		l0.17-0.01h1.91v0.82h-4.17V140.58z"/>
	<path d="M15.63,136.55h0.77v0.83h0.91v-0.73h0.77v0.73h0.94v-0.85h0.77v1.67h-4.17V136.55z"/>
	<path d="M16.57,134.33c-0.14,0.17-0.27,0.37-0.27,0.6c0,0.25,0.16,0.41,0.41,0.41c0.68,0,0.72-1.25,1.85-1.25
		c0.74,0,1.3,0.43,1.3,1.2c0,0.23-0.07,0.52-0.21,0.71h-0.78c0.13-0.19,0.22-0.38,0.22-0.62c0-0.27-0.18-0.48-0.45-0.48
		c-0.32,0-0.44,0.25-0.61,0.49c-0.32,0.48-0.63,0.77-1.24,0.77c-0.66,0-1.23-0.38-1.23-1.09c0-0.27,0.07-0.5,0.21-0.73H16.57z"/>
</g>
<rect x="46.63" y="250.49" fill="#F19235" width="5.6" height="5.6"/>
<g>
	<path d="M57.92,252.97c0,0.86-0.01,2.45-1.24,2.45s-1.24-1.59-1.24-2.45c0-0.86,0.01-2.44,1.24-2.44S57.92,252.11,57.92,252.97z
		 M56.11,252.97c0,1.01,0.07,1.85,0.57,1.85s0.57-0.84,0.57-1.85s-0.07-1.85-0.57-1.85S56.11,251.96,56.11,252.97z"/>
	<path d="M59.23,251.25v0.9h0.32v0.47h-0.32v2.72h-0.59v-2.72h-0.32v-0.47h0.32v-0.9H59.23z"/>
	<path d="M60.57,250.11v2.42h0.01c0.07-0.13,0.15-0.23,0.25-0.3c0.11-0.08,0.23-0.11,0.39-0.11c0.64,0,0.65,0.56,0.65,1.05v2.19
		h-0.59v-2.21c0-0.22-0.04-0.5-0.35-0.5c-0.39,0-0.36,0.45-0.36,0.72v1.99h-0.59v-5.24H60.57z"/>
	<path d="M63,253.87c0,0.27-0.01,1,0.37,1c0.32,0,0.37-0.35,0.37-0.59h0.55c0,0.59-0.26,1.12-0.93,1.12c-0.89,0-0.97-0.95-0.97-1.62
		c0-0.65,0.08-1.67,0.95-1.67c0.87,0,0.97,1.01,0.97,1.67v0.09H63z M63.71,253.45c0-0.25,0-0.81-0.36-0.81
		c-0.37,0-0.35,0.56-0.35,0.81H63.71z"/>
	<path d="M65.43,252.55h0.01c0.14-0.28,0.35-0.44,0.68-0.44v0.59l-0.1-0.01c-0.44,0-0.58,0.25-0.58,0.65v2.01h-0.6v-3.19h0.59
		V252.55z"/>
	<path d="M69.21,254.94H69.2c-0.12,0.28-0.25,0.46-0.59,0.46c-0.74,0-0.75-1.17-0.75-1.69c0-0.53,0.02-1.6,0.77-1.6
		c0.28,0,0.46,0.17,0.57,0.4h0.01v-0.35h0.59v3.19h-0.59V254.94z M69.23,253.75c0-0.25,0.02-1.11-0.37-1.11
		c-0.44,0-0.39,0.85-0.39,1.11c0,0.27-0.05,1.12,0.39,1.12C69.25,254.87,69.23,254,69.23,253.75z"/>
	<path d="M71.01,252.52h0.01c0.07-0.13,0.15-0.23,0.25-0.3c0.11-0.08,0.23-0.11,0.39-0.11c0.63,0,0.65,0.56,0.65,1.05v2.19h-0.59
		v-2.21c0-0.22-0.04-0.5-0.35-0.5c-0.39,0-0.36,0.45-0.36,0.72v1.99h-0.59v-3.19h0.59V252.52z"/>
	<path d="M72.83,251.19c0-0.21,0.18-0.39,0.4-0.39c0.21,0,0.39,0.18,0.39,0.39c0,0.22-0.18,0.4-0.39,0.4
		C73.01,251.59,72.83,251.41,72.83,251.19z M73.52,255.35h-0.59v-3.19h0.59V255.35z"/>
	<path d="M74.73,252.55h0.01c0.12-0.26,0.32-0.44,0.63-0.44c0.28,0,0.51,0.16,0.57,0.44h0.01c0.13-0.28,0.33-0.44,0.66-0.44
		c0.56,0,0.7,0.35,0.7,0.77v2.47h-0.59v-2.24c0-0.23-0.03-0.47-0.32-0.47c-0.42,0-0.38,0.4-0.38,0.68v2.03h-0.59v-2.17
		c-0.01-0.25,0-0.54-0.34-0.54c-0.37,0-0.35,0.41-0.36,0.68v2.03h-0.59v-3.19h0.6V252.55z"/>
	<path d="M79.17,254.94h-0.01c-0.12,0.28-0.25,0.46-0.59,0.46c-0.74,0-0.75-1.17-0.75-1.69c0-0.53,0.02-1.6,0.77-1.6
		c0.28,0,0.46,0.17,0.57,0.4h0.01v-0.35h0.59v3.19h-0.59V254.94z M79.19,253.75c0-0.25,0.02-1.11-0.37-1.11
		c-0.44,0-0.39,0.85-0.39,1.11c0,0.27-0.05,1.12,0.39,1.12C79.22,254.87,79.19,254,79.19,253.75z"/>
	<path d="M80.97,255.35h-0.59v-5.24h0.59V255.35z"/>
	<path d="M84.14,252.81c-0.11-0.1-0.3-0.17-0.44-0.17c-0.22,0-0.4,0.13-0.4,0.34c0.01,0.54,1,0.56,1,1.47
		c0,0.56-0.35,0.95-0.92,0.95c-0.21,0-0.34-0.04-0.52-0.15v-0.58c0.15,0.12,0.29,0.2,0.49,0.2c0.26,0,0.4-0.16,0.4-0.4
		c0-0.56-1-0.6-1-1.48c0-0.5,0.35-0.87,0.85-0.87c0.2,0,0.37,0.04,0.54,0.14V252.81z"/>
	<path d="M85.33,252.57h0.01c0.11-0.27,0.26-0.46,0.59-0.46c0.74,0,0.75,1.16,0.75,1.68c0,0.54-0.02,1.61-0.77,1.61
		c-0.31,0-0.45-0.15-0.57-0.41h-0.01v1.67h-0.59v-4.5h0.59V252.57z M86.08,253.76c0-0.26,0.05-1.12-0.39-1.12
		c-0.4,0-0.37,0.86-0.37,1.12c0,0.25-0.03,1.11,0.37,1.11C86.06,254.87,86.08,254.29,86.08,253.76z"/>
	<path d="M87.72,253.87c0,0.27-0.01,1,0.37,1c0.32,0,0.37-0.35,0.37-0.59h0.55c0,0.59-0.26,1.12-0.93,1.12
		c-0.89,0-0.97-0.95-0.97-1.62c0-0.65,0.08-1.67,0.95-1.67c0.87,0,0.97,1.01,0.97,1.67v0.09H87.72z M88.43,253.45
		c0-0.25,0-0.81-0.36-0.81c-0.37,0-0.35,0.56-0.35,0.81H88.43z"/>
	<path d="M90.88,252.82h-0.01c-0.06-0.09-0.15-0.15-0.28-0.15c-0.51,0.01-0.52,0.72-0.52,1.06c0,0.32,0.01,1.12,0.51,1.12
		c0.13,0,0.21-0.05,0.3-0.12v0.55c-0.15,0.09-0.3,0.13-0.48,0.13c-0.84,0-0.94-0.99-0.94-1.62c0-0.66,0.08-1.67,0.95-1.67
		c0.18,0,0.32,0.03,0.47,0.11V252.82z"/>
	<path d="M91.27,251.19c0-0.21,0.18-0.39,0.4-0.39c0.21,0,0.39,0.18,0.39,0.39c0,0.22-0.18,0.4-0.39,0.4
		C91.45,251.59,91.27,251.41,91.27,251.19z M91.96,255.35h-0.59v-3.19h0.59V255.35z"/>
	<path d="M93.08,253.87c0,0.27-0.01,1,0.37,1c0.32,0,0.37-0.35,0.37-0.59h0.55c0,0.59-0.26,1.12-0.93,1.12
		c-0.89,0-0.97-0.95-0.97-1.62c0-0.65,0.08-1.67,0.95-1.67c0.87,0,0.97,1.01,0.97,1.67v0.09H93.08z M93.79,253.45
		c0-0.25,0-0.81-0.36-0.81c-0.37,0-0.35,0.56-0.35,0.81H93.79z"/>
	<path d="M96.11,252.81c-0.11-0.1-0.3-0.17-0.44-0.17c-0.22,0-0.4,0.13-0.4,0.34c0.01,0.54,1,0.56,1,1.47
		c0,0.56-0.35,0.95-0.92,0.95c-0.21,0-0.34-0.04-0.52-0.15v-0.58c0.15,0.12,0.29,0.2,0.49,0.2c0.26,0,0.4-0.16,0.4-0.4
		c0-0.56-1-0.6-1-1.48c0-0.5,0.35-0.87,0.85-0.87c0.2,0,0.37,0.04,0.54,0.14V252.81z"/>
	<path d="M99.21,250.67c-0.3,0.8-0.55,1.71-0.55,2.55c0,0.9,0.22,1.85,0.55,2.7l-0.59,0.15c-0.36-0.88-0.56-1.86-0.56-2.81
		c0-0.93,0.19-1.87,0.56-2.73L99.21,250.67z"/>
	<path d="M101.14,254.94h-0.01c-0.12,0.28-0.25,0.46-0.59,0.46c-0.74,0-0.75-1.17-0.75-1.69c0-0.53,0.02-1.6,0.77-1.6
		c0.28,0,0.46,0.17,0.57,0.4h0.01v-0.35h0.59v3.19h-0.59V254.94z M101.16,253.75c0-0.25,0.02-1.11-0.37-1.11
		c-0.44,0-0.39,0.85-0.39,1.11c0,0.27-0.05,1.12,0.39,1.12C101.19,254.87,101.16,254,101.16,253.75z"/>
	<path d="M102.94,255.35h-0.59v-5.24h0.59V255.35z"/>
	<path d="M104.14,255.35h-0.59v-5.24h0.59V255.35z"/>
	<path d="M107.37,254.94h-0.01c-0.12,0.28-0.25,0.46-0.59,0.46c-0.74,0-0.75-1.17-0.75-1.69c0-0.53,0.02-1.6,0.77-1.6
		c0.28,0,0.46,0.17,0.57,0.4h0.01v-0.35h0.59v3.19h-0.59V254.94z M107.39,253.75c0-0.25,0.02-1.11-0.37-1.11
		c-0.44,0-0.39,0.85-0.39,1.11c0,0.27-0.05,1.12,0.39,1.12C107.41,254.87,107.39,254,107.39,253.75z"/>
	<path d="M110.43,256.66h-0.59v-1.67h-0.01c-0.06,0.13-0.13,0.23-0.21,0.3s-0.2,0.11-0.35,0.11c-0.75,0-0.77-1.07-0.77-1.61
		c0-0.52,0.01-1.68,0.75-1.68c0.33,0,0.47,0.18,0.59,0.46h0.01v-0.41h0.59V256.66z M109.85,253.76c0-0.26,0.02-1.12-0.37-1.12
		c-0.44,0-0.39,0.85-0.39,1.12c0,0.26-0.05,1.11,0.39,1.11C109.88,254.87,109.85,254.01,109.85,253.76z"/>
	<path d="M111.63,252.16v2c0,0.29-0.04,0.7,0.37,0.7c0.4,0,0.35-0.38,0.35-0.67v-2.03h0.59v2.15c0,0.66-0.2,1.09-0.92,1.09
		c-0.87,0-0.99-0.49-0.99-1.21v-2.03H111.63z"/>
	<path d="M114.82,254.94h-0.01c-0.12,0.28-0.25,0.46-0.59,0.46c-0.74,0-0.75-1.17-0.75-1.69c0-0.53,0.02-1.6,0.77-1.6
		c0.28,0,0.46,0.17,0.57,0.4h0.01v-0.35h0.59v3.19h-0.59V254.94z M114.84,253.75c0-0.25,0.02-1.11-0.37-1.11
		c-0.44,0-0.39,0.85-0.39,1.11c0,0.27-0.05,1.12,0.39,1.12C114.86,254.87,114.84,254,114.84,253.75z"/>
	<path d="M117.35,252.82h-0.01c-0.06-0.09-0.15-0.15-0.28-0.15c-0.51,0.01-0.52,0.72-0.52,1.06c0,0.32,0.01,1.12,0.51,1.12
		c0.13,0,0.21-0.05,0.3-0.12v0.55c-0.15,0.09-0.3,0.13-0.48,0.13c-0.84,0-0.94-0.99-0.94-1.62c0-0.66,0.08-1.67,0.95-1.67
		c0.18,0,0.32,0.03,0.47,0.11V252.82z"/>
	<path d="M118.44,252.16v2c0,0.29-0.04,0.7,0.37,0.7c0.4,0,0.35-0.38,0.35-0.67v-2.03h0.59v2.15c0,0.66-0.2,1.09-0.92,1.09
		c-0.87,0-0.99-0.49-0.99-1.21v-2.03H118.44z"/>
	<path d="M120.95,255.35h-0.59v-5.24h0.59V255.35z"/>
	<path d="M122.28,251.25v0.9h0.32v0.47h-0.32v2.72h-0.59v-2.72h-0.32v-0.47h0.32v-0.9H122.28z"/>
	<path d="M123.61,252.16v2c0,0.29-0.04,0.7,0.37,0.7c0.4,0,0.35-0.38,0.35-0.67v-2.03h0.59v2.15c0,0.66-0.2,1.09-0.92,1.09
		c-0.87,0-0.99-0.49-0.99-1.21v-2.03H123.61z"/>
	<path d="M126.14,252.55h0.01c0.14-0.28,0.35-0.44,0.68-0.44v0.59l-0.1-0.01c-0.44,0-0.58,0.25-0.58,0.65v2.01h-0.6v-3.19h0.59
		V252.55z"/>
	<path d="M127.82,253.87c0,0.27-0.01,1,0.37,1c0.32,0,0.37-0.35,0.37-0.59h0.55c0,0.59-0.26,1.12-0.93,1.12
		c-0.89,0-0.97-0.95-0.97-1.62c0-0.65,0.08-1.67,0.95-1.67c0.87,0,0.97,1.01,0.97,1.67v0.09H127.82z M128.52,253.45
		c0-0.25,0-0.81-0.36-0.81c-0.37,0-0.35,0.56-0.35,0.81H128.52z"/>
	<path d="M130.29,256.06l-0.59-0.15c0.33-0.85,0.55-1.79,0.55-2.7c0-0.84-0.25-1.75-0.55-2.55l0.59-0.15
		c0.37,0.86,0.56,1.8,0.56,2.73C130.85,254.2,130.65,255.18,130.29,256.06z"/>
</g>
<rect x="46.54" y="260.23" fill="#878787" width="5.6" height="5.6"/>
<g>
	<path d="M57.01,260.98c-0.13-0.06-0.26-0.12-0.4-0.12c-0.88,0-0.89,1.29-0.89,1.88c0,0.63,0.05,1.82,0.92,1.82
		c0.14,0,0.26-0.03,0.38-0.09v0.56c-0.16,0.1-0.32,0.13-0.51,0.13c-1.29,0-1.46-1.37-1.46-2.37c0-0.95,0.12-2.52,1.42-2.52
		c0.21,0,0.37,0.03,0.55,0.14V260.98z"/>
	<path d="M58.04,262.29h0.01c0.14-0.28,0.35-0.44,0.68-0.44v0.59l-0.1-0.01c-0.44,0-0.58,0.25-0.58,0.65v2.01h-0.6v-3.19h0.59
		V262.29z"/>
	<path d="M59.8,261.9v2c0,0.29-0.04,0.7,0.37,0.7c0.4,0,0.35-0.38,0.35-0.67v-2.03h0.59v2.15c0,0.66-0.2,1.09-0.92,1.09
		c-0.87,0-0.99-0.49-0.99-1.21v-2.03H59.8z"/>
	<path d="M62.93,262.55c-0.11-0.1-0.3-0.17-0.44-0.17c-0.22,0-0.4,0.13-0.4,0.34c0.01,0.54,1,0.56,1,1.47
		c0,0.56-0.35,0.95-0.92,0.95c-0.21,0-0.34-0.04-0.52-0.15v-0.58c0.15,0.12,0.29,0.2,0.49,0.2c0.26,0,0.4-0.16,0.4-0.4
		c0-0.56-1-0.6-1-1.48c0-0.5,0.35-0.87,0.85-0.87c0.2,0,0.37,0.04,0.54,0.14V262.55z"/>
	<path d="M64.25,261v0.9h0.32v0.47h-0.32v2.72h-0.59v-2.72h-0.32v-0.47h0.32V261H64.25z"/>
	<path d="M66.25,264.68h-0.01c-0.12,0.28-0.25,0.46-0.59,0.46c-0.74,0-0.75-1.17-0.75-1.69c0-0.53,0.02-1.6,0.77-1.6
		c0.28,0,0.46,0.17,0.57,0.4h0.01v-0.35h0.59v3.19h-0.59V264.68z M66.27,263.49c0-0.25,0.02-1.11-0.37-1.11
		c-0.44,0-0.39,0.85-0.39,1.11c0,0.27-0.05,1.12,0.39,1.12C66.29,264.61,66.27,263.75,66.27,263.49z"/>
	<path d="M68.78,262.56h-0.01c-0.06-0.09-0.15-0.15-0.28-0.15c-0.51,0.01-0.52,0.72-0.52,1.06c0,0.32,0.01,1.12,0.51,1.12
		c0.13,0,0.21-0.05,0.3-0.12v0.55c-0.15,0.09-0.3,0.13-0.48,0.13c-0.84,0-0.94-0.99-0.94-1.62c0-0.66,0.08-1.67,0.95-1.67
		c0.18,0,0.32,0.03,0.47,0.11V262.56z"/>
	<path d="M69.79,263.61c0,0.27-0.01,1,0.37,1c0.32,0,0.37-0.35,0.37-0.59h0.55c0,0.59-0.26,1.12-0.93,1.12
		c-0.89,0-0.97-0.95-0.97-1.62c0-0.65,0.08-1.67,0.95-1.67c0.87,0,0.97,1.01,0.97,1.67v0.09H69.79z M70.5,263.19
		c0-0.25,0-0.81-0.36-0.81c-0.37,0-0.35,0.56-0.35,0.81H70.5z"/>
	<path d="M72.87,264.68h-0.01c-0.12,0.28-0.25,0.46-0.59,0.46c-0.74,0-0.75-1.17-0.75-1.69c0-0.53,0.02-1.6,0.77-1.6
		c0.28,0,0.46,0.17,0.57,0.4h0.01v-0.35h0.59v3.19h-0.59V264.68z M72.89,263.49c0-0.25,0.02-1.11-0.37-1.11
		c-0.44,0-0.39,0.85-0.39,1.11c0,0.27-0.05,1.12,0.39,1.12C72.92,264.61,72.89,263.75,72.89,263.49z"/>
	<path d="M74.67,262.27h0.01c0.07-0.13,0.15-0.23,0.25-0.3c0.11-0.08,0.23-0.11,0.39-0.11c0.63,0,0.65,0.56,0.65,1.05v2.19h-0.59
		v-2.21c0-0.22-0.04-0.5-0.35-0.5c-0.39,0-0.36,0.45-0.36,0.72v1.99h-0.59v-3.19h0.59V262.27z"/>
	<path d="M77.79,262.55c-0.11-0.1-0.3-0.17-0.44-0.17c-0.22,0-0.4,0.13-0.4,0.34c0.01,0.54,1,0.56,1,1.47
		c0,0.56-0.35,0.95-0.92,0.95c-0.21,0-0.34-0.04-0.52-0.15v-0.58c0.15,0.12,0.29,0.2,0.49,0.2c0.26,0,0.4-0.16,0.4-0.4
		c0-0.56-1-0.6-1-1.48c0-0.5,0.35-0.87,0.85-0.87c0.2,0,0.37,0.04,0.54,0.14V262.55z"/>
	<path d="M80.89,260.41c-0.3,0.8-0.55,1.71-0.55,2.55c0,0.9,0.22,1.85,0.55,2.7l-0.59,0.15c-0.36-0.88-0.56-1.86-0.56-2.81
		c0-0.93,0.19-1.87,0.56-2.73L80.89,260.41z"/>
	<path d="M81.47,260.93c0-0.21,0.18-0.39,0.4-0.39c0.21,0,0.39,0.18,0.39,0.39c0,0.22-0.18,0.4-0.39,0.4
		C81.64,261.33,81.47,261.16,81.47,260.93z M82.15,265.09h-0.59v-3.19h0.59V265.09z"/>
	<path d="M83.36,262.27h0.01c0.07-0.13,0.15-0.23,0.25-0.3c0.11-0.08,0.23-0.11,0.39-0.11c0.63,0,0.65,0.56,0.65,1.05v2.19h-0.59
		v-2.21c0-0.22-0.04-0.5-0.35-0.5c-0.39,0-0.36,0.45-0.36,0.72v1.99h-0.59v-3.19h0.59V262.27z"/>
	<path d="M85.87,265.09h-0.59v-5.24h0.59V265.09z"/>
	<path d="M87.73,264.68h-0.01c-0.12,0.28-0.25,0.46-0.59,0.46c-0.74,0-0.75-1.17-0.75-1.69c0-0.53,0.02-1.6,0.77-1.6
		c0.28,0,0.46,0.17,0.57,0.4h0.01v-0.35h0.59v3.19h-0.59V264.68z M87.75,263.49c0-0.25,0.02-1.11-0.37-1.11
		c-0.44,0-0.39,0.85-0.39,1.11c0,0.27-0.05,1.12,0.39,1.12C87.78,264.61,87.75,263.75,87.75,263.49z"/>
	<path d="M89.54,262.27h0.01c0.07-0.13,0.15-0.23,0.25-0.3c0.11-0.08,0.23-0.11,0.39-0.11c0.63,0,0.65,0.56,0.65,1.05v2.19h-0.59
		v-2.21c0-0.22-0.04-0.5-0.35-0.5c-0.39,0-0.36,0.45-0.36,0.72v1.99h-0.59v-3.19h0.59V262.27z"/>
	<path d="M92.71,264.68H92.7c-0.12,0.28-0.25,0.46-0.59,0.46c-0.74,0-0.75-1.17-0.75-1.69c0-0.53,0.02-1.6,0.77-1.6
		c0.3,0,0.45,0.16,0.57,0.4h0.01v-2.41h0.59v5.24h-0.59V264.68z M92.73,263.49c0-0.25,0.02-1.11-0.37-1.11
		c-0.44,0-0.39,0.85-0.39,1.11c0,0.27-0.05,1.12,0.39,1.12C92.76,264.61,92.73,263.75,92.73,263.49z"/>
	<path d="M96.54,264.68h-0.01c-0.12,0.28-0.25,0.46-0.59,0.46c-0.74,0-0.75-1.17-0.75-1.69c0-0.53,0.02-1.6,0.77-1.6
		c0.28,0,0.46,0.17,0.57,0.4h0.01v-0.35h0.59v3.19h-0.59V264.68z M96.56,263.49c0-0.25,0.02-1.11-0.37-1.11
		c-0.44,0-0.39,0.85-0.39,1.11c0,0.27-0.05,1.12,0.39,1.12C96.58,264.61,96.56,263.75,96.56,263.49z"/>
	<path d="M99.59,266.4H99v-1.67h-0.01c-0.06,0.13-0.13,0.23-0.21,0.3s-0.2,0.11-0.35,0.11c-0.75,0-0.77-1.07-0.77-1.61
		c0-0.52,0.01-1.68,0.75-1.68c0.33,0,0.47,0.18,0.59,0.46H99v-0.41h0.59V266.4z M99.02,263.5c0-0.26,0.02-1.12-0.37-1.12
		c-0.44,0-0.39,0.85-0.39,1.12c0,0.26-0.05,1.11,0.39,1.11C99.04,264.61,99.02,263.75,99.02,263.5z"/>
	<path d="M100.8,261.9v2c0,0.29-0.04,0.7,0.37,0.7c0.4,0,0.35-0.38,0.35-0.67v-2.03h0.59v2.15c0,0.66-0.2,1.09-0.92,1.09
		c-0.87,0-0.99-0.49-0.99-1.21v-2.03H100.8z"/>
	<path d="M103.99,264.68h-0.01c-0.12,0.28-0.25,0.46-0.59,0.46c-0.74,0-0.75-1.17-0.75-1.69c0-0.53,0.02-1.6,0.77-1.6
		c0.28,0,0.46,0.17,0.57,0.4h0.01v-0.35h0.59v3.19h-0.59V264.68z M104.01,263.49c0-0.25,0.02-1.11-0.37-1.11
		c-0.44,0-0.39,0.85-0.39,1.11c0,0.27-0.05,1.12,0.39,1.12C104.03,264.61,104.01,263.75,104.01,263.49z"/>
	<path d="M106.52,262.56h-0.01c-0.06-0.09-0.15-0.15-0.28-0.15c-0.51,0.01-0.52,0.72-0.52,1.06c0,0.32,0.01,1.12,0.51,1.12
		c0.13,0,0.21-0.05,0.3-0.12v0.55c-0.15,0.09-0.3,0.13-0.48,0.13c-0.84,0-0.94-0.99-0.94-1.62c0-0.66,0.08-1.67,0.95-1.67
		c0.18,0,0.32,0.03,0.47,0.11V262.56z"/>
	<path d="M107.61,261.9v2c0,0.29-0.04,0.7,0.37,0.7c0.4,0,0.35-0.38,0.35-0.67v-2.03h0.59v2.15c0,0.66-0.2,1.09-0.92,1.09
		c-0.87,0-0.99-0.49-0.99-1.21v-2.03H107.61z"/>
	<path d="M110.12,265.09h-0.59v-5.24h0.59V265.09z"/>
	<path d="M111.45,261v0.9h0.32v0.47h-0.32v2.72h-0.59v-2.72h-0.32v-0.47h0.32V261H111.45z"/>
	<path d="M112.79,261.9v2c0,0.29-0.04,0.7,0.37,0.7c0.4,0,0.35-0.38,0.35-0.67v-2.03h0.59v2.15c0,0.66-0.2,1.09-0.92,1.09
		c-0.87,0-0.99-0.49-0.99-1.21v-2.03H112.79z"/>
	<path d="M115.31,262.29h0.01c0.14-0.28,0.35-0.44,0.68-0.44v0.59l-0.1-0.01c-0.44,0-0.58,0.25-0.58,0.65v2.01h-0.6v-3.19h0.59
		V262.29z"/>
	<path d="M116.98,263.61c0,0.27-0.01,1,0.37,1c0.32,0,0.37-0.35,0.37-0.59h0.55c0,0.59-0.26,1.12-0.93,1.12
		c-0.89,0-0.97-0.95-0.97-1.62c0-0.65,0.08-1.67,0.95-1.67c0.87,0,0.97,1.01,0.97,1.67v0.09H116.98z M117.69,263.19
		c0-0.25,0-0.81-0.36-0.81c-0.37,0-0.35,0.56-0.35,0.81H117.69z"/>
	<path d="M119.46,265.8l-0.59-0.15c0.33-0.85,0.55-1.79,0.55-2.7c0-0.84-0.25-1.75-0.55-2.55l0.59-0.15
		c0.37,0.86,0.56,1.8,0.56,2.73C120.02,263.94,119.82,264.92,119.46,265.8z"/>
</g>
<rect x="46.61" y="269.71" fill="#04A64B" width="5.6" height="5.6"/>
<g>
	<path d="M57.4,270.46c-0.13-0.06-0.26-0.12-0.4-0.12c-0.88,0-0.89,1.29-0.89,1.88c0,0.63,0.05,1.82,0.92,1.82
		c0.14,0,0.26-0.03,0.38-0.09v0.56c-0.16,0.1-0.32,0.13-0.51,0.13c-1.29,0-1.46-1.37-1.46-2.37c0-0.95,0.12-2.52,1.42-2.52
		c0.21,0,0.37,0.03,0.55,0.14V270.46z"/>
	<path d="M58.43,271.77h0.01c0.14-0.28,0.35-0.44,0.68-0.44v0.59l-0.1-0.01c-0.44,0-0.58,0.25-0.58,0.65v2.01h-0.6v-3.19h0.59
		V271.77z"/>
	<path d="M60.2,271.38v2c0,0.29-0.04,0.7,0.37,0.7c0.4,0,0.35-0.38,0.35-0.67v-2.03h0.59v2.15c0,0.66-0.2,1.09-0.92,1.09
		c-0.87,0-0.99-0.49-0.99-1.21v-2.03H60.2z"/>
	<path d="M63.32,272.03c-0.11-0.1-0.3-0.17-0.44-0.17c-0.22,0-0.4,0.13-0.4,0.34c0.01,0.54,1,0.56,1,1.47
		c0,0.56-0.35,0.95-0.92,0.95c-0.21,0-0.34-0.04-0.52-0.15v-0.58c0.15,0.12,0.29,0.2,0.49,0.2c0.26,0,0.4-0.16,0.4-0.4
		c0-0.56-1-0.6-1-1.48c0-0.5,0.35-0.87,0.85-0.87c0.2,0,0.37,0.04,0.54,0.14V272.03z"/>
	<path d="M64.64,270.48v0.9h0.32v0.47h-0.32v2.72h-0.59v-2.72h-0.32v-0.47h0.32v-0.9H64.64z"/>
	<path d="M66.64,274.16h-0.01c-0.12,0.28-0.25,0.46-0.59,0.46c-0.74,0-0.75-1.17-0.75-1.69c0-0.53,0.02-1.6,0.77-1.6
		c0.28,0,0.46,0.17,0.57,0.4h0.01v-0.35h0.59v3.19h-0.59V274.16z M66.66,272.97c0-0.25,0.02-1.11-0.37-1.11
		c-0.44,0-0.39,0.85-0.39,1.11c0,0.27-0.05,1.12,0.39,1.12C66.69,274.09,66.66,273.22,66.66,272.97z"/>
	<path d="M69.17,272.04h-0.01c-0.06-0.09-0.15-0.15-0.28-0.15c-0.51,0.01-0.52,0.72-0.52,1.06c0,0.32,0.01,1.12,0.51,1.12
		c0.13,0,0.21-0.05,0.3-0.12v0.55c-0.15,0.09-0.3,0.13-0.48,0.13c-0.84,0-0.94-0.99-0.94-1.62c0-0.66,0.08-1.67,0.95-1.67
		c0.18,0,0.32,0.03,0.47,0.11V272.04z"/>
	<path d="M70.17,273.09c0,0.27-0.01,1,0.37,1c0.32,0,0.37-0.35,0.37-0.59h0.55c0,0.59-0.26,1.12-0.93,1.12
		c-0.89,0-0.97-0.95-0.97-1.62c0-0.65,0.08-1.67,0.95-1.67c0.87,0,0.97,1.01,0.97,1.67v0.09H70.17z M70.88,272.67
		c0-0.25,0-0.81-0.36-0.81c-0.37,0-0.35,0.56-0.35,0.81H70.88z"/>
	<path d="M73.26,274.16h-0.01c-0.12,0.28-0.25,0.46-0.59,0.46c-0.74,0-0.75-1.17-0.75-1.69c0-0.53,0.02-1.6,0.77-1.6
		c0.28,0,0.46,0.17,0.57,0.4h0.01v-0.35h0.59v3.19h-0.59V274.16z M73.28,272.97c0-0.25,0.02-1.11-0.37-1.11
		c-0.44,0-0.39,0.85-0.39,1.11c0,0.27-0.05,1.12,0.39,1.12C73.31,274.09,73.28,273.22,73.28,272.97z"/>
	<path d="M75.06,271.75h0.01c0.07-0.13,0.15-0.23,0.25-0.3c0.11-0.08,0.23-0.11,0.39-0.11c0.63,0,0.65,0.56,0.65,1.05v2.19h-0.59
		v-2.21c0-0.22-0.04-0.5-0.35-0.5c-0.39,0-0.36,0.45-0.36,0.72v1.99h-0.59v-3.19h0.59V271.75z"/>
	<path d="M78.19,272.03c-0.11-0.1-0.3-0.17-0.44-0.17c-0.22,0-0.4,0.13-0.4,0.34c0.01,0.54,1,0.56,1,1.47
		c0,0.56-0.35,0.95-0.92,0.95c-0.21,0-0.34-0.04-0.52-0.15v-0.58c0.15,0.12,0.29,0.2,0.49,0.2c0.26,0,0.4-0.16,0.4-0.4
		c0-0.56-1-0.6-1-1.48c0-0.5,0.35-0.87,0.85-0.87c0.2,0,0.37,0.04,0.54,0.14V272.03z"/>
	<path d="M81.28,269.89c-0.3,0.8-0.55,1.71-0.55,2.55c0,0.9,0.22,1.85,0.55,2.7l-0.59,0.15c-0.36-0.88-0.56-1.86-0.56-2.81
		c0-0.93,0.19-1.87,0.56-2.73L81.28,269.89z"/>
	<path d="M82.55,271.77h0.01c0.12-0.26,0.32-0.44,0.63-0.44c0.28,0,0.51,0.16,0.57,0.44h0.01c0.13-0.28,0.33-0.44,0.66-0.44
		c0.56,0,0.7,0.35,0.7,0.77v2.47h-0.59v-2.24c0-0.23-0.03-0.47-0.32-0.47c-0.42,0-0.38,0.4-0.38,0.68v2.03h-0.59v-2.17
		c-0.01-0.25,0-0.54-0.34-0.54c-0.37,0-0.35,0.41-0.36,0.68v2.03h-0.59v-3.19h0.6V271.77z"/>
	<path d="M87.01,274.16h-0.01c-0.12,0.28-0.25,0.46-0.59,0.46c-0.74,0-0.75-1.17-0.75-1.69c0-0.53,0.02-1.6,0.77-1.6
		c0.28,0,0.46,0.17,0.57,0.4h0.01v-0.35h0.59v3.19h-0.59V274.16z M87.03,272.97c0-0.25,0.02-1.11-0.37-1.11
		c-0.44,0-0.39,0.85-0.39,1.11c0,0.27-0.05,1.12,0.39,1.12C87.05,274.09,87.03,273.22,87.03,272.97z"/>
	<path d="M88.81,271.77h0.01c0.14-0.28,0.35-0.44,0.68-0.44v0.59l-0.1-0.01c-0.44,0-0.58,0.25-0.58,0.65v2.01h-0.6v-3.19h0.59
		V271.77z"/>
	<path d="M89.88,270.41c0-0.21,0.18-0.39,0.4-0.39c0.21,0,0.39,0.18,0.39,0.39c0,0.22-0.18,0.4-0.39,0.4
		C90.05,270.81,89.88,270.63,89.88,270.41z M90.56,274.57h-0.59v-3.19h0.59V274.57z"/>
	<path d="M91.77,271.75h0.01c0.07-0.13,0.15-0.23,0.25-0.3c0.11-0.08,0.23-0.11,0.39-0.11c0.63,0,0.65,0.56,0.65,1.05v2.19h-0.59
		v-2.21c0-0.22-0.04-0.5-0.35-0.5c-0.39,0-0.36,0.45-0.36,0.72v1.99h-0.59v-3.19h0.59V271.75z"/>
	<path d="M94.2,273.09c0,0.27-0.01,1,0.37,1c0.32,0,0.37-0.35,0.37-0.59h0.55c0,0.59-0.26,1.12-0.93,1.12
		c-0.89,0-0.97-0.95-0.97-1.62c0-0.65,0.08-1.67,0.95-1.67c0.87,0,0.97,1.01,0.97,1.67v0.09H94.2z M94.91,272.67
		c0-0.25,0-0.81-0.36-0.81c-0.37,0-0.35,0.56-0.35,0.81H94.91z"/>
	<path d="M98.64,274.16h-0.01c-0.12,0.28-0.25,0.46-0.59,0.46c-0.74,0-0.75-1.17-0.75-1.69c0-0.53,0.02-1.6,0.77-1.6
		c0.28,0,0.46,0.17,0.57,0.4h0.01v-0.35h0.59v3.19h-0.59V274.16z M98.66,272.97c0-0.25,0.02-1.11-0.37-1.11
		c-0.44,0-0.39,0.85-0.39,1.11c0,0.27-0.05,1.12,0.39,1.12C98.68,274.09,98.66,273.22,98.66,272.97z"/>
	<path d="M100.44,271.75h0.01c0.07-0.13,0.15-0.23,0.25-0.3c0.11-0.08,0.23-0.11,0.39-0.11c0.63,0,0.65,0.56,0.65,1.05v2.19h-0.59
		v-2.21c0-0.22-0.04-0.5-0.35-0.5c-0.39,0-0.36,0.45-0.36,0.72v1.99h-0.59v-3.19h0.59V271.75z"/>
	<path d="M103.62,274.16h-0.01c-0.12,0.28-0.25,0.46-0.59,0.46c-0.74,0-0.75-1.17-0.75-1.69c0-0.53,0.02-1.6,0.77-1.6
		c0.3,0,0.45,0.16,0.57,0.4h0.01v-2.41h0.59v5.24h-0.59V274.16z M103.64,272.97c0-0.25,0.02-1.11-0.37-1.11
		c-0.44,0-0.39,0.85-0.39,1.11c0,0.27-0.05,1.12,0.39,1.12C103.66,274.09,103.64,273.22,103.64,272.97z"/>
	<path d="M107.51,272.04h-0.01c-0.06-0.09-0.15-0.15-0.28-0.15c-0.51,0.01-0.52,0.72-0.52,1.06c0,0.32,0.01,1.12,0.51,1.12
		c0.13,0,0.21-0.05,0.3-0.12v0.55c-0.15,0.09-0.3,0.13-0.48,0.13c-0.84,0-0.94-0.99-0.94-1.62c0-0.66,0.08-1.67,0.95-1.67
		c0.18,0,0.32,0.03,0.47,0.11V272.04z"/>
	<path d="M107.91,272.98c0-0.69,0.09-1.65,1-1.65s1,0.96,1,1.65c0,0.67-0.09,1.64-1,1.64S107.91,273.65,107.91,272.98z
		 M109.31,272.98c0-0.25,0.06-1.11-0.4-1.11c-0.45,0-0.4,0.86-0.4,1.11c0,0.23-0.06,1.09,0.4,1.09
		C109.37,274.08,109.31,273.21,109.31,272.98z"/>
	<path d="M111.7,274.16h-0.01c-0.12,0.28-0.25,0.46-0.59,0.46c-0.74,0-0.75-1.17-0.75-1.69c0-0.53,0.02-1.6,0.77-1.6
		c0.28,0,0.46,0.17,0.57,0.4h0.01v-0.35h0.59v3.19h-0.59V274.16z M111.71,272.97c0-0.25,0.02-1.11-0.37-1.11
		c-0.44,0-0.39,0.85-0.39,1.11c0,0.27-0.05,1.12,0.39,1.12C111.74,274.09,111.71,273.22,111.71,272.97z"/>
	<path d="M114.1,272.03c-0.11-0.1-0.3-0.17-0.44-0.17c-0.22,0-0.4,0.13-0.4,0.34c0.01,0.54,1,0.56,1,1.47
		c0,0.56-0.35,0.95-0.92,0.95c-0.21,0-0.34-0.04-0.52-0.15v-0.58c0.15,0.12,0.29,0.2,0.49,0.2c0.26,0,0.4-0.16,0.4-0.4
		c0-0.56-1-0.6-1-1.48c0-0.5,0.35-0.87,0.85-0.87c0.2,0,0.37,0.04,0.54,0.14V272.03z"/>
	<path d="M115.42,270.48v0.9h0.32v0.47h-0.32v2.72h-0.59v-2.72h-0.32v-0.47h0.32v-0.9H115.42z"/>
	<path d="M117.43,274.16h-0.01c-0.12,0.28-0.25,0.46-0.59,0.46c-0.74,0-0.75-1.17-0.75-1.69c0-0.53,0.02-1.6,0.77-1.6
		c0.28,0,0.46,0.17,0.57,0.4h0.01v-0.35h0.59v3.19h-0.59V274.16z M117.45,272.97c0-0.25,0.02-1.11-0.37-1.11
		c-0.44,0-0.39,0.85-0.39,1.11c0,0.27-0.05,1.12,0.39,1.12C117.47,274.09,117.45,273.22,117.45,272.97z"/>
	<path d="M119.22,274.57h-0.59v-5.24h0.59V274.57z"/>
	<path d="M122.44,274.16h-0.01c-0.12,0.28-0.25,0.46-0.59,0.46c-0.74,0-0.75-1.17-0.75-1.69c0-0.53,0.02-1.6,0.77-1.6
		c0.28,0,0.46,0.17,0.57,0.4h0.01v-0.35h0.59v3.19h-0.59V274.16z M122.46,272.97c0-0.25,0.02-1.11-0.37-1.11
		c-0.44,0-0.39,0.85-0.39,1.11c0,0.27-0.05,1.12,0.39,1.12C122.49,274.09,122.46,273.22,122.46,272.97z"/>
	<path d="M125.5,275.88h-0.59v-1.67h-0.01c-0.06,0.13-0.13,0.23-0.21,0.3s-0.2,0.11-0.35,0.11c-0.75,0-0.77-1.07-0.77-1.61
		c0-0.52,0.01-1.68,0.75-1.68c0.33,0,0.47,0.18,0.59,0.46h0.01v-0.41h0.59V275.88z M124.93,272.98c0-0.26,0.02-1.12-0.37-1.12
		c-0.44,0-0.39,0.85-0.39,1.12c0,0.26-0.05,1.11,0.39,1.11C124.95,274.09,124.93,273.23,124.93,272.98z"/>
	<path d="M126.71,271.38v2c0,0.29-0.04,0.7,0.37,0.7c0.4,0,0.35-0.38,0.35-0.67v-2.03h0.59v2.15c0,0.66-0.2,1.09-0.92,1.09
		c-0.87,0-0.99-0.49-0.99-1.21v-2.03H126.71z"/>
	<path d="M129.89,274.16h-0.01c-0.12,0.28-0.25,0.46-0.59,0.46c-0.74,0-0.75-1.17-0.75-1.69c0-0.53,0.02-1.6,0.77-1.6
		c0.28,0,0.46,0.17,0.57,0.4h0.01v-0.35h0.59v3.19h-0.59V274.16z M129.91,272.97c0-0.25,0.02-1.11-0.37-1.11
		c-0.44,0-0.39,0.85-0.39,1.11c0,0.27-0.05,1.12,0.39,1.12C129.94,274.09,129.91,273.22,129.91,272.97z"/>
	<path d="M132.43,272.04h-0.01c-0.06-0.09-0.15-0.15-0.28-0.15c-0.51,0.01-0.52,0.72-0.52,1.06c0,0.32,0.01,1.12,0.51,1.12
		c0.13,0,0.21-0.05,0.3-0.12v0.55c-0.15,0.09-0.3,0.13-0.48,0.13c-0.84,0-0.94-0.99-0.94-1.62c0-0.66,0.08-1.67,0.95-1.67
		c0.18,0,0.32,0.03,0.47,0.11V272.04z"/>
	<path d="M133.51,271.38v2c0,0.29-0.04,0.7,0.37,0.7c0.4,0,0.35-0.38,0.35-0.67v-2.03h0.59v2.15c0,0.66-0.2,1.09-0.92,1.09
		c-0.87,0-0.99-0.49-0.99-1.21v-2.03H133.51z"/>
	<path d="M136.03,274.57h-0.59v-5.24h0.59V274.57z"/>
	<path d="M137.35,270.48v0.9h0.32v0.47h-0.32v2.72h-0.59v-2.72h-0.32v-0.47h0.32v-0.9H137.35z"/>
	<path d="M138.69,271.38v2c0,0.29-0.04,0.7,0.37,0.7c0.4,0,0.35-0.38,0.35-0.67v-2.03H140v2.15c0,0.66-0.2,1.09-0.92,1.09
		c-0.87,0-0.99-0.49-0.99-1.21v-2.03H138.69z"/>
	<path d="M141.21,271.77h0.01c0.14-0.28,0.35-0.44,0.68-0.44v0.59l-0.1-0.01c-0.44,0-0.58,0.25-0.58,0.65v2.01h-0.6v-3.19h0.59
		V271.77z"/>
	<path d="M142.89,273.09c0,0.27-0.01,1,0.37,1c0.32,0,0.37-0.35,0.37-0.59h0.55c0,0.59-0.26,1.12-0.93,1.12
		c-0.89,0-0.97-0.95-0.97-1.62c0-0.65,0.08-1.67,0.95-1.67c0.87,0,0.97,1.01,0.97,1.67v0.09H142.89z M143.6,272.67
		c0-0.25,0-0.81-0.36-0.81c-0.37,0-0.35,0.56-0.35,0.81H143.6z"/>
	<path d="M145.37,275.28l-0.59-0.15c0.33-0.85,0.55-1.79,0.55-2.7c0-0.84-0.25-1.75-0.55-2.55l0.59-0.15
		c0.37,0.86,0.56,1.8,0.56,2.73C145.93,273.42,145.73,274.4,145.37,275.28z"/>
</g>
<rect x="156.16" y="250.57" fill="#0088A2" width="5.6" height="5.6"/>
<g>
	<path d="M165.79,250.68l0.68,3.44h0.01l0.02-0.2l0.19-1.14l0.41-2.1h0.56l0.44,4.76h-0.62l-0.11-1.78l-0.04-0.88l-0.01-0.63h-0.01
		l-0.11,0.68l-0.49,2.6h-0.44l-0.61-3.29h-0.01l-0.18,3.29h-0.6l0.39-4.76H165.79z"/>
	<path d="M168.5,253.85c0-0.69,0.09-1.65,1-1.65s1,0.96,1,1.65c0,0.67-0.09,1.64-1,1.64S168.5,254.52,168.5,253.85z M169.9,253.85
		c0-0.25,0.06-1.11-0.4-1.11c-0.45,0-0.4,0.86-0.4,1.11c0,0.23-0.06,1.09,0.4,1.09C169.96,254.95,169.9,254.08,169.9,253.85z"/>
	<path d="M171.61,255.44h-0.59v-5.24h0.59V255.44z"/>
	<path d="M172.81,255.44h-0.59v-5.24h0.59V255.44z"/>
	<path d="M174.01,252.25v2c0,0.29-0.04,0.7,0.37,0.7c0.4,0,0.35-0.38,0.35-0.67v-2.03h0.59v2.15c0,0.66-0.2,1.09-0.92,1.09
		c-0.87,0-0.99-0.49-0.99-1.21v-2.03H174.01z"/>
	<path d="M177.14,252.9c-0.11-0.1-0.3-0.17-0.44-0.17c-0.22,0-0.4,0.13-0.4,0.34c0.01,0.54,1,0.56,1,1.47
		c0,0.56-0.35,0.95-0.92,0.95c-0.21,0-0.34-0.04-0.52-0.15v-0.58c0.15,0.12,0.29,0.2,0.49,0.2c0.26,0,0.4-0.16,0.4-0.4
		c0-0.56-1-0.6-1-1.48c0-0.5,0.35-0.87,0.85-0.87c0.2,0,0.37,0.04,0.54,0.14V252.9z"/>
	<path d="M179.08,252.91h-0.01c-0.06-0.09-0.15-0.15-0.28-0.15c-0.51,0.01-0.52,0.72-0.52,1.06c0,0.32,0.01,1.12,0.51,1.12
		c0.13,0,0.21-0.05,0.3-0.12v0.55c-0.15,0.09-0.3,0.13-0.48,0.13c-0.84,0-0.94-0.99-0.94-1.62c0-0.66,0.08-1.67,0.95-1.67
		c0.18,0,0.32,0.03,0.47,0.11V252.91z"/>
	<path d="M180.77,252.9c-0.11-0.1-0.3-0.17-0.44-0.17c-0.22,0-0.4,0.13-0.4,0.34c0.01,0.54,1,0.56,1,1.47
		c0,0.56-0.35,0.95-0.92,0.95c-0.21,0-0.34-0.04-0.52-0.15v-0.58c0.15,0.12,0.29,0.2,0.49,0.2c0.26,0,0.4-0.16,0.4-0.4
		c0-0.56-1-0.6-1-1.48c0-0.5,0.35-0.87,0.85-0.87c0.2,0,0.37,0.04,0.54,0.14V252.9z"/>
	<path d="M183.87,250.76c-0.3,0.8-0.55,1.71-0.55,2.55c0,0.9,0.22,1.85,0.55,2.7l-0.59,0.15c-0.36-0.88-0.56-1.86-0.56-2.81
		c0-0.93,0.19-1.87,0.56-2.73L183.87,250.76z"/>
	<path d="M185.8,255.03h-0.01c-0.12,0.28-0.25,0.46-0.59,0.46c-0.74,0-0.75-1.17-0.75-1.69c0-0.53,0.02-1.6,0.77-1.6
		c0.28,0,0.46,0.17,0.57,0.4h0.01v-0.35h0.59v3.19h-0.59V255.03z M185.82,253.84c0-0.25,0.02-1.11-0.37-1.11
		c-0.44,0-0.39,0.85-0.39,1.11c0,0.27-0.05,1.12,0.39,1.12C185.84,254.96,185.82,254.09,185.82,253.84z"/>
	<path d="M187.59,255.44H187v-5.24h0.59V255.44z"/>
	<path d="M188.79,255.44h-0.59v-5.24h0.59V255.44z"/>
	<path d="M192.02,255.03H192c-0.12,0.28-0.25,0.46-0.59,0.46c-0.74,0-0.75-1.17-0.75-1.69c0-0.53,0.02-1.6,0.77-1.6
		c0.28,0,0.46,0.17,0.57,0.4h0.01v-0.35h0.59v3.19h-0.59V255.03z M192.04,253.84c0-0.25,0.02-1.11-0.37-1.11
		c-0.44,0-0.39,0.85-0.39,1.11c0,0.27-0.05,1.12,0.39,1.12C192.06,254.96,192.04,254.09,192.04,253.84z"/>
	<path d="M195.07,256.75h-0.59v-1.67h-0.01c-0.06,0.13-0.13,0.23-0.21,0.3s-0.2,0.11-0.35,0.11c-0.75,0-0.77-1.07-0.77-1.61
		c0-0.52,0.01-1.68,0.75-1.68c0.33,0,0.47,0.18,0.59,0.46h0.01v-0.41h0.59V256.75z M194.5,253.85c0-0.26,0.02-1.12-0.37-1.12
		c-0.44,0-0.39,0.85-0.39,1.12c0,0.26-0.05,1.11,0.39,1.11C194.52,254.96,194.5,254.1,194.5,253.85z"/>
	<path d="M196.28,252.25v2c0,0.29-0.04,0.7,0.37,0.7c0.4,0,0.35-0.38,0.35-0.67v-2.03h0.59v2.15c0,0.66-0.2,1.09-0.92,1.09
		c-0.87,0-0.99-0.49-0.99-1.21v-2.03H196.28z"/>
	<path d="M199.47,255.03h-0.01c-0.12,0.28-0.25,0.46-0.59,0.46c-0.74,0-0.75-1.17-0.75-1.69c0-0.53,0.02-1.6,0.77-1.6
		c0.28,0,0.46,0.17,0.57,0.4h0.01v-0.35h0.59v3.19h-0.59V255.03z M199.49,253.84c0-0.25,0.02-1.11-0.37-1.11
		c-0.44,0-0.39,0.85-0.39,1.11c0,0.27-0.05,1.12,0.39,1.12C199.51,254.96,199.49,254.09,199.49,253.84z"/>
	<path d="M202,252.91h-0.01c-0.06-0.09-0.15-0.15-0.28-0.15c-0.51,0.01-0.52,0.72-0.52,1.06c0,0.32,0.01,1.12,0.51,1.12
		c0.13,0,0.21-0.05,0.3-0.12v0.55c-0.15,0.09-0.3,0.13-0.48,0.13c-0.84,0-0.94-0.99-0.94-1.62c0-0.66,0.08-1.67,0.95-1.67
		c0.18,0,0.32,0.03,0.47,0.11V252.91z"/>
	<path d="M203.09,252.25v2c0,0.29-0.04,0.7,0.37,0.7c0.4,0,0.35-0.38,0.35-0.67v-2.03h0.59v2.15c0,0.66-0.2,1.09-0.92,1.09
		c-0.87,0-0.99-0.49-0.99-1.21v-2.03H203.09z"/>
	<path d="M205.6,255.44h-0.59v-5.24h0.59V255.44z"/>
	<path d="M206.92,251.34v0.9h0.32v0.47h-0.32v2.72h-0.59v-2.72h-0.32v-0.47h0.32v-0.9H206.92z"/>
	<path d="M208.26,252.25v2c0,0.29-0.04,0.7,0.37,0.7c0.4,0,0.35-0.38,0.35-0.67v-2.03h0.59v2.15c0,0.66-0.2,1.09-0.92,1.09
		c-0.87,0-0.99-0.49-0.99-1.21v-2.03H208.26z"/>
	<path d="M210.78,252.64h0.01c0.14-0.28,0.35-0.44,0.68-0.44v0.59l-0.1-0.01c-0.44,0-0.58,0.25-0.58,0.65v2.01h-0.6v-3.19h0.59
		V252.64z"/>
	<path d="M212.46,253.96c0,0.27-0.01,1,0.37,1c0.32,0,0.37-0.35,0.37-0.59h0.55c0,0.59-0.26,1.12-0.93,1.12
		c-0.89,0-0.97-0.95-0.97-1.62c0-0.65,0.08-1.67,0.96-1.67c0.87,0,0.97,1.01,0.97,1.67v0.09H212.46z M213.17,253.54
		c0-0.25,0-0.81-0.36-0.81c-0.37,0-0.35,0.56-0.35,0.81H213.17z"/>
	<path d="M214.94,256.15l-0.59-0.15c0.33-0.85,0.55-1.79,0.55-2.7c0-0.84-0.25-1.75-0.55-2.55l0.59-0.15
		c0.37,0.86,0.56,1.8,0.56,2.73C215.5,254.29,215.29,255.27,214.94,256.15z"/>
</g>
<rect x="156.34" y="260.05" fill="#B73834" width="5.6" height="5.6"/>
<g>
	<path d="M166.67,260.15v0.55h-1.08v1.5h0.97v0.55h-0.97v2.17h-0.63v-4.76H166.67z"/>
	<path d="M166.97,260.76c0-0.21,0.18-0.39,0.4-0.39c0.21,0,0.39,0.18,0.39,0.39c0,0.22-0.18,0.4-0.39,0.4
		C167.14,261.16,166.97,260.98,166.97,260.76z M167.65,264.92h-0.59v-3.19h0.59V264.92z"/>
	<path d="M168.86,262.09h0.01c0.07-0.13,0.15-0.23,0.25-0.3c0.11-0.08,0.23-0.11,0.39-0.11c0.63,0,0.65,0.56,0.65,1.05v2.19h-0.59
		v-2.21c0-0.22-0.04-0.5-0.35-0.5c-0.39,0-0.36,0.45-0.36,0.72v1.99h-0.59v-3.19h0.59V262.09z"/>
	<path d="M170.93,261.73v-1.03c0-0.54,0.04-1.07,0.72-1.07c0.15,0,0.27,0.03,0.4,0.09v0.62c-0.08-0.04-0.15-0.08-0.25-0.08
		c-0.3,0-0.28,0.3-0.28,0.51v0.96h0.49v0.47h-0.49v2.72h-0.59v-2.72h-0.3v-0.47H170.93z M172.33,260.76c0-0.21,0.18-0.39,0.4-0.39
		c0.21,0,0.39,0.18,0.39,0.39c0,0.22-0.18,0.4-0.39,0.4C172.51,261.16,172.33,260.98,172.33,260.76z M173.04,264.92h-0.59v-3.19
		h0.59V264.92z"/>
	<path d="M174.94,262.38c-0.11-0.1-0.3-0.17-0.44-0.17c-0.22,0-0.4,0.13-0.4,0.34c0.01,0.54,1,0.56,1,1.47
		c0,0.56-0.35,0.95-0.92,0.95c-0.21,0-0.34-0.04-0.52-0.15v-0.58c0.15,0.12,0.29,0.2,0.49,0.2c0.26,0,0.4-0.16,0.4-0.4
		c0-0.56-1-0.6-1-1.48c0-0.5,0.35-0.87,0.85-0.87c0.2,0,0.37,0.04,0.54,0.14V262.38z"/>
	<path d="M176.14,259.67v2.42h0.01c0.07-0.13,0.15-0.23,0.25-0.3c0.11-0.08,0.23-0.11,0.39-0.11c0.64,0,0.65,0.56,0.65,1.05v2.19
		h-0.59v-2.21c0-0.22-0.04-0.5-0.35-0.5c-0.39,0-0.36,0.45-0.36,0.72v1.99h-0.59v-5.24H176.14z"/>
	<path d="M180.55,260.24c-0.3,0.8-0.55,1.71-0.55,2.55c0,0.9,0.22,1.85,0.55,2.7l-0.59,0.15c-0.36-0.88-0.56-1.86-0.56-2.81
		c0-0.93,0.19-1.87,0.56-2.73L180.55,260.24z"/>
	<path d="M181.82,262.12h0.01c0.12-0.26,0.32-0.44,0.63-0.44c0.28,0,0.51,0.16,0.57,0.44h0.01c0.13-0.28,0.33-0.44,0.66-0.44
		c0.56,0,0.7,0.35,0.7,0.77v2.47h-0.59v-2.24c0-0.23-0.03-0.47-0.32-0.47c-0.42,0-0.38,0.4-0.38,0.68v2.03h-0.59v-2.17
		c-0.01-0.25,0-0.54-0.34-0.54c-0.37,0-0.35,0.41-0.36,0.68v2.03h-0.59v-3.19h0.6V262.12z"/>
	<path d="M186.28,264.51h-0.01c-0.12,0.28-0.25,0.46-0.59,0.46c-0.74,0-0.75-1.17-0.75-1.69c0-0.53,0.02-1.6,0.77-1.6
		c0.28,0,0.46,0.17,0.57,0.4h0.01v-0.35h0.59v3.19h-0.59V264.51z M186.29,263.32c0-0.25,0.02-1.11-0.37-1.11
		c-0.44,0-0.39,0.85-0.39,1.11c0,0.27-0.05,1.12,0.39,1.12C186.32,264.44,186.29,263.57,186.29,263.32z"/>
	<path d="M188.08,262.12h0.01c0.14-0.28,0.35-0.44,0.68-0.44v0.59l-0.1-0.01c-0.44,0-0.58,0.25-0.58,0.65v2.01h-0.6v-3.19h0.59
		V262.12z"/>
	<path d="M189.15,260.76c0-0.21,0.18-0.39,0.4-0.39c0.21,0,0.39,0.18,0.39,0.39c0,0.22-0.18,0.4-0.39,0.4
		C189.32,261.16,189.15,260.98,189.15,260.76z M189.83,264.92h-0.59v-3.19h0.59V264.92z"/>
	<path d="M191.03,262.09h0.01c0.07-0.13,0.15-0.23,0.25-0.3c0.11-0.08,0.23-0.11,0.39-0.11c0.63,0,0.65,0.56,0.65,1.05v2.19h-0.59
		v-2.21c0-0.22-0.04-0.5-0.35-0.5c-0.39,0-0.36,0.45-0.36,0.72v1.99h-0.59v-3.19h0.59V262.09z"/>
	<path d="M193.47,263.44c0,0.27-0.01,1,0.37,1c0.32,0,0.37-0.35,0.37-0.59h0.55c0,0.59-0.26,1.12-0.93,1.12
		c-0.89,0-0.97-0.95-0.97-1.62c0-0.65,0.08-1.67,0.95-1.67c0.87,0,0.97,1.01,0.97,1.67v0.09H193.47z M194.17,263.02
		c0-0.25,0-0.81-0.36-0.81c-0.37,0-0.35,0.56-0.35,0.81H194.17z"/>
	<path d="M197.91,264.51h-0.01c-0.12,0.28-0.25,0.46-0.59,0.46c-0.74,0-0.75-1.17-0.75-1.69c0-0.53,0.02-1.6,0.77-1.6
		c0.28,0,0.46,0.17,0.57,0.4h0.01v-0.35h0.59v3.19h-0.59V264.51z M197.93,263.32c0-0.25,0.02-1.11-0.37-1.11
		c-0.44,0-0.39,0.85-0.39,1.11c0,0.27-0.05,1.12,0.39,1.12C197.95,264.44,197.93,263.57,197.93,263.32z"/>
	<path d="M199.71,262.09h0.01c0.07-0.13,0.15-0.23,0.25-0.3c0.11-0.08,0.23-0.11,0.39-0.11c0.63,0,0.65,0.56,0.65,1.05v2.19h-0.59
		v-2.21c0-0.22-0.04-0.5-0.35-0.5c-0.39,0-0.36,0.45-0.36,0.72v1.99h-0.59v-3.19h0.59V262.09z"/>
	<path d="M202.89,264.51h-0.01c-0.12,0.28-0.25,0.46-0.59,0.46c-0.74,0-0.75-1.17-0.75-1.69c0-0.53,0.02-1.6,0.77-1.6
		c0.3,0,0.45,0.16,0.57,0.4h0.01v-2.41h0.59v5.24h-0.59V264.51z M202.91,263.32c0-0.25,0.02-1.11-0.37-1.11
		c-0.44,0-0.39,0.85-0.39,1.11c0,0.27-0.05,1.12,0.39,1.12C202.93,264.44,202.91,263.57,202.91,263.32z"/>
	<path d="M206.78,262.38h-0.01c-0.06-0.09-0.14-0.15-0.28-0.15c-0.51,0.01-0.53,0.72-0.53,1.06c0,0.32,0.01,1.12,0.51,1.12
		c0.13,0,0.21-0.05,0.3-0.12v0.55c-0.15,0.09-0.3,0.13-0.48,0.13c-0.84,0-0.94-0.99-0.94-1.62c0-0.66,0.08-1.67,0.95-1.67
		c0.18,0,0.32,0.03,0.47,0.11V262.38z"/>
	<path d="M207.18,263.33c0-0.69,0.09-1.65,1-1.65s1,0.96,1,1.65c0,0.67-0.09,1.64-1,1.64S207.18,264,207.18,263.33z M208.58,263.33
		c0-0.25,0.06-1.11-0.4-1.11s-0.4,0.86-0.4,1.11c0,0.23-0.06,1.09,0.4,1.09S208.58,263.56,208.58,263.33z"/>
	<path d="M210.96,264.51h-0.01c-0.12,0.28-0.25,0.46-0.59,0.46c-0.74,0-0.75-1.17-0.75-1.69c0-0.53,0.02-1.6,0.77-1.6
		c0.28,0,0.46,0.17,0.57,0.4h0.01v-0.35h0.59v3.19h-0.59V264.51z M210.98,263.32c0-0.25,0.03-1.11-0.37-1.11
		c-0.44,0-0.39,0.85-0.39,1.11c0,0.27-0.05,1.12,0.39,1.12C211.01,264.44,210.98,263.57,210.98,263.32z"/>
	<path d="M213.37,262.38c-0.11-0.1-0.3-0.17-0.44-0.17c-0.22,0-0.4,0.13-0.4,0.34c0.01,0.54,1,0.56,1,1.47
		c0,0.56-0.35,0.95-0.92,0.95c-0.21,0-0.34-0.04-0.52-0.15v-0.58c0.15,0.12,0.29,0.2,0.49,0.2c0.26,0,0.4-0.16,0.4-0.4
		c0-0.56-1-0.6-1-1.48c0-0.5,0.35-0.87,0.85-0.87c0.2,0,0.37,0.04,0.54,0.14V262.38z"/>
	<path d="M214.69,260.82v0.9h0.32v0.47h-0.32v2.72h-0.59v-2.72h-0.32v-0.47h0.32v-0.9H214.69z"/>
	<path d="M216.7,264.51h-0.01c-0.12,0.28-0.25,0.46-0.59,0.46c-0.74,0-0.75-1.17-0.75-1.69c0-0.53,0.02-1.6,0.77-1.6
		c0.28,0,0.46,0.17,0.57,0.4h0.01v-0.35h0.59v3.19h-0.59V264.51z M216.71,263.32c0-0.25,0.02-1.11-0.37-1.11
		c-0.44,0-0.39,0.85-0.39,1.11c0,0.27-0.05,1.12,0.39,1.12C216.74,264.44,216.71,263.57,216.71,263.32z"/>
	<path d="M218.49,264.92h-0.59v-5.24h0.59V264.92z"/>
	<path d="M221.72,264.51h-0.01c-0.12,0.28-0.25,0.46-0.59,0.46c-0.74,0-0.75-1.17-0.75-1.69c0-0.53,0.02-1.6,0.77-1.6
		c0.28,0,0.46,0.17,0.57,0.4h0.01v-0.35h0.59v3.19h-0.59V264.51z M221.74,263.32c0-0.25,0.02-1.11-0.37-1.11
		c-0.44,0-0.39,0.85-0.39,1.11c0,0.27-0.05,1.12,0.39,1.12C221.76,264.44,221.74,263.57,221.74,263.32z"/>
	<path d="M224.78,266.22h-0.59v-1.67h-0.01c-0.06,0.13-0.13,0.23-0.21,0.3c-0.09,0.07-0.2,0.11-0.35,0.11
		c-0.75,0-0.77-1.07-0.77-1.61c0-0.52,0.01-1.68,0.75-1.68c0.33,0,0.47,0.18,0.59,0.46h0.01v-0.41h0.59V266.22z M224.2,263.33
		c0-0.26,0.02-1.12-0.37-1.12c-0.44,0-0.39,0.85-0.39,1.12c0,0.26-0.05,1.11,0.39,1.11C224.23,264.44,224.2,263.58,224.2,263.33z"/>
	<path d="M225.98,261.73v2c0,0.29-0.04,0.7,0.37,0.7c0.4,0,0.35-0.38,0.35-0.67v-2.03h0.59v2.15c0,0.66-0.2,1.09-0.92,1.09
		c-0.87,0-0.99-0.49-0.99-1.21v-2.03H225.98z"/>
	<path d="M229.17,264.51h-0.01c-0.12,0.28-0.25,0.46-0.59,0.46c-0.74,0-0.75-1.17-0.75-1.69c0-0.53,0.02-1.6,0.77-1.6
		c0.28,0,0.46,0.17,0.57,0.4h0.01v-0.35h0.59v3.19h-0.59V264.51z M229.19,263.32c0-0.25,0.03-1.11-0.37-1.11
		c-0.44,0-0.39,0.85-0.39,1.11c0,0.27-0.05,1.12,0.39,1.12C229.21,264.44,229.19,263.57,229.19,263.32z"/>
	<path d="M231.7,262.38h-0.01c-0.06-0.09-0.14-0.15-0.28-0.15c-0.51,0.01-0.53,0.72-0.53,1.06c0,0.32,0.01,1.12,0.51,1.12
		c0.13,0,0.21-0.05,0.3-0.12v0.55c-0.15,0.09-0.3,0.13-0.48,0.13c-0.84,0-0.94-0.99-0.94-1.62c0-0.66,0.08-1.67,0.95-1.67
		c0.18,0,0.32,0.03,0.47,0.11V262.38z"/>
	<path d="M232.78,261.73v2c0,0.29-0.04,0.7,0.37,0.7c0.4,0,0.35-0.38,0.35-0.67v-2.03h0.59v2.15c0,0.66-0.2,1.09-0.92,1.09
		c-0.87,0-0.99-0.49-0.99-1.21v-2.03H232.78z"/>
	<path d="M235.3,264.92h-0.59v-5.24h0.59V264.92z"/>
	<path d="M236.62,260.82v0.9h0.32v0.47h-0.32v2.72h-0.59v-2.72h-0.32v-0.47h0.32v-0.9H236.62z"/>
	<path d="M237.96,261.73v2c0,0.29-0.04,0.7,0.37,0.7c0.4,0,0.35-0.38,0.35-0.67v-2.03h0.59v2.15c0,0.66-0.2,1.09-0.92,1.09
		c-0.87,0-0.99-0.49-0.99-1.21v-2.03H237.96z"/>
	<path d="M240.48,262.12h0.01c0.14-0.28,0.35-0.44,0.68-0.44v0.59l-0.1-0.01c-0.44,0-0.58,0.25-0.58,0.65v2.01h-0.6v-3.19h0.59
		V262.12z"/>
	<path d="M242.16,263.44c0,0.27-0.01,1,0.37,1c0.32,0,0.37-0.35,0.37-0.59h0.55c0,0.59-0.26,1.12-0.93,1.12
		c-0.89,0-0.97-0.95-0.97-1.62c0-0.65,0.08-1.67,0.95-1.67c0.87,0,0.97,1.01,0.97,1.67v0.09H242.16z M242.87,263.02
		c0-0.25,0-0.81-0.36-0.81c-0.37,0-0.35,0.56-0.35,0.81H242.87z"/>
	<path d="M244.64,265.63l-0.59-0.15c0.33-0.85,0.55-1.79,0.55-2.7c0-0.84-0.25-1.75-0.55-2.55l0.59-0.15
		c0.37,0.86,0.56,1.8,0.56,2.73C245.2,263.77,245,264.75,244.64,265.63z"/>
</g>
<rect x="156.34" y="269.72" fill="#7AADBF" width="5.6" height="5.6"/>
<g>
	<path d="M166.67,269.82v0.55h-1.08v1.5h0.97v0.55h-0.97v2.17h-0.63v-4.76H166.67z"/>
	<path d="M166.97,270.42c0-0.21,0.18-0.39,0.4-0.39c0.21,0,0.39,0.18,0.39,0.39c0,0.22-0.18,0.4-0.39,0.4
		C167.14,270.82,166.97,270.64,166.97,270.42z M167.65,274.58h-0.59v-3.19h0.59V274.58z"/>
	<path d="M168.86,271.76h0.01c0.07-0.13,0.15-0.23,0.25-0.3c0.11-0.08,0.23-0.11,0.39-0.11c0.63,0,0.65,0.56,0.65,1.05v2.19h-0.59
		v-2.21c0-0.22-0.04-0.5-0.35-0.5c-0.39,0-0.36,0.45-0.36,0.72v1.99h-0.59v-3.19h0.59V271.76z"/>
	<path d="M170.93,271.39v-1.03c0-0.54,0.04-1.07,0.72-1.07c0.15,0,0.27,0.03,0.4,0.09v0.62c-0.08-0.04-0.15-0.08-0.25-0.08
		c-0.3,0-0.28,0.3-0.28,0.51v0.96h0.49v0.47h-0.49v2.72h-0.59v-2.72h-0.3v-0.47H170.93z M172.33,270.42c0-0.21,0.18-0.39,0.4-0.39
		c0.21,0,0.39,0.18,0.39,0.39c0,0.22-0.18,0.4-0.39,0.4C172.51,270.82,172.33,270.64,172.33,270.42z M173.04,274.58h-0.59v-3.19
		h0.59V274.58z"/>
	<path d="M174.94,272.04c-0.11-0.1-0.3-0.17-0.44-0.17c-0.22,0-0.4,0.13-0.4,0.34c0.01,0.54,1,0.56,1,1.47
		c0,0.56-0.35,0.95-0.92,0.95c-0.21,0-0.34-0.04-0.52-0.15v-0.58c0.15,0.12,0.29,0.2,0.49,0.2c0.26,0,0.4-0.16,0.4-0.4
		c0-0.56-1-0.6-1-1.48c0-0.5,0.35-0.87,0.85-0.87c0.2,0,0.37,0.04,0.54,0.14V272.04z"/>
	<path d="M176.14,269.34v2.42h0.01c0.07-0.13,0.15-0.23,0.25-0.3c0.11-0.08,0.23-0.11,0.39-0.11c0.64,0,0.65,0.56,0.65,1.05v2.19
		h-0.59v-2.21c0-0.22-0.04-0.5-0.35-0.5c-0.39,0-0.36,0.45-0.36,0.72v1.99h-0.59v-5.24H176.14z"/>
	<path d="M180.55,269.9c-0.3,0.8-0.55,1.71-0.55,2.55c0,0.9,0.22,1.85,0.55,2.7l-0.59,0.15c-0.36-0.88-0.56-1.86-0.56-2.81
		c0-0.93,0.19-1.87,0.56-2.73L180.55,269.9z"/>
	<path d="M181.13,270.42c0-0.21,0.18-0.39,0.4-0.39c0.21,0,0.39,0.18,0.39,0.39c0,0.22-0.18,0.4-0.39,0.4
		C181.3,270.82,181.13,270.64,181.13,270.42z M181.81,274.58h-0.59v-3.19h0.59V274.58z"/>
	<path d="M183.02,271.76h0.01c0.07-0.13,0.15-0.23,0.25-0.3c0.11-0.08,0.23-0.11,0.39-0.11c0.63,0,0.65,0.56,0.65,1.05v2.19h-0.59
		v-2.21c0-0.22-0.04-0.5-0.35-0.5c-0.39,0-0.36,0.45-0.36,0.72v1.99h-0.59v-3.19h0.59V271.76z"/>
	<path d="M185.53,274.58h-0.59v-5.24h0.59V274.58z"/>
	<path d="M187.39,274.17h-0.01c-0.12,0.28-0.25,0.46-0.59,0.46c-0.74,0-0.75-1.17-0.75-1.69c0-0.53,0.02-1.6,0.77-1.6
		c0.28,0,0.46,0.17,0.57,0.4h0.01v-0.35h0.59v3.19h-0.59V274.17z M187.41,272.98c0-0.25,0.02-1.11-0.37-1.11
		c-0.44,0-0.39,0.85-0.39,1.11c0,0.27-0.05,1.12,0.39,1.12C187.44,274.1,187.41,273.23,187.41,272.98z"/>
	<path d="M189.19,271.76h0.01c0.07-0.13,0.15-0.23,0.25-0.3c0.11-0.08,0.23-0.11,0.39-0.11c0.63,0,0.65,0.56,0.65,1.05v2.19h-0.59
		v-2.21c0-0.22-0.04-0.5-0.35-0.5c-0.39,0-0.36,0.45-0.36,0.72v1.99h-0.59v-3.19h0.59V271.76z"/>
	<path d="M192.37,274.17h-0.01c-0.12,0.28-0.25,0.46-0.59,0.46c-0.74,0-0.75-1.17-0.75-1.69c0-0.53,0.02-1.6,0.77-1.6
		c0.3,0,0.45,0.16,0.57,0.4h0.01v-2.41h0.59v5.24h-0.59V274.17z M192.39,272.98c0-0.25,0.02-1.11-0.37-1.11
		c-0.44,0-0.39,0.85-0.39,1.11c0,0.27-0.05,1.12,0.39,1.12C192.42,274.1,192.39,273.23,192.39,272.98z"/>
	<path d="M196.2,274.17h-0.01c-0.12,0.28-0.25,0.46-0.59,0.46c-0.74,0-0.75-1.17-0.75-1.69c0-0.53,0.02-1.6,0.77-1.6
		c0.28,0,0.46,0.17,0.57,0.4h0.01v-0.35h0.59v3.19h-0.59V274.17z M196.22,272.98c0-0.25,0.02-1.11-0.37-1.11
		c-0.44,0-0.39,0.85-0.39,1.11c0,0.27-0.05,1.12,0.39,1.12C196.24,274.1,196.22,273.23,196.22,272.98z"/>
	<path d="M199.25,275.89h-0.59v-1.67h-0.01c-0.06,0.13-0.13,0.23-0.21,0.3s-0.2,0.11-0.35,0.11c-0.75,0-0.77-1.07-0.77-1.61
		c0-0.52,0.01-1.68,0.75-1.68c0.33,0,0.47,0.18,0.59,0.46h0.01v-0.41h0.59V275.89z M198.68,272.99c0-0.26,0.02-1.12-0.37-1.12
		c-0.44,0-0.39,0.85-0.39,1.12c0,0.26-0.05,1.11,0.39,1.11C198.7,274.1,198.68,273.24,198.68,272.99z"/>
	<path d="M200.46,271.39v2c0,0.28-0.04,0.7,0.37,0.7c0.4,0,0.35-0.38,0.35-0.67v-2.03h0.59v2.15c0,0.66-0.2,1.09-0.92,1.09
		c-0.87,0-0.99-0.49-0.99-1.21v-2.03H200.46z"/>
	<path d="M203.65,274.17h-0.01c-0.12,0.28-0.25,0.46-0.59,0.46c-0.74,0-0.75-1.17-0.75-1.69c0-0.53,0.02-1.6,0.77-1.6
		c0.28,0,0.46,0.17,0.57,0.4h0.01v-0.35h0.59v3.19h-0.59V274.17z M203.67,272.98c0-0.25,0.02-1.11-0.37-1.11
		c-0.44,0-0.39,0.85-0.39,1.11c0,0.27-0.05,1.12,0.39,1.12C203.69,274.1,203.67,273.23,203.67,272.98z"/>
	<path d="M206.18,272.05h-0.01c-0.06-0.09-0.15-0.15-0.28-0.15c-0.51,0.01-0.52,0.72-0.52,1.06c0,0.32,0.01,1.12,0.51,1.12
		c0.13,0,0.21-0.05,0.3-0.12v0.55c-0.15,0.09-0.3,0.13-0.48,0.13c-0.84,0-0.94-0.99-0.94-1.62c0-0.66,0.08-1.67,0.95-1.67
		c0.18,0,0.32,0.03,0.47,0.11V272.05z"/>
	<path d="M207.27,271.39v2c0,0.28-0.04,0.7,0.37,0.7c0.4,0,0.35-0.38,0.35-0.67v-2.03h0.59v2.15c0,0.66-0.2,1.09-0.92,1.09
		c-0.87,0-0.99-0.49-0.99-1.21v-2.03H207.27z"/>
	<path d="M209.78,274.58h-0.59v-5.24h0.59V274.58z"/>
	<path d="M211.1,270.49v0.9h0.32v0.47h-0.32v2.72h-0.59v-2.72h-0.32v-0.47h0.32v-0.9H211.1z"/>
	<path d="M212.44,271.39v2c0,0.28-0.04,0.7,0.37,0.7c0.4,0,0.35-0.38,0.35-0.67v-2.03h0.59v2.15c0,0.66-0.2,1.09-0.92,1.09
		c-0.87,0-0.99-0.49-0.99-1.21v-2.03H212.44z"/>
	<path d="M214.96,271.78h0.01c0.14-0.28,0.35-0.44,0.68-0.44v0.59l-0.1-0.01c-0.44,0-0.58,0.25-0.58,0.65v2.01h-0.6v-3.19h0.59
		V271.78z"/>
	<path d="M216.64,273.1c0,0.27-0.01,1,0.37,1c0.32,0,0.37-0.35,0.37-0.59h0.55c0,0.59-0.26,1.12-0.93,1.12
		c-0.89,0-0.97-0.95-0.97-1.62c0-0.65,0.08-1.67,0.95-1.67c0.87,0,0.97,1.01,0.97,1.67v0.09H216.64z M217.35,272.68
		c0-0.25,0-0.81-0.36-0.81c-0.37,0-0.35,0.56-0.35,0.81H217.35z"/>
	<path d="M219.12,275.29l-0.59-0.15c0.33-0.85,0.55-1.79,0.55-2.7c0-0.84-0.25-1.75-0.55-2.55l0.59-0.15
		c0.37,0.86,0.56,1.8,0.56,2.73C219.68,273.43,219.48,274.41,219.12,275.29z"/>
</g>
<rect x="265.41" y="250.57" fill="#005C7E" width="5.6" height="5.6"/>
<g>
	<path d="M275.53,250.68l1.02,4.76h-0.64l-0.18-0.93h-0.95l-0.18,0.93h-0.62l1.04-4.76H275.53z M275.52,253.33l-0.24-1.73h-0.01
		l-0.38,2.42h0.76L275.52,253.33z"/>
	<path d="M278.78,256.75h-0.59v-1.67h-0.01c-0.06,0.13-0.13,0.23-0.21,0.3s-0.2,0.11-0.35,0.11c-0.75,0-0.77-1.07-0.77-1.61
		c0-0.52,0.01-1.68,0.75-1.68c0.33,0,0.47,0.18,0.59,0.46h0.01v-0.41h0.59V256.75z M278.2,253.85c0-0.26,0.02-1.12-0.37-1.12
		c-0.44,0-0.39,0.85-0.39,1.12c0,0.26-0.05,1.11,0.39,1.11C278.23,254.96,278.2,254.1,278.2,253.85z"/>
	<path d="M279.98,252.25v2c0,0.29-0.04,0.7,0.37,0.7c0.4,0,0.35-0.38,0.35-0.67v-2.03h0.59v2.15c0,0.66-0.2,1.09-0.92,1.09
		c-0.87,0-0.99-0.49-0.99-1.21v-2.03H279.98z"/>
	<path d="M283.17,255.03h-0.01c-0.12,0.28-0.25,0.46-0.59,0.46c-0.74,0-0.75-1.17-0.75-1.69c0-0.53,0.02-1.6,0.77-1.6
		c0.28,0,0.46,0.17,0.57,0.4h0.01v-0.35h0.59v3.19h-0.59V255.03z M283.19,253.84c0-0.25,0.02-1.11-0.37-1.11
		c-0.44,0-0.39,0.85-0.39,1.11c0,0.27-0.05,1.12,0.39,1.12C283.21,254.96,283.19,254.09,283.19,253.84z"/>
	<path d="M285.09,251.34v0.9h0.32v0.47h-0.32v2.72h-0.59v-2.72h-0.32v-0.47h0.32v-0.9H285.09z"/>
	<path d="M285.73,251.28c0-0.21,0.18-0.39,0.4-0.39c0.21,0,0.39,0.18,0.39,0.39c0,0.22-0.18,0.4-0.39,0.4
		C285.9,251.68,285.73,251.5,285.73,251.28z M286.42,255.44h-0.59v-3.19h0.59V255.44z"/>
	<path d="M288.36,252.91h-0.01c-0.06-0.09-0.14-0.15-0.28-0.15c-0.51,0.01-0.52,0.72-0.52,1.06c0,0.32,0.01,1.12,0.51,1.12
		c0.13,0,0.21-0.05,0.3-0.12v0.55c-0.15,0.09-0.3,0.13-0.48,0.13c-0.84,0-0.94-0.99-0.94-1.62c0-0.66,0.08-1.67,0.95-1.67
		c0.18,0,0.32,0.03,0.47,0.11V252.91z"/>
	<path d="M290.79,252.66h0.01c0.11-0.27,0.26-0.46,0.59-0.46c0.74,0,0.75,1.16,0.75,1.68c0,0.54-0.02,1.61-0.77,1.61
		c-0.31,0-0.45-0.15-0.57-0.41h-0.01v1.67h-0.59v-4.5h0.59V252.66z M291.53,253.85c0-0.26,0.05-1.12-0.39-1.12
		c-0.4,0-0.37,0.86-0.37,1.12c0,0.25-0.03,1.11,0.37,1.11C291.51,254.96,291.53,254.38,291.53,253.85z"/>
	<path d="M293.25,255.44h-0.59v-5.24h0.59V255.44z"/>
	<path d="M295.12,255.03h-0.01c-0.12,0.28-0.25,0.46-0.59,0.46c-0.74,0-0.75-1.17-0.75-1.69c0-0.53,0.02-1.6,0.77-1.6
		c0.28,0,0.46,0.17,0.57,0.4h0.01v-0.35h0.59v3.19h-0.59V255.03z M295.13,253.84c0-0.25,0.03-1.11-0.37-1.11
		c-0.44,0-0.39,0.85-0.39,1.11c0,0.27-0.05,1.12,0.39,1.12C295.16,254.96,295.13,254.09,295.13,253.84z"/>
	<path d="M296.92,252.61h0.01c0.07-0.13,0.15-0.23,0.25-0.3c0.11-0.08,0.23-0.11,0.39-0.11c0.63,0,0.65,0.56,0.65,1.05v2.19h-0.59
		v-2.21c0-0.22-0.04-0.5-0.35-0.5c-0.39,0-0.36,0.45-0.36,0.72v1.99h-0.59v-3.19h0.59V252.61z"/>
	<path d="M299.55,251.34v0.9h0.32v0.47h-0.32v2.72h-0.59v-2.72h-0.32v-0.47h0.32v-0.9H299.55z"/>
	<path d="M301.5,252.9c-0.11-0.1-0.3-0.17-0.44-0.17c-0.22,0-0.4,0.13-0.4,0.34c0.01,0.54,1,0.56,1,1.47c0,0.56-0.35,0.95-0.92,0.95
		c-0.21,0-0.34-0.04-0.52-0.15v-0.58c0.15,0.12,0.29,0.2,0.49,0.2c0.26,0,0.4-0.16,0.4-0.4c0-0.56-1-0.6-1-1.48
		c0-0.5,0.35-0.87,0.85-0.87c0.2,0,0.37,0.04,0.54,0.14V252.9z"/>
	<path d="M304.59,250.76c-0.3,0.8-0.55,1.71-0.55,2.55c0,0.9,0.22,1.85,0.55,2.7l-0.59,0.15c-0.36-0.88-0.56-1.86-0.56-2.81
		c0-0.93,0.19-1.87,0.56-2.73L304.59,250.76z"/>
	<path d="M306.53,255.03h-0.01c-0.12,0.28-0.25,0.46-0.59,0.46c-0.74,0-0.75-1.17-0.75-1.69c0-0.53,0.02-1.6,0.77-1.6
		c0.28,0,0.46,0.17,0.57,0.4h0.01v-0.35h0.59v3.19h-0.59V255.03z M306.55,253.84c0-0.25,0.03-1.11-0.37-1.11
		c-0.44,0-0.39,0.85-0.39,1.11c0,0.27-0.05,1.12,0.39,1.12C306.57,254.96,306.55,254.09,306.55,253.84z"/>
	<path d="M308.32,255.44h-0.59v-5.24h0.59V255.44z"/>
	<path d="M309.52,255.44h-0.59v-5.24h0.59V255.44z"/>
	<path d="M312.75,255.03h-0.01c-0.12,0.28-0.25,0.46-0.59,0.46c-0.74,0-0.75-1.17-0.75-1.69c0-0.53,0.02-1.6,0.77-1.6
		c0.28,0,0.46,0.17,0.57,0.4h0.01v-0.35h0.59v3.19h-0.59V255.03z M312.77,253.84c0-0.25,0.02-1.11-0.37-1.11
		c-0.44,0-0.39,0.85-0.39,1.11c0,0.27-0.05,1.12,0.39,1.12C312.8,254.96,312.77,254.09,312.77,253.84z"/>
	<path d="M315.81,256.75h-0.59v-1.67h-0.01c-0.06,0.13-0.13,0.23-0.21,0.3c-0.09,0.07-0.2,0.11-0.35,0.11
		c-0.75,0-0.77-1.07-0.77-1.61c0-0.52,0.01-1.68,0.75-1.68c0.33,0,0.47,0.18,0.59,0.46h0.01v-0.41h0.59V256.75z M315.24,253.85
		c0-0.26,0.02-1.12-0.37-1.12c-0.44,0-0.39,0.85-0.39,1.12c0,0.26-0.05,1.11,0.39,1.11C315.26,254.96,315.24,254.1,315.24,253.85z"
		/>
	<path d="M317.02,252.25v2c0,0.29-0.04,0.7,0.37,0.7c0.4,0,0.35-0.38,0.35-0.67v-2.03h0.59v2.15c0,0.66-0.2,1.09-0.92,1.09
		c-0.87,0-0.99-0.49-0.99-1.21v-2.03H317.02z"/>
	<path d="M320.2,255.03h-0.01c-0.12,0.28-0.25,0.46-0.59,0.46c-0.74,0-0.75-1.17-0.75-1.69c0-0.53,0.02-1.6,0.77-1.6
		c0.28,0,0.46,0.17,0.57,0.4h0.01v-0.35h0.59v3.19h-0.59V255.03z M320.22,253.84c0-0.25,0.03-1.11-0.37-1.11
		c-0.44,0-0.39,0.85-0.39,1.11c0,0.27-0.05,1.12,0.39,1.12C320.25,254.96,320.22,254.09,320.22,253.84z"/>
	<path d="M322.74,252.91h-0.01c-0.06-0.09-0.14-0.15-0.28-0.15c-0.51,0.01-0.52,0.72-0.52,1.06c0,0.32,0.01,1.12,0.51,1.12
		c0.13,0,0.21-0.05,0.3-0.12v0.55c-0.15,0.09-0.3,0.13-0.48,0.13c-0.84,0-0.94-0.99-0.94-1.62c0-0.66,0.08-1.67,0.95-1.67
		c0.18,0,0.32,0.03,0.47,0.11V252.91z"/>
	<path d="M323.82,252.25v2c0,0.29-0.04,0.7,0.37,0.7c0.4,0,0.35-0.38,0.35-0.67v-2.03h0.59v2.15c0,0.66-0.2,1.09-0.92,1.09
		c-0.87,0-0.99-0.49-0.99-1.21v-2.03H323.82z"/>
	<path d="M326.33,255.44h-0.59v-5.24h0.59V255.44z"/>
	<path d="M327.66,251.34v0.9h0.32v0.47h-0.32v2.72h-0.59v-2.72h-0.32v-0.47h0.32v-0.9H327.66z"/>
	<path d="M329,252.25v2c0,0.29-0.04,0.7,0.37,0.7c0.4,0,0.35-0.38,0.35-0.67v-2.03h0.59v2.15c0,0.66-0.2,1.09-0.92,1.09
		c-0.87,0-0.99-0.49-0.99-1.21v-2.03H329z"/>
	<path d="M331.52,252.64h0.01c0.14-0.28,0.35-0.44,0.68-0.44v0.59l-0.1-0.01c-0.44,0-0.58,0.25-0.58,0.65v2.01h-0.6v-3.19h0.59
		V252.64z"/>
	<path d="M333.19,253.96c0,0.27-0.01,1,0.37,1c0.32,0,0.37-0.35,0.37-0.59h0.55c0,0.59-0.26,1.12-0.93,1.12
		c-0.89,0-0.97-0.95-0.97-1.62c0-0.65,0.08-1.67,0.95-1.67c0.87,0,0.97,1.01,0.97,1.67v0.09H333.19z M333.9,253.54
		c0-0.25,0-0.81-0.36-0.81c-0.37,0-0.35,0.56-0.35,0.81H333.9z"/>
	<path d="M335.67,256.15l-0.59-0.15c0.33-0.85,0.55-1.79,0.55-2.7c0-0.84-0.25-1.75-0.55-2.55l0.59-0.15
		c0.37,0.86,0.56,1.8,0.56,2.73C336.23,254.29,336.03,255.27,335.67,256.15z"/>
</g>
<line fill="none" stroke="#000000" stroke-width="0.79" stroke-miterlimit="10" x1="44.95" y1="182.53" x2="393.85" y2="182.53"/>
<g>
	<path d="M47.93,230.22v4.17h-0.54v-3.68h-0.41v-0.48H47.93z"/>
	<path d="M49.36,234.39l0.83-1.74l-0.01-0.01c-0.12,0.12-0.24,0.17-0.42,0.17c-0.65,0-0.72-0.71-0.72-1.21
		c0-0.65,0.05-1.42,0.89-1.42c0.84,0,0.9,0.76,0.9,1.41c0,0.91-0.24,1.5-0.62,2.3l-0.24,0.5H49.36z M50.26,231.48
		c0-0.24-0.01-0.81-0.34-0.81s-0.33,0.6-0.33,0.84c0,0.24-0.01,0.8,0.33,0.8C50.29,232.31,50.26,231.71,50.26,231.48z"/>
	<path d="M51.63,234.39l0.83-1.74l-0.01-0.01c-0.12,0.12-0.24,0.17-0.42,0.17c-0.65,0-0.72-0.71-0.72-1.21
		c0-0.65,0.05-1.42,0.89-1.42c0.84,0,0.9,0.76,0.9,1.41c0,0.91-0.24,1.5-0.62,2.3l-0.24,0.5H51.63z M52.54,231.48
		c0-0.24-0.01-0.81-0.34-0.81s-0.33,0.6-0.33,0.84c0,0.24-0.01,0.8,0.33,0.8C52.56,232.31,52.54,231.71,52.54,231.48z"/>
	<path d="M55.42,232.31c0,0.66,0.05,2.13-0.94,2.13c-0.99,0-0.94-1.47-0.94-2.13c0-0.66-0.05-2.13,0.94-2.13
		C55.47,230.17,55.42,231.65,55.42,232.31z M54.48,230.67c-0.38,0-0.41,0.77-0.4,1.64c-0.01,0.87,0.02,1.63,0.4,1.63
		c0.38,0,0.41-0.77,0.4-1.63C54.89,231.44,54.86,230.67,54.48,230.67z"/>
</g>
<line fill="none" stroke="#000000" stroke-width="0.395" stroke-miterlimit="10" x1="51.07" y1="225.31" x2="51.07" y2="227.58"/>
<g>
	<path d="M112.65,230.22v4.17h-0.54v-3.68h-0.41v-0.48H112.65z"/>
	<path d="M114.08,234.39l0.83-1.74l-0.01-0.01c-0.12,0.12-0.24,0.17-0.42,0.17c-0.65,0-0.72-0.71-0.72-1.21
		c0-0.65,0.05-1.42,0.89-1.42c0.84,0,0.9,0.76,0.9,1.41c0,0.91-0.24,1.5-0.62,2.3l-0.24,0.5H114.08z M114.98,231.48
		c0-0.24-0.01-0.81-0.34-0.81s-0.33,0.6-0.33,0.84c0,0.24-0.01,0.8,0.33,0.8C115,232.31,114.98,231.71,114.98,231.48z"/>
	<path d="M116.35,234.39l0.83-1.74l-0.01-0.01c-0.12,0.12-0.24,0.17-0.42,0.17c-0.65,0-0.72-0.71-0.72-1.21
		c0-0.65,0.05-1.42,0.89-1.42c0.84,0,0.9,0.76,0.9,1.41c0,0.91-0.24,1.5-0.62,2.3l-0.24,0.5H116.35z M117.25,231.48
		c0-0.24-0.01-0.81-0.34-0.81s-0.33,0.6-0.33,0.84c0,0.24-0.01,0.8,0.33,0.8C117.28,232.31,117.25,231.71,117.25,231.48z"/>
	<path d="M120.05,230.22v0.48h-0.9l-0.13,1.05c0.75-0.03,1.09,0.47,1.09,1.17c0,0.76-0.29,1.51-1.17,1.51
		c-0.24,0-0.43-0.07-0.65-0.17l0.14-0.49c0.17,0.09,0.29,0.17,0.49,0.17c0.49,0,0.62-0.56,0.62-0.93c0-0.48-0.2-0.82-0.72-0.82
		c-0.11,0-0.23,0.02-0.34,0.05l0.24-2.02H120.05z"/>
</g>
<line fill="none" stroke="#000000" stroke-width="0.395" stroke-miterlimit="10" x1="115.7" y1="225.31" x2="115.7" y2="227.58"/>
<g>
	<path d="M176.21,231.43c0-0.66,0.08-1.25,0.89-1.25c0.69,0,0.93,0.38,0.93,1.03c0,0.62-0.43,1.49-0.72,2.03l-0.35,0.67h1.03v0.48
		h-1.83l1.01-2.14c0.15-0.34,0.3-0.71,0.3-1.08c0-0.23-0.08-0.5-0.37-0.5c-0.38,0-0.32,0.62-0.32,0.8v0.11h-0.56V231.43z"/>
	<path d="M180.31,232.31c0,0.66,0.05,2.13-0.94,2.13c-0.99,0-0.94-1.47-0.94-2.13c0-0.66-0.05-2.13,0.94-2.13
		C180.36,230.17,180.31,231.65,180.31,232.31z M179.37,230.67c-0.38,0-0.41,0.77-0.4,1.64c-0.01,0.87,0.02,1.63,0.4,1.63
		c0.38,0,0.41-0.77,0.4-1.63C179.77,231.44,179.75,230.67,179.37,230.67z"/>
	<path d="M182.58,232.31c0,0.66,0.05,2.13-0.94,2.13c-0.99,0-0.94-1.47-0.94-2.13c0-0.66-0.05-2.13,0.94-2.13
		C182.63,230.17,182.58,231.65,182.58,232.31z M181.64,230.67c-0.38,0-0.41,0.77-0.4,1.64c-0.01,0.87,0.02,1.63,0.4,1.63
		c0.38,0,0.41-0.77,0.4-1.63C182.05,231.44,182.02,230.67,181.64,230.67z"/>
	<path d="M184.85,232.31c0,0.66,0.05,2.13-0.94,2.13c-0.99,0-0.94-1.47-0.94-2.13c0-0.66-0.05-2.13,0.94-2.13
		C184.9,230.17,184.85,231.65,184.85,232.31z M183.91,230.67c-0.38,0-0.41,0.77-0.4,1.64c-0.01,0.87,0.02,1.63,0.4,1.63
		c0.38,0,0.41-0.77,0.4-1.63C184.32,231.44,184.29,230.67,183.91,230.67z"/>
</g>
<line fill="none" stroke="#000000" stroke-width="0.395" stroke-miterlimit="10" x1="180.32" y1="225.31" x2="180.32" y2="227.58"/>
<g>
	<path d="M240.91,231.51c-0.01-0.66,0.06-1.26,0.87-1.27c0.68-0.01,0.93,0.36,0.95,1.01c0.01,0.62-0.4,1.49-0.68,2.05l-0.34,0.68
		l1.03-0.02l0.01,0.48l-1.83,0.04l0.97-2.16c0.14-0.34,0.28-0.71,0.28-1.09c0-0.23-0.09-0.5-0.38-0.49c-0.38,0.01-0.31,0.63-0.3,0.8
		l0,0.11l-0.56,0.01L240.91,231.51z"/>
	<path d="M245.02,232.31c0.01,0.66,0.09,2.13-0.9,2.15c-0.99,0.02-0.97-1.46-0.99-2.11c-0.01-0.66-0.09-2.13,0.9-2.15
		C245.03,230.18,245.01,231.65,245.02,232.31z M244.04,230.69c-0.38,0.01-0.39,0.78-0.37,1.64c0.01,0.87,0.05,1.63,0.43,1.63
		c0.38-0.01,0.39-0.78,0.37-1.64C244.47,231.45,244.42,230.69,244.04,230.69z"/>
	<path d="M247.29,232.27c0.01,0.66,0.09,2.13-0.9,2.15s-0.97-1.46-0.99-2.11c-0.01-0.66-0.09-2.13,0.9-2.15
		S247.28,231.61,247.29,232.27z M246.31,230.65c-0.38,0.01-0.39,0.78-0.37,1.64c0.01,0.87,0.05,1.63,0.44,1.63s0.39-0.78,0.37-1.64
		C246.74,231.41,246.7,230.64,246.31,230.65z"/>
	<path d="M249.43,230.14l0.01,0.48l-0.9,0.02l-0.11,1.05c0.75-0.04,1.1,0.45,1.11,1.15c0.01,0.76-0.26,1.52-1.14,1.54
		c-0.24,0-0.43-0.06-0.65-0.16l0.13-0.5c0.17,0.08,0.3,0.16,0.49,0.16c0.49-0.01,0.61-0.57,0.61-0.94c-0.01-0.48-0.22-0.81-0.74-0.8
		c-0.11,0-0.23,0.03-0.34,0.06l0.2-2.03L249.43,230.14z"/>
</g>
<line fill="none" stroke="#000000" stroke-width="0.395" stroke-miterlimit="10" x1="244.95" y1="225.31" x2="244.95" y2="227.58"/>
<g>
	<path d="M305.65,231.43c0-0.66,0.08-1.25,0.89-1.25c0.69,0,0.93,0.38,0.93,1.03c0,0.62-0.43,1.49-0.72,2.03l-0.35,0.67h1.03v0.48
		h-1.83l1.01-2.14c0.15-0.34,0.3-0.71,0.3-1.08c0-0.23-0.08-0.5-0.37-0.5c-0.38,0-0.32,0.62-0.32,0.8v0.11h-0.56V231.43z"/>
	<path d="M309.74,232.31c0,0.66,0.05,2.13-0.95,2.13s-0.94-1.47-0.94-2.13c0-0.66-0.05-2.13,0.94-2.13S309.74,231.65,309.74,232.31z
		 M308.8,230.67c-0.38,0-0.41,0.77-0.4,1.64c-0.01,0.87,0.02,1.63,0.4,1.63s0.41-0.77,0.4-1.63
		C309.21,231.44,309.18,230.67,308.8,230.67z"/>
	<path d="M311.34,230.22v4.17h-0.54v-3.68h-0.41v-0.48H311.34z"/>
	<path d="M314.29,232.31c0,0.66,0.05,2.13-0.95,2.13s-0.94-1.47-0.94-2.13c0-0.66-0.05-2.13,0.94-2.13S314.29,231.65,314.29,232.31z
		 M313.34,230.67c-0.38,0-0.41,0.77-0.4,1.64c-0.01,0.87,0.02,1.63,0.4,1.63s0.41-0.77,0.4-1.63
		C313.75,231.44,313.72,230.67,313.34,230.67z"/>
</g>
<line fill="none" stroke="#000000" stroke-width="0.395" stroke-miterlimit="10" x1="309.58" y1="225.31" x2="309.58" y2="227.58"/>
<g>
	<path d="M370.37,231.43c0-0.66,0.08-1.25,0.89-1.25c0.69,0,0.93,0.38,0.93,1.03c0,0.62-0.43,1.49-0.72,2.03l-0.35,0.67h1.03v0.48
		h-1.83l1.01-2.14c0.15-0.34,0.3-0.71,0.3-1.08c0-0.23-0.08-0.5-0.37-0.5c-0.38,0-0.32,0.62-0.32,0.8v0.11h-0.56V231.43z"/>
	<path d="M374.46,232.31c0,0.66,0.05,2.13-0.94,2.13s-0.95-1.47-0.95-2.13c0-0.66-0.05-2.13,0.95-2.13S374.46,231.65,374.46,232.31z
		 M373.52,230.67c-0.38,0-0.41,0.77-0.4,1.64c-0.01,0.87,0.02,1.63,0.4,1.63s0.41-0.77,0.4-1.63
		C373.92,231.44,373.9,230.67,373.52,230.67z"/>
	<path d="M376.06,230.22v4.17h-0.54v-3.68h-0.41v-0.48H376.06z"/>
	<path d="M378.92,230.22v0.48h-0.9l-0.13,1.05c0.75-0.03,1.09,0.47,1.09,1.17c0,0.76-0.29,1.51-1.17,1.51
		c-0.24,0-0.43-0.07-0.65-0.17l0.14-0.49c0.17,0.09,0.29,0.17,0.49,0.17c0.49,0,0.62-0.56,0.62-0.93c0-0.48-0.2-0.82-0.72-0.82
		c-0.11,0-0.23,0.02-0.34,0.05l0.24-2.02H378.92z"/>
</g>
<line fill="none" stroke="#000000" stroke-width="0.395" stroke-miterlimit="10" x1="374.21" y1="225.31" x2="374.21" y2="227.58"/>
</svg>
