<?xml version="1.0" encoding="UTF-8" standalone="no"?>
<!-- Created with Sodipodi ("http://www.sodipodi.com/") -->
<svg
   xmlns:dc="http://purl.org/dc/elements/1.1/"
   xmlns:cc="http://web.resource.org/cc/"
   xmlns:rdf="http://www.w3.org/1999/02/22-rdf-syntax-ns#"
   xmlns:svg="http://www.w3.org/2000/svg"
   xmlns="http://www.w3.org/2000/svg"
   xmlns:xlink="http://www.w3.org/1999/xlink"
   xmlns:sodipodi="http://sodipodi.sourceforge.net/DTD/sodipodi-0.dtd"
   xmlns:inkscape="http://www.inkscape.org/namespaces/inkscape"
   id="svg602"
   sodipodi:version="0.32"
   width="601"
   height="382.84375"
   xml:space="preserve"
   sodipodi:docbase="C:\Documents and Settings\Esko\Omat tiedostot\Downloads"
   sodipodi:docname="Aquarium_Nitrogen_Cycle.svg"
   inkscape:version="0.45.1"
   inkscape:output_extension="org.inkscape.output.svg.inkscape"
   version="1.0"><metadata
     id="metadata94"><rdf:RDF><cc:Work
         rdf:about=""><dc:format>image/svg+xml</dc:format><dc:type
           rdf:resource="http://purl.org/dc/dcmitype/StillImage" /></cc:Work></rdf:RDF></metadata><defs
     id="defs604"><linearGradient
       id="linearGradient692"><stop
         style="stop-color:#d5e7ff;stop-opacity:1;"
         offset="0"
         id="stop693" /><stop
         style="stop-color:#00001a;stop-opacity:1;"
         offset="1"
         id="stop694" /></linearGradient><linearGradient
       id="linearGradient689"><stop
         style="stop-color:#95355a;stop-opacity:1;"
         offset="0"
         id="stop690" /><stop
         style="stop-color:#3affc5;stop-opacity:1;"
         offset="1"
         id="stop691" /></linearGradient><linearGradient
       id="linearGradient685"><stop
         style="stop-color:#aa255a;stop-opacity:1;"
         offset="0"
         id="stop686" /><stop
         style="stop-color:#c5b5ef;stop-opacity:1;"
         offset="1"
         id="stop687" /></linearGradient><linearGradient
       id="linearGradient625"><stop
         style="stop-color:#995f3a;stop-opacity:1;"
         offset="0"
         id="stop626" /><stop
         style="stop-color:#000000;stop-opacity:1;"
         offset="1"
         id="stop627" /></linearGradient><linearGradient
       id="linearGradient606"><stop
         style="stop-color:#99bfff;stop-opacity:1;"
         offset="0"
         id="stop607" /><stop
         style="stop-color:#99bfff;stop-opacity:0;"
         offset="1"
         id="stop608" /></linearGradient><linearGradient
       xlink:href="#linearGradient606"
       id="linearGradient609"
       x1="281.71329"
       y1="527.77502"
       x2="281.71329"
       y2="959.79065"
       gradientTransform="matrix(1.3714781,0,0,0.7291403,-80.751724,-318.75)"
       gradientUnits="userSpaceOnUse" /><radialGradient
       xlink:href="#linearGradient692"
       id="radialGradient610"
       cx="417.91599"
       cy="550.87225"
       r="3.0954299"
       fx="417.91599"
       fy="550.87225"
       gradientTransform="scale(1.0930776,0.9148481)"
       gradientUnits="userSpaceOnUse" /><linearGradient
       xlink:href="#linearGradient625"
       id="linearGradient624"
       x1="101.85721"
       y1="2467.4758"
       x2="101.85721"
       y2="2609.4841"
       gradientTransform="matrix(3.7319407,0,0,0.2679571,-80.751724,-318.75)"
       gradientUnits="userSpaceOnUse" /><linearGradient
       xlink:href="#linearGradient685"
       id="linearGradient684"
       x1="368.21463"
       y1="638.76746"
       x2="367.7431"
       y2="686.73047"
       spreadMethod="pad"
       gradientUnits="userSpaceOnUse"
       gradientTransform="scale(1.29781,0.770529)" /><linearGradient
       xlink:href="#linearGradient689"
       id="linearGradient688"
       x1="945.737"
       y1="259.56012"
       x2="937.40552"
       y2="302.44275"
       gradientTransform="scale(0.5523407,1.8104769)"
       gradientUnits="userSpaceOnUse" /><linearGradient
       xlink:href="#linearGradient689"
       id="linearGradient708"
       x1="424.37869"
       y1="560.38965"
       x2="449.49646"
       y2="558.00482"
       gradientTransform="scale(1.1319087,0.8834635)"
       gradientUnits="userSpaceOnUse" /><linearGradient
       xlink:href="#linearGradient689"
       id="linearGradient709"
       x1="539.88385"
       y1="499.17752"
       x2="518.5166"
       y2="484.37115"
       gradientTransform="scale(0.9478016,1.0550731)"
       gradientUnits="userSpaceOnUse" /><linearGradient
       xlink:href="#linearGradient689"
       id="linearGradient710"
       x1="624.92108"
       y1="412.09134"
       x2="619.28369"
       y2="399.06158"
       gradientTransform="scale(0.7568178,1.321322)"
       gradientUnits="userSpaceOnUse" /></defs><sodipodi:namedview
     id="base"
     pagecolor="#ffffff"
     inkscape:pageopacity="1"
     inkscape:zoom="0.98471151"
     inkscape:cx="302.57614"
     inkscape:cy="203.86772"
     inkscape:window-width="810"
     inkscape:window-height="670"
     inkscape:window-x="492"
     inkscape:window-y="321"
     inkscape:current-layer="svg602" /><rect
     style="font-size:12px;fill:url(#linearGradient609);fill-opacity:1;fill-rule:nonzero;stroke:none;stroke-width:1;stroke-opacity:1"
     id="rect605"
     width="592.5"
     height="315.00003"
     x="1.7656708"
     y="63.611084" /><path
     style="font-size:12px;fill:#7f7f7f;fill-rule:evenodd"
     d="M 118.95068,134.125 L 118.95068,136.6792 L 160.13818,136.6792 L 160.13818,146.483 L 118.95068,146.483 L 118.95068,149.1875 L 107.70068,141.9004 L 118.95068,134.125 z "
     id="path1150" /><g
     id="g720"
     transform="translate(-89.41473,-316.28482)"><path
       style="fill:#154214;fill-opacity:1;fill-rule:evenodd;stroke:#000000;stroke-width:1.25;stroke-linecap:butt;stroke-linejoin:miter;stroke-dasharray:none;stroke-opacity:1"
       d="M 186.25,668.6122 C 186.25,663.6775 191.3141,661.908 191.2687,656.1892 C 191.1569,642.1318 172.4335,637.3195 173.1422,623.4889 C 174.4725,597.5262 158.3217,584.3987 156.8663,561.3588 C 155.8523,545.3078 143.3378,539.1745 148.9451,519.715 C 149.8224,516.6706 153.1084,479.0196 163.4565,496.3553 C 173.2897,512.8283 169.2834,526.5094 167.0658,543.9839 C 166.5155,548.3202 174.8858,568.6244 175.5164,577.6543 C 176.7586,595.4396 188.4225,606.2748 188.669,626.7996 C 188.844,641.3655 196.2432,645.6983 196.2547,662.2197 C 196.256,664.2186 191.9219,663.6313 186.25,668.6122 z "
       id="path661" /><path
       style="fill:#154214;fill-opacity:1;fill-rule:evenodd;stroke:#000000;stroke-width:1pt;stroke-linecap:butt;stroke-linejoin:miter;stroke-opacity:1"
       d="M 188.75,666.1122 C 188.75,643.9138 199.786,639.5386 202.5849,619.8568 C 203.7322,611.7887 195.0478,588.8602 194.4093,576.6353 C 193.6997,563.0514 199.7879,549.5585 200.4512,535.6887 C 201.1038,522.0438 203.3569,515.9333 204.9715,503.7828 C 205.0254,503.3773 206.1979,458.5248 210.827,473.2812 C 213.1284,480.6178 211.9217,475.5356 211.483,484.0119 C 210.6739,499.6463 209.7914,495.7346 214.8293,511.2015 C 217.7748,520.2442 206.978,533.8681 206.4881,545.0003 C 205.9766,556.6245 202.7383,553.7167 201.7035,561.7457 C 200.1131,574.0856 211.7087,584.4186 211.088,596.6258 C 210.8761,600.7937 204.4772,602.2061 205.7136,613.5841 C 206.7038,622.6967 207.6305,628.2248 200.7318,634.3483 C 193.3365,640.9127 199.3375,652.7409 192.8255,659.7488 C 190.7765,661.9539 188.3069,663.8243 188.75,666.1122 z "
       id="path663" /><path
       style="fill:#154214;fill-opacity:1;fill-rule:evenodd;stroke:#000000;stroke-width:1pt;stroke-linecap:butt;stroke-linejoin:miter;stroke-opacity:1"
       d="M 193.75,663.6122 C 193.75,661.092 198.4635,654.5154 198.7016,646.8424 C 198.938,639.2184 186.5408,635.1072 186.3266,617.9902 C 186.1012,599.9719 185.9131,582.441 184.2554,564.6279 C 182.6722,547.6154 177.1165,549.9833 183.1897,530.7942 C 189.3917,511.1983 177.0974,495.3418 176.5,475.1302 C 176.1914,464.6893 176.1379,441.7422 181.8544,432.8927 C 190.2969,419.823 188.881,416.0079 188.7742,433.6923 C 188.6885,447.8999 191.6901,462.6728 187.7534,475.9737 C 183.046,491.8781 193.392,507.7941 193.6786,523.8448 C 193.9157,537.1197 190.8036,535.0679 189.2964,544.9465 C 187.9854,553.5389 198.6586,563.6894 198.7319,577.4886 C 198.7546,581.7577 200.741,593.5629 197.8856,597.1198 C 188.1796,609.2105 198.3452,612.1291 194.7272,628.4092 C 192.3959,638.8995 208.0009,660.1355 193.75,663.6122 z "
       id="path664" /><path
       style="fill:#154214;fill-opacity:1;fill-rule:evenodd;stroke:#000000;stroke-width:1pt;stroke-linecap:butt;stroke-linejoin:miter;stroke-opacity:1"
       d="M 178.75,668.6122 C 178.75,647.671 166.4892,655.2152 159.7348,638.6248 C 158.2392,634.9514 166.185,625.9111 166.2314,616.3632 C 166.3191,598.3146 164.6054,603.5879 158.4919,589.5099 C 152.8246,576.4592 168.5262,573.4753 161.8994,558.3065 C 156.5546,546.0724 173.6543,545.1301 173.8302,548.181 C 174.3335,556.9108 158.4799,562.336 172.3239,572.7544 C 177.5414,576.681 174.7341,589.889 174.0858,594.7879 C 174.053,595.0362 176.2493,609.5952 176.2497,612.6318 C 176.2513,624.3842 169.0217,620.2699 168.758,633.0497 C 168.7185,634.9639 174.4782,638.1707 175.285,639.1412 C 179.5122,644.2262 176.7882,651.1163 178.7516,656.4892 C 179.8321,659.4459 181.5017,660.2617 178.75,668.6122 z "
       id="path665" /></g><path
     style="font-size:12px;fill:url(#linearGradient624);fill-rule:evenodd;stroke:#000000;stroke-width:1.20967996"
     d="M 2.9982758,349.0625 L 2.9982758,379.875 L 597.99828,379.875 L 597.99828,345.9375 C 584.43578,345.9375 570.81078,345.9375 557.24828,345.875 C 543.31078,345.875 536.56078,342 523.81078,338.9375 C 512.62328,336.25 499.68578,342.5 488.62328,344.375 C 456.43578,349.875 419.49828,356.3125 387.68578,343.5 C 367.31078,335.375 356.24828,342.3125 336.37328,342.375 C 321.93578,342.4375 307.37328,345.9375 293.18578,345.9375 C 260.37328,346 227.37328,350.375 194.74828,349.25 C 178.31078,348.6875 161.99828,344.8125 145.68578,346.8125 C 132.37328,348.4375 119.49828,349.25 106.06078,349.5625 C 92.435776,349.875 80.123276,360.5625 66.873276,360.0625 C 52.185776,359.4375 53.810776,357.3125 42.873276,349.5 C 40.623276,347.9375 11.560776,349.5625 6.6232758,349.375 C 4.4982758,349.3125 3.2482758,349.125 2.9982758,349.0625 z "
     id="path660" /><path
     style="font-size:12px;fill:#000000;fill-opacity:1;fill-rule:evenodd;stroke:none;stroke-width:5.98225403;stroke-opacity:1"
     d="M 0,20.28125 L 0,379.875 L 0,382.84375 L 3,382.84375 L 598,382.84375 L 601,382.84375 L 601,379.875 L 601,20.28125 L 595,20.28125 L 595,376.875 L 6,376.875 L 6,20.28125 L 0,20.28125 z "
     id="rect619" /><g
     id="g711"
     transform="translate(-17.842274,-356.21036)"><path
       style="fill:url(#linearGradient708);fill-opacity:1;fill-rule:evenodd;stroke:#000000;stroke-width:1pt;stroke-linecap:butt;stroke-linejoin:miter;stroke-opacity:1"
       d="M 467.2969,490.7232 C 474.8851,490.7232 483.1345,481.634 487.5478,475.9424 C 489.9123,472.8932 491.8093,470.7987 495.6978,470.067 C 498.8731,469.4695 503.8455,473.0267 503.7141,465.7791 C 503.7,464.9955 506.1275,464.5501 506.0215,465.3267 C 505.7367,467.4127 500.2943,476.1731 504.7818,476.3545 C 509.4264,476.5422 511.42,473.6385 505.6724,478.9305 C 504.1949,480.2909 502.3537,481.7989 500.3421,481.9217 C 500.1593,481.9329 502.9105,487.2392 500.9039,487.4708 C 497.6054,487.8516 495.0046,491.2113 493.6919,494.2152 C 493.3246,495.0557 495.3962,494.895 496.2392,495.2568 C 495.6891,495.0206 494.7775,497.0142 494.8737,496.4233 C 494.8753,496.413 494.8248,497.3387 494.8611,497.3512 C 494.4399,497.2056 496.0511,496.2986 496.0523,496.7443"
       id="path698" /><path
       style="fill:url(#linearGradient709);fill-opacity:1;fill-rule:evenodd;stroke:#000000;stroke-width:1pt;stroke-linecap:butt;stroke-linejoin:miter;stroke-opacity:1"
       d="M 487.1584,523.8257 C 491.5347,523.8257 492.5876,531.8753 492.64,535.4549 C 492.7548,543.2963 501.6819,553.1899 509.4434,553.505 C 517.9386,553.8498 506.7408,549.993 516.3295,550.2749 C 521.4811,550.4263 518.54,549.1715 516.037,548.0682 C 514.1265,547.2261 508.4632,543.9607 508.3628,541.5961 C 508.1474,536.5184 510.9818,539.334 506.1992,533.9455 C 504.6936,532.2492 502.0638,526.8645 502.5921,524.6637 C 502.6354,524.4832 509.1079,521.5761 504.2965,521.599 C 502.6582,521.6068 497.6281,520.3928 498.1781,518.209 C 498.4501,517.1291 495.9518,518.277 494.8387,518.311"
       id="path699" /><path
       style="font-size:12px;fill:url(#linearGradient688);stroke:#000000;stroke-width:1.34952199"
       d="M 531.0891,547.5488 C 531.0891,542.6498 526.1529,538.726 530.504,531.9629 C 535.3879,524.372 529.8494,534.1811 529.9793,523.1108 C 530.005,520.9216 527.7562,518.2016 527.9161,515.2037 C 527.9304,514.9347 531.0521,511.8443 531.1124,507.6128 C 531.2134,500.538 529.8885,501.8274 529.1956,497.1022 C 528.5563,492.7418 538.4259,486.1772 533.2054,475.3239 C 530.8812,470.4921 532.0883,469.0791 534.6699,464.669 C 526.5759,480.0844 519.5852,502.1202 510.3878,510.9149 C 520.5984,517.6092 524.1887,535.3375 531.0891,547.5488 z "
       id="path682"
       sodipodi:nodetypes="cccccccccc" /><path
       style="fill:url(#linearGradient684);fill-opacity:1;fill-rule:evenodd;stroke:#000000;stroke-width:1pt;stroke-linecap:butt;stroke-linejoin:miter;stroke-opacity:1"
       d="M 443.6034,511.1122 L 446.4658,503.543 C 452.1616,488.4813 482.6029,485.8456 495.8103,498.0259 L 510,511.1122 L 494.7068,524.1985 C 494.114,524.7058 480.9468,536.4578 456.1034,524.1985 C 452.1037,521.6804 445.8103,517.4395 443.6034,511.1122 z "
       id="path677"
       sodipodi:nodetypes="csscssc" /><path
       sodipodi:type="arc"
       style="fill:url(#radialGradient610);fill-opacity:1;fill-rule:evenodd;stroke:#000000;stroke-width:1.25;stroke-linecap:butt;stroke-linejoin:miter;stroke-dasharray:none;stroke-dashoffset:0;stroke-opacity:1"
       id="path679"
       d="M 459.57294 503.9642 A 2.7585449 2.2068481 0 1 1  454.05585,503.9642 A 2.7585449 2.2068481 0 1 1  459.57294 503.9642 z"
       sodipodi:cx="456.81439"
       sodipodi:cy="503.9642"
       sodipodi:rx="2.7585449"
       sodipodi:ry="2.2068481" /><path
       style="fill:none;fill-opacity:1;fill-rule:evenodd;stroke:#000000;stroke-width:1pt;stroke-linecap:butt;stroke-linejoin:miter;stroke-opacity:1"
       d="M 455.1593,523.8257 C 464.558,523.8257 465.841,519.4462 469.6252,511.4308"
       id="path702"
       sodipodi:nodetypes="cc" /><path
       style="fill:none;fill-opacity:1;fill-rule:evenodd;stroke:#000000;stroke-width:1pt;stroke-linecap:butt;stroke-linejoin:miter;stroke-opacity:1"
       d="M 446.332,514.9984 C 448.135,514.9984 449.5776,513.8324 450.7459,513.8939"
       id="path704" /><path
       style="fill:url(#linearGradient710);fill-opacity:1;fill-rule:evenodd;stroke:#000000;stroke-width:1pt;stroke-linecap:butt;stroke-linejoin:miter;stroke-opacity:1"
       d="M 465.09,527.1359 C 464.2016,527.1359 466.2135,528.2432 466.5775,528.7969 C 470.0303,534.0489 467.1441,541.6079 472.4213,545.8035 C 478.3309,550.5018 476.4252,546.0223 473.0866,542.8463 C 470.7607,540.6337 478.7688,543.0185 474.5134,538.0273 C 472.0792,535.1723 473.0815,531.3849 470.5977,528.1979 C 470.3597,527.8925 470.4662,527.4347 470.4005,527.053"
       id="path706" /></g><g
     id="g879"
     transform="translate(-16.634694,-344.10968)"><rect
       style="font-size:12px;fill:#8d8d8d;fill-rule:evenodd;stroke:#000000;stroke-width:1.20517504;stroke-dashoffset:0"
       id="rect753"
       width="155"
       height="32.53479"
       x="255"
       y="616.07739"
       transform="translate(145.4467,-13.55853)" /><text
       style="font-size:16px;font-style:normal;font-weight:bold;line-height:100%;writing-mode:lr-tb;text-anchor:middle;stroke-width:1;font-family:Arial"
       x="477.02441"
       y="623.82074"
       id="text726"
       sodipodi:linespacing="100%"
       xml:space="preserve"><tspan
         x="477.02441"
         y="623.82074"
         sodipodi:role="line"
         id="tspan803">Ammonium (NH  )</tspan></text>
<text
       style="font-size:12px;font-style:normal;font-weight:bold;line-height:100%;writing-mode:lr-tb;text-anchor:start;fill:#000000;fill-opacity:1;stroke:none;stroke-width:1pt;stroke-linecap:butt;stroke-linejoin:miter;stroke-opacity:1;font-family:Arial"
       x="530.0174"
       y="617.87067"
       id="text805"
       sodipodi:linespacing="100%"
       xml:space="preserve"><tspan
         x="530.0174"
         y="617.87067"
         sodipodi:role="line"
         id="tspan875"> +</tspan><tspan
         x="530.0174"
         y="629.87067"
         sodipodi:role="line"
         id="tspan877">4</tspan></text>
</g><g
     id="g1010"
     transform="translate(-59.950614,-282.12604)"><rect
       style="font-size:12px;fill:#8d8d8d;fill-rule:evenodd;stroke:#000000;stroke-width:1.09468806;stroke-dashoffset:0"
       id="rect977"
       width="127.88281"
       height="32.53479"
       x="266.09351"
       y="551.98236"
       transform="translate(67.79293,-75.18855)" /><text
       style="font-size:16px;font-style:normal;font-weight:bold;line-height:100%;writing-mode:lr-tb;text-anchor:middle;font-family:Arial"
       x="477.02441"
       y="623.82074"
       id="text978"
       sodipodi:linespacing="100%"
       xml:space="preserve"
       transform="translate(-80.11887,-125.7251)"><tspan
         x="477.02441"
         y="623.82074"
         sodipodi:role="line"
         id="tspan995">Nitrites (NO  )</tspan></text>
<text
       style="font-size:12px;font-weight:bold;line-height:100%;font-family:Arial"
       x="433.87473"
       y="490.91302"
       id="text981"
       sodipodi:linespacing="100%"
       xml:space="preserve"><tspan
         x="433.87473"
         y="490.91302"
         sodipodi:role="line"
         id="tspan982"> -</tspan><tspan
         x="433.87473"
         y="502.91302"
         sodipodi:role="line"
         id="tspan984">2</tspan></text>
</g><g
     id="g1020"
     transform="translate(-102.03388,-421.0558)"><rect
       style="font-size:12px;fill:#8d8d8d;fill-rule:evenodd;stroke:#000000;stroke-width:1.09468806;stroke-dashoffset:0"
       id="rect890"
       width="127.88281"
       height="32.53479"
       x="266.09351"
       y="551.98224" /><text
       style="font-size:16px;font-weight:bold;line-height:100%;text-anchor:middle;font-family:Arial"
       x="329.11261"
       y="573.28418"
       id="text891"
       sodipodi:linespacing="100%"
       xml:space="preserve"><tspan
         x="329.11261"
         y="573.28418"
         sodipodi:role="line"
         id="tspan908">Nitrates (NO  )</tspan></text>
<text
       style="font-size:12px;font-style:normal;font-weight:bold;line-height:100%;writing-mode:lr-tb;text-anchor:start;font-family:Arial"
       x="368.547"
       y="566.10156"
       id="text894"
       sodipodi:linespacing="100%"
       xml:space="preserve"><tspan
         x="368.547"
         y="566.10156"
         sodipodi:role="line"
         id="tspan1006"> -</tspan><tspan
         x="368.547"
         y="578.10156"
         sodipodi:role="line"
         id="tspan1008">3</tspan></text>
</g><path
     style="font-size:12px;fill:#7f7f7f;fill-rule:evenodd"
     d="M 235.24828,178.125 L 230.99828,178.125 L 230.99828,203.875 L 268.62328,203.875 L 268.62328,219.25 L 230.99828,219.25 L 214.68578,219.25 L 214.68578,203.875 L 214.68578,178.125 L 210.18578,178.125 L 222.24828,166.8125 L 235.24828,178.125 z "
     id="path1121" /><path
     style="font-size:12px;fill:#7f7f7f;fill-rule:evenodd"
     d="M 467.31078,304.8125 L 463.06078,304.8125 L 463.06078,346 L 446.74828,346 L 446.74828,304.8125 L 442.24828,304.8125 L 454.31078,293.5625 L 467.31078,304.8125 z "
     id="path1133" /><path
     style="font-size:12px;fill:#7f7f7f;fill-rule:evenodd"
     d="M 468.56078,243.125 L 464.31078,243.125 L 464.31078,201.9375 L 447.99828,201.9375 L 447.99828,243.125 L 443.49828,243.125 L 455.62328,254.375 L 468.56078,243.125 z "
     id="path1138" /><path
     style="font-size:12px;fill:#7f7f7f;fill-rule:evenodd"
     d="M 156.67548,333.0401 L 160.92548,333.0401 L 160.92548,318.1182 L 123.30048,318.1182 L 123.30048,302.6808 L 177.23798,302.6808 L 177.23798,333.0401 L 181.73798,333.0401 L 169.67548,344.2901 L 156.67548,333.0401 z "
     id="path1145"
     sodipodi:nodetypes="cccccccccc" /><path
     style="font-size:12px;fill:#7f7f7f;fill-rule:evenodd"
     d="M 445.40452,82.874969 L 453.34202,82.874969 L 453.34202,6.2499695 L 483.71702,6.2499695 L 483.71702,82.874969 L 492.09202,82.874969 L 469.59202,103.87497 L 445.40452,82.874969 z "
     id="path1155" /><path
     style="font-size:12px;fill:#7f7f7f;fill-rule:evenodd"
     d="M 245.56078,21 L 237.62328,21 L 237.62328,120.1875 L 207.24828,120.1875 L 207.24828,21 L 198.87328,21 L 221.37328,0 L 245.56078,21 z "
     id="path1160" /><text
     style="font-size:16px;font-style:normal;font-weight:bold;line-height:100%;writing-mode:lr-tb;text-anchor:start;fill:#ccc;font-family:Arial"
     x="173.39565"
     y="366.112"
     id="text1161"
     sodipodi:linespacing="100%"
     xml:space="preserve"><tspan
       x="173.39565"
       y="366.112"
       sodipodi:role="line"
       id="tspan1166">Decomposing plant &amp; animal matter</tspan></text>
<text
     style="font-size:20px;font-style:normal;font-weight:bold;line-height:100%;writing-mode:lr-tb;text-anchor:middle;fill:#000000;fill-opacity:1;stroke:none;stroke-width:1pt;stroke-linecap:butt;stroke-linejoin:miter;stroke-opacity:1;font-family:Arial"
     x="469.24829"
     y="41.112152"
     id="text1168"
     sodipodi:linespacing="100%"
     xml:space="preserve"><tspan
       x="469.24829"
       y="41.112152"
       sodipodi:role="line"
       id="tspan1190">Food</tspan></text>
<text
     style="font-size:20px;font-style:normal;font-weight:bold;line-height:100%;writing-mode:lr-tb;text-anchor:middle;fill:#000000;fill-opacity:1;stroke:none;stroke-width:1pt;stroke-linecap:butt;stroke-linejoin:miter;stroke-opacity:1;font-family:Arial"
     x="221.74828"
     y="39.124817"
     id="text1171"
     sodipodi:linespacing="100%"
     xml:space="preserve"><tspan
       x="221.74828"
       y="39.124817"
       sodipodi:role="line"
       id="tspan1194">Water change</tspan></text>
<text
     style="font-size:16px;font-style:italic;font-weight:normal;line-height:100%;writing-mode:lr-tb;text-anchor:start;fill:#000000;fill-opacity:1;stroke:none;stroke-width:1pt;stroke-linecap:butt;stroke-linejoin:miter;stroke-opacity:1;font-family:Arial"
     x="182.99828"
     y="193.61194"
     id="text1174"
     sodipodi:linespacing="100%"
     xml:space="preserve"><tspan
       x="182.99828"
       y="193.61194"
       sodipodi:role="line"
       id="tspan1211">Nitrospira</tspan></text>
<path
     style="font-size:12px;fill:#7f7f7f;fill-rule:evenodd"
     d="M 345.62328,241.6875 L 341.37328,241.6875 L 341.37328,267.375 L 378.99828,267.375 L 378.99828,282.8125 L 141.12328,283 L 141.12328,285.6875 L 129.87328,278.4375 L 141.12328,270.625 L 141.12328,273.1875 L 325.06078,273.1875 L 325.06078,267.375 L 325.06078,241.6875 L 320.56078,241.6875 L 332.68578,230.375 L 345.62328,241.6875 z "
     id="path1210"
     sodipodi:nodetypes="cccccccccccccccc" /><text
     style="font-size:16px;font-style:italic;font-weight:normal;line-height:100%;writing-mode:lr-tb;text-anchor:start;fill:#000000;fill-opacity:1;stroke:none;stroke-width:1pt;stroke-linecap:butt;stroke-linejoin:miter;stroke-opacity:1;font-family:Arial"
     x="280.49829"
     y="258.612"
     id="text1177"
     sodipodi:linespacing="100%"
     xml:space="preserve"><tspan
       x="280.49829"
       y="258.612"
       sodipodi:role="line"
       id="tspan1213">Nitrosomonas</tspan></text>
</svg>