<?xml version="1.0" encoding="UTF-8" standalone="no"?>
<!-- Created with Inkscape (http://www.inkscape.org/) -->
<svg
   xmlns:svg="http://www.w3.org/2000/svg"
   xmlns="http://www.w3.org/2000/svg"
   version="1.0"
   width="481.65189"
   height="121.31944"
   id="svg3352">
  <defs
     id="defs3354" />
  <g
     transform="translate(-130.06433,-472.36223)"
     id="layer1">
    <path
       d="M 371.42858,402.36218 A 55.714287,55.714287 0 1 1 260.00001,402.36218 A 55.714287,55.714287 0 1 1 371.42858,402.36218 z"
       transform="matrix(0.293377,0,0,0.293377,261.2584,376.378)"
       id="path3924"
       style="opacity:1;fill:#e51837;fill-opacity:1;stroke:#ff0000;stroke-width:0;stroke-linecap:butt;stroke-linejoin:miter;stroke-miterlimit:4;stroke-dasharray:none;stroke-opacity:1" />
    <path
       d="M 194.16306,518.2641 L 194.16306,456.44881 L 220.72168,456.44881 C 230.06712,456.44887 236.90029,458.2504 241.22122,461.85342 C 245.54204,465.45655 247.70248,471.1708 247.70254,478.99619 C 247.70248,486.28682 245.7602,491.61402 241.87569,494.9778 C 237.99107,498.34164 231.82643,500.02354 223.38177,500.02352 L 216.41488,500.02352 L 216.41488,518.2641 L 194.16306,518.2641 z M 216.49933,473.63379 L 216.49933,483.93634 L 219.96166,483.93634 C 222.0728,483.93638 223.69137,483.49303 224.81737,482.6063 C 225.94329,481.71964 226.50627,480.45997 226.50631,478.82729 C 226.50627,477.19469 225.92922,475.92095 224.77514,475.00606 C 223.621,474.09126 222.0165,473.63384 219.96166,473.63379 L 216.49933,473.63379 z"
       transform="matrix(0.9430964,0.1649297,-5.8587494e-2,1.0500911,0,0)"
       id="text3375"
       style="font-size:86.47385406px;font-style:normal;font-variant:normal;font-weight:normal;font-stretch:normal;text-align:start;line-height:125%;writing-mode:lr-tb;text-anchor:start;fill:#e51837;fill-opacity:1;stroke:none;stroke-width:1px;stroke-linecap:butt;stroke-linejoin:miter;stroke-opacity:1;font-family:Futura XBlk BT;-inkscape-font-specification:Futura XBlk BT" />
    <path
       d="M 233.25969,551.31305 L 233.25969,490.0199 L 274.24739,490.0199 L 274.24739,506.64106 L 254.86302,506.64106 L 254.86302,512.54429 L 272.44712,512.54429 L 272.44712,528.24438 L 254.86302,528.24438 L 254.86302,534.69189 L 274.7498,534.69189 L 274.7498,551.31305 L 233.25969,551.31305 z"
       transform="matrix(0.9705641,7.6458596e-2,-3.4787825e-2,1.0275882,0,0)"
       id="text3379"
       style="font-size:85.74342346px;font-style:normal;font-variant:normal;font-weight:normal;font-stretch:normal;text-align:start;line-height:125%;writing-mode:lr-tb;text-anchor:start;fill:#e51837;fill-opacity:1;stroke:none;stroke-width:1px;stroke-linecap:butt;stroke-linejoin:miter;stroke-opacity:1;font-family:Futura XBlk BT;-inkscape-font-specification:Futura XBlk BT" />
    <path
       d="M 288.11184,552.88171 L 288.11184,513.20665 L 276.31002,513.20665 L 276.31002,493.91289 L 321.10055,493.91289 L 321.10055,513.20665 L 309.29873,513.20665 L 309.29873,552.88171 L 288.11184,552.88171 z"
       transform="matrix(0.9547057,2.8634358e-2,-2.0463765e-2,1.0468295,0,0)"
       id="text3383"
       style="font-size:82.49190521px;font-style:normal;font-variant:normal;font-weight:normal;font-stretch:normal;text-align:start;line-height:125%;writing-mode:lr-tb;text-anchor:start;fill:#e51837;fill-opacity:1;stroke:none;stroke-width:1px;stroke-linecap:butt;stroke-linejoin:miter;stroke-opacity:1;font-family:Futura XBlk BT;-inkscape-font-specification:Futura XBlk BT" />
    <path
       d="M 272.05091,597.82589 L 278.97382,580.93068 C 282.07814,583.10098 284.84593,584.68748 287.2772,585.69018 C 289.70845,586.69292 291.98174,587.19429 294.0971,587.19427 C 295.58056,587.19429 296.74811,586.9127 297.59976,586.34951 C 298.45136,585.78635 298.87718,585.02401 298.8772,584.06247 C 298.87718,582.38671 296.74811,581.10927 292.48999,580.23015 C 291.11638,579.92798 290.04498,579.69447 289.27578,579.52961 C 284.77038,578.43076 281.32266,576.48026 278.93262,573.6781 C 276.54256,570.876 275.34753,567.38708 275.34754,563.21131 C 275.34753,556.728 277.6689,551.4534 282.31166,547.38751 C 286.95439,543.32173 293.03941,541.28881 300.56673,541.28875 C 304.02815,541.28881 307.43466,541.7421 310.78627,542.64861 C 314.13779,543.55524 317.51683,544.92883 320.92339,546.76939 L 314.33014,562.55199 C 312.24224,561.01361 310.14751,559.83918 308.04595,559.02872 C 305.94431,558.21834 303.90453,557.81313 301.92658,557.81309 C 300.4156,557.81313 299.24805,558.06725 298.42392,558.57543 C 297.59974,559.08371 297.18766,559.79111 297.18768,560.69764 C 297.18766,562.40093 300.19583,563.89815 306.2122,565.18929 C 307.17368,565.4091 307.91542,565.57393 308.43742,565.68378 C 312.58563,566.61786 315.85479,568.52716 318.24488,571.41167 C 320.63489,574.29625 321.82992,577.78517 321.82996,581.87846 C 321.82992,588.55414 319.41926,594.00731 314.59799,598.23797 C 309.77664,602.46864 303.50619,604.58397 295.78662,604.58397 C 291.83065,604.58397 287.8747,604.0208 283.91876,602.89445 C 279.9628,601.76811 276.00686,600.07859 272.05091,597.82589 L 272.05091,597.82589 z"
       transform="matrix(0.9982563,-5.9028375e-2,5.9028375e-2,0.9982563,0,0)"
       id="text3391"
       style="font-size:13546.15136719px;font-style:normal;font-weight:normal;line-height:125%;fill:#0068b3;fill-opacity:1;stroke:none;stroke-width:1px;stroke-linecap:butt;stroke-linejoin:miter;stroke-opacity:1;font-family:Bitstream Vera Sans" />
    <path
       d="M 445.5834,584.79395 L 443.16045,562.83595 C 443.00896,561.14495 442.85753,559.46025 442.70615,557.78182 C 442.55466,556.10345 442.42847,554.41875 442.32756,552.7277 C 442.10036,554.31779 441.77856,556.0025 441.36217,557.78182 C 440.94567,559.5612 440.43458,561.46044 439.82889,563.47954 L 433.46865,584.79395 L 421.6189,584.79395 L 415.25865,563.47954 C 414.62765,561.46044 414.11025,559.5612 413.70645,557.78182 C 413.3026,556.0025 412.98711,554.31779 412.75998,552.7277 C 412.63376,554.44398 412.50126,556.135 412.36247,557.80075 C 412.22363,559.46656 412.0785,561.14495 411.92709,562.83595 L 409.50414,584.79395 L 389.9691,584.79395 L 399.43375,529.36893 L 419.99098,529.36893 L 423.92827,543.07375 C 424.05444,543.50286 424.24373,544.14645 424.49615,545.00454 C 426.1619,550.78432 427.18408,555.54188 427.5627,559.27724 L 427.90343,559.27724 C 428.20626,556.93003 428.66056,554.43137 429.26634,551.78123 C 429.87204,549.13116 430.67969,546.15296 431.68929,542.8466 L 435.81588,529.36893 L 456.33525,529.36893 L 465.11845,584.79395 L 445.5834,584.79395 z"
       transform="matrix(0.9247398,-0.1255856,-3.2656635e-3,1.0818288,0,0)"
       id="text3395"
       style="font-size:1116.49609375px;font-style:normal;font-weight:normal;line-height:125%;fill:#0068b3;fill-opacity:1;stroke:none;stroke-width:1px;stroke-linecap:butt;stroke-linejoin:miter;stroke-opacity:1;font-family:Bitstream Vera Sans" />
    <path
       d="M 495.15348,518.39724 L 503.44452,518.39724 L 501.74088,512.11271 C 500.90796,508.93262 500.34008,506.48443 500.03724,504.76814 C 499.73434,503.05192 499.54505,501.43662 499.46936,499.92224 L 499.12863,499.92224 C 499.05289,501.43662 498.8636,503.05192 498.56075,504.76814 C 498.25786,506.48443 497.68998,508.93262 496.85712,512.11271 L 495.15348,518.39724 z M 468.72817,538.53802 L 488.49036,483.11302 L 510.67551,483.11302 L 530.05912,538.53802 L 508.63115,538.53802 L 506.85179,531.57204 L 491.82192,531.57204 L 490.11828,538.53802 L 468.72817,538.53802 z"
       transform="matrix(0.9247398,-1.932091e-2,-3.2656635e-3,1.0814535,0,0)"
       id="text3399"
       style="font-size:1116.49609375px;font-style:normal;font-weight:normal;line-height:125%;fill:#0068b3;fill-opacity:1;stroke:none;stroke-width:1px;stroke-linecap:butt;stroke-linejoin:miter;stroke-opacity:1;font-family:Bitstream Vera Sans" />
    <path
       d="M 515.54831,509.18416 L 515.54831,520.57876 L 518.8153,520.57876 C 520.80733,520.5788 522.34122,520.09406 523.41697,519.12456 C 524.49265,518.15512 525.03051,516.76732 525.03054,514.96114 C 525.03051,513.10192 524.49265,511.67428 523.41697,510.6782 C 522.34122,509.68221 520.80733,509.1842 518.8153,509.18416 L 515.54831,509.18416 z M 494.99021,552.49164 L 494.99021,494.16399 L 521.36514,494.16399 C 529.01463,494.16405 534.85801,495.85066 538.89531,499.22383 C 542.93251,502.59711 544.95113,507.45774 544.95119,513.80575 C 544.95113,517.94927 543.93518,521.36234 541.90333,524.04496 C 539.87137,526.72763 537.12897,528.29472 533.6761,528.74623 L 549.25405,552.49164 L 525.74769,552.49164 L 515.54831,533.24829 L 515.54831,552.49164 L 494.99021,552.49164 z"
       transform="matrix(0.9987526,3.9820794e-2,-3.5270355e-3,1.0011083,0,0)"
       id="text3403"
       style="font-size:1174.96740723px;font-style:normal;font-weight:normal;line-height:125%;fill:#0068b3;fill-opacity:1;stroke:none;stroke-width:1px;stroke-linecap:butt;stroke-linejoin:miter;stroke-opacity:1;font-family:Bitstream Vera Sans" />
    <path
       d="M 585.29127,482.9671 L 585.29127,443.82199 L 573.64709,443.82199 L 573.64709,424.78594 L 617.83934,424.78594 L 617.83934,443.82199 L 606.19516,443.82199 L 606.19516,482.9671 L 585.29127,482.9671 z"
       transform="matrix(0.9676306,0.1375698,-2.0740809e-2,1.0305035,0,0)"
       id="text3407"
       style="font-size:81.39003754px;font-style:normal;font-variant:normal;font-weight:normal;font-stretch:normal;text-align:start;line-height:125%;writing-mode:lr-tb;text-anchor:start;fill:#0068b3;fill-opacity:1;stroke:none;stroke-width:1px;stroke-linecap:butt;stroke-linejoin:miter;stroke-opacity:1;font-family:Futura XBlk BT;-inkscape-font-specification:Futura XBlk BT" />
    <path
       d="M 203.50505,496.05631 C 254.86583,473.19062 285.04823,487.38709 301.57677,525.47782 C 267.52225,485.66374 235.41494,488.68842 203.50505,496.05631 z"
       id="path3411"
       style="fill:#0064b1;fill-opacity:1;fill-rule:evenodd;stroke:#000000;stroke-width:0;stroke-linecap:butt;stroke-linejoin:miter;stroke-miterlimit:4;stroke-dasharray:none;stroke-opacity:1" />
    <path
       d="M 328.54649,495.23905 C 308.49217,511.95364 307.29026,521.59857 304.02857,532.01594 C 312.37457,520.37612 321.59911,510.49335 334.26734,507.498 C 328.87738,503.41169 330.04502,499.32536 328.54649,495.23905 z"
       id="path3922"
       style="fill:#0064b1;fill-opacity:1;fill-rule:evenodd;stroke:#000000;stroke-width:0;stroke-linecap:butt;stroke-linejoin:miter;stroke-miterlimit:4;stroke-dasharray:none;stroke-opacity:1" />
    <path
       d="M 343.25725,492.78725 C 345.76676,480.97384 352.88032,482.9726 359.60254,483.79734 C 353.77865,486.04304 347.07125,486.52175 343.25725,492.78725 z"
       id="path3926"
       style="fill:#ffffff;fill-rule:evenodd;stroke:#000000;stroke-width:0;stroke-linecap:butt;stroke-linejoin:miter;stroke-miterlimit:4;stroke-dasharray:none;stroke-opacity:1" />
  </g>
</svg>
